<ttFont>
<head>
    <!-- Most of this table will be recalculated by the compiler -->
    <tableVersion value="1.0"/>
    <fontRevision value="1.302"/>
    <checkSumAdjustment value="0xe08ed6d5"/>
    <magicNumber value="0x5f0f3cf5"/>
    <flags value="00000000 00001011"/>
    <unitsPerEm value="1000"/>
    <created value="Mon May 10 23:55:28 2010"/>
    <modified value="Thu Mar  6 18:34:11 2014"/>
    <xMin value="-281"/>
    <yMin value="-262"/>
    <xMax value="1328"/>
    <yMax value="1120"/>
    <macStyle value="00000000 00000010"/>
    <lowestRecPPEM value="9"/>
    <fontDirectionHint value="2"/>
    <indexToLocFormat value="0"/>
    <glyphDataFormat value="0"/>
  </head>
    <TTGlyph name="A" xMin="-33" yMin="0" xMax="601" yMax="745">
      <contour>
        <pt x="542" y="0" on="1"/>
        <pt x="495" y="225" on="1"/>
        <pt x="163" y="225" on="1"/>
        <pt x="27" y="0" on="1"/>
        <pt x="-33" y="0" on="1"/>
        <pt x="424" y="745" on="1"/>
        <pt x="433" y="745" on="1"/>
        <pt x="601" y="0" on="1"/>
      </contour>
      <contour>
        <pt x="409" y="630" on="1"/>
        <pt x="192" y="272" on="1"/>
        <pt x="484" y="272" on="1"/>
      </contour>
    </TTGlyph>
    <TTGlyph name="AE" xMin="-33" yMin="0" xMax="1031" yMax="733">
      <contour>
        <pt x="1021" y="683" on="1"/>
        <pt x="673" y="683" on="1"/>
        <pt x="617" y="397" on="1"/>
        <pt x="931" y="397" on="1"/>
        <pt x="921" y="347" on="1"/>
        <pt x="608" y="347" on="1"/>
        <pt x="550" y="51" on="1"/>
        <pt x="899" y="51" on="1"/>
        <pt x="889" y="0" on="1"/>
        <pt x="484" y="0" on="1"/>
        <pt x="531" y="241" on="1"/>
        <pt x="249" y="241" on="1"/>
        <pt x="32" y="0" on="1"/>
        <pt x="-33" y="0" on="1"/>
        <pt x="626" y="733" on="1"/>
        <pt x="1031" y="733" on="1"/>
      </contour>
      <contour>
        <pt x="609" y="642" on="1"/>
        <pt x="291" y="289" on="1"/>
        <pt x="540" y="289" on="1"/>
      </contour>
    </TTGlyph>
    <TTGlyph name="AEacute" xMin="-33" yMin="0" xMax="1031" yMax="954">
      <component glyphName="acute" x="521" y="320" flags="0x4"/>
      <component glyphName="AE" x="0" y="0" flags="0x4"/>
    </TTGlyph>
    <TTGlyph name="Aacute" xMin="-33" yMin="0" xMax="614" yMax="954">
      <component glyphName="A" x="0" y="0" flags="0x204"/>
      <component glyphName="acute" x="233" y="320" flags="0x4"/>
    </TTGlyph>
    <TTGlyph name="Abreve" xMin="-33" yMin="0" xMax="601" yMax="937">
      <component glyphName="A" x="0" y="0" flags="0x204"/>
      <component glyphName="breve" x="168" y="320" flags="0x4"/>
    </TTGlyph>
    <TTGlyph name="Acircumflex" xMin="-33" yMin="0" xMax="601" yMax="954">
      <component glyphName="A" x="0" y="0" flags="0x204"/>
      <component glyphName="circumflex" x="164" y="320" flags="0x4"/>
    </TTGlyph>
    <TTGlyph name="Adieresis" xMin="-33" yMin="0" xMax="601" yMax="902">
      <component glyphName="A" x="0" y="0" flags="0x204"/>
      <component glyphName="dieresis" x="168" y="320" flags="0x4"/>
    </TTGlyph>
    <TTGlyph name="Agrave" xMin="-33" yMin="0" xMax="601" yMax="954">
      <component glyphName="A" x="0" y="0" flags="0x204"/>
      <component glyphName="grave" x="98" y="320" flags="0x4"/>
    </TTGlyph>
    <TTGlyph name="Amacron" xMin="-33" yMin="0" xMax="601" yMax="881">
      <component glyphName="A" x="0" y="0" flags="0x204"/>
      <component glyphName="macron" x="169" y="320" flags="0x4"/>
    </TTGlyph>
    <TTGlyph name="Aogonek" xMin="-33" yMin="-220" xMax="601" yMax="745">
      <contour>
        <pt x="596" y="-170" on="1"/>
        <pt x="574" y="-193" on="0"/>
        <pt x="528" y="-219" on="0"/>
        <pt x="500" y="-219" on="1"/>
        <pt x="468" y="-220" on="0"/>
        <pt x="433" y="-184" on="0"/>
        <pt x="433" y="-155" on="1"/>
        <pt x="433" y="-111" on="0"/>
        <pt x="496" y="-34" on="0"/>
        <pt x="541" y="3" on="1"/>
        <pt x="495" y="225" on="1"/>
        <pt x="163" y="225" on="1"/>
        <pt x="27" y="0" on="1"/>
        <pt x="-33" y="0" on="1"/>
        <pt x="424" y="745" on="1"/>
        <pt x="433" y="745" on="1"/>
        <pt x="601" y="0" on="1"/>
        <pt x="591" y="0" on="1"/>
        <pt x="577" y="-12" on="0"/>
        <pt x="540" y="-43" on="0"/>
        <pt x="506" y="-81" on="0"/>
        <pt x="482" y="-121" on="0"/>
        <pt x="482" y="-142" on="1"/>
        <pt x="482" y="-178" on="0"/>
        <pt x="513" y="-178" on="1"/>
        <pt x="529" y="-178" on="0"/>
        <pt x="557" y="-160" on="0"/>
        <pt x="574" y="-144" on="1"/>
      </contour>
      <contour>
        <pt x="409" y="630" on="1"/>
        <pt x="192" y="272" on="1"/>
        <pt x="484" y="272" on="1"/>
      </contour>
    </TTGlyph>
    <TTGlyph name="Aring" xMin="-33" yMin="0" xMax="601" yMax="912">
      <contour>
        <pt x="542" y="827" on="1"/>
        <pt x="542" y="806" on="0"/>
        <pt x="527" y="765" on="0"/>
        <pt x="500" y="733" on="0"/>
        <pt x="463" y="712" on="0"/>
        <pt x="441" y="710" on="1"/>
        <pt x="601" y="0" on="1"/>
        <pt x="542" y="0" on="1"/>
        <pt x="495" y="225" on="1"/>
        <pt x="163" y="225" on="1"/>
        <pt x="27" y="0" on="1"/>
        <pt x="-33" y="0" on="1"/>
        <pt x="404" y="713" on="1"/>
        <pt x="377" y="721" on="0"/>
        <pt x="344" y="765" on="0"/>
        <pt x="344" y="795" on="1"/>
        <pt x="344" y="817" on="0"/>
        <pt x="361" y="860" on="0"/>
        <pt x="391" y="892" on="0"/>
        <pt x="432" y="912" on="0"/>
        <pt x="456" y="912" on="1"/>
        <pt x="493" y="912" on="0"/>
        <pt x="542" y="864" on="0"/>
      </contour>
      <contour>
        <pt x="409" y="630" on="1"/>
        <pt x="192" y="272" on="1"/>
        <pt x="484" y="272" on="1"/>
      </contour>
      <contour>
        <pt x="501" y="823" on="1"/>
        <pt x="501" y="849" on="0"/>
        <pt x="474" y="879" on="0"/>
        <pt x="453" y="879" on="1"/>
        <pt x="426" y="879" on="0"/>
        <pt x="385" y="831" on="0"/>
        <pt x="385" y="798" on="1"/>
        <pt x="385" y="772" on="0"/>
        <pt x="412" y="743" on="0"/>
        <pt x="434" y="743" on="1"/>
        <pt x="460" y="743" on="0"/>
        <pt x="501" y="789" on="0"/>
      </contour>
    </TTGlyph>
    <TTGlyph name="Aringacute" xMin="-33" yMin="0" xMax="652" yMax="1120">
      <component glyphName="acute" x="271" y="486" flags="0x4"/>
      <component glyphName="Aring" x="0" y="0" flags="0x4"/>
    </TTGlyph>
    <TTGlyph name="Atilde" xMin="-33" yMin="0" xMax="608" yMax="912">
      <component glyphName="A" x="0" y="0" flags="0x204"/>
      <component glyphName="tilde" x="169" y="320" flags="0x4"/>
    </TTGlyph>
    <TTGlyph name="B" xMin="47" yMin="-7" xMax="547" yMax="740">
      <contour>
        <pt x="547" y="564" on="1"/>
        <pt x="547" y="495" on="0"/>
        <pt x="451" y="391" on="0"/>
        <pt x="364" y="372" on="1"/>
        <pt x="433" y="350" on="0"/>
        <pt x="505" y="268" on="0"/>
        <pt x="505" y="210" on="1"/>
        <pt x="505" y="166" on="0"/>
        <pt x="471" y="87" on="0"/>
        <pt x="401" y="28" on="0"/>
        <pt x="292" y="-7" on="0"/>
        <pt x="216" y="-7" on="1"/>
        <pt x="173" y="-7" on="0"/>
        <pt x="93" y="5" on="0"/>
        <pt x="47" y="16" on="1"/>
        <pt x="187" y="728" on="1"/>
        <pt x="217" y="733" on="0"/>
        <pt x="283" y="740" on="0"/>
        <pt x="319" y="740" on="1"/>
        <pt x="376" y="740" on="0"/>
        <pt x="461" y="711" on="0"/>
        <pt x="518" y="662" on="0"/>
        <pt x="547" y="598" on="0"/>
      </contour>
      <contour>
        <pt x="489" y="559" on="1"/>
        <pt x="489" y="616" on="0"/>
        <pt x="400" y="691" on="0"/>
        <pt x="317" y="691" on="1"/>
        <pt x="291" y="691" on="0"/>
        <pt x="249" y="686" on="0"/>
        <pt x="234" y="683" on="1"/>
        <pt x="179" y="402" on="1"/>
        <pt x="198" y="400" on="0"/>
        <pt x="239" y="398" on="0"/>
        <pt x="260" y="398" on="1"/>
        <pt x="371" y="398" on="0"/>
        <pt x="489" y="486" on="0"/>
      </contour>
      <contour>
        <pt x="448" y="203" on="1"/>
        <pt x="448" y="272" on="0"/>
        <pt x="335" y="355" on="0"/>
        <pt x="229" y="355" on="1"/>
        <pt x="215" y="355" on="0"/>
        <pt x="184" y="355" on="0"/>
        <pt x="170" y="353" on="1"/>
        <pt x="112" y="56" on="1"/>
        <pt x="146" y="48" on="0"/>
        <pt x="202" y="42" on="0"/>
        <pt x="235" y="42" on="1"/>
        <pt x="284" y="42" on="0"/>
        <pt x="363" y="67" on="0"/>
        <pt x="419" y="110" on="0"/>
        <pt x="448" y="169" on="0"/>
      </contour>
    </TTGlyph>
    <TTGlyph name="C" xMin="82" yMin="-10" xMax="747" yMax="744">
      <contour>
        <pt x="717" y="610" on="1"/>
        <pt x="673" y="646" on="0"/>
        <pt x="560" y="692" on="0"/>
        <pt x="492" y="692" on="1"/>
        <pt x="417" y="692" on="0"/>
        <pt x="288" y="632" on="0"/>
        <pt x="193" y="530" on="0"/>
        <pt x="140" y="394" on="0"/>
        <pt x="140" y="318" on="1"/>
        <pt x="140" y="256" on="0"/>
        <pt x="181" y="154" on="0"/>
        <pt x="254" y="81" on="0"/>
        <pt x="353" y="41" on="0"/>
        <pt x="412" y="41" on="1"/>
        <pt x="476" y="41" on="0"/>
        <pt x="578" y="79" on="0"/>
        <pt x="627" y="110" on="1"/>
        <pt x="651" y="64" on="1"/>
        <pt x="604" y="34" on="0"/>
        <pt x="484" y="-10" on="0"/>
        <pt x="406" y="-10" on="1"/>
        <pt x="339" y="-10" on="0"/>
        <pt x="221" y="37" on="0"/>
        <pt x="133" y="123" on="0"/>
        <pt x="82" y="243" on="0"/>
        <pt x="82" y="315" on="1"/>
        <pt x="82" y="405" on="0"/>
        <pt x="148" y="562" on="0"/>
        <pt x="262" y="677" on="0"/>
        <pt x="414" y="744" on="0"/>
        <pt x="500" y="744" on="1"/>
        <pt x="578" y="744" on="0"/>
        <pt x="704" y="690" on="0"/>
        <pt x="747" y="655" on="1"/>
      </contour>
    </TTGlyph>
    <TTGlyph name="Cacute" xMin="82" yMin="-10" xMax="747" yMax="954">
      <component glyphName="acute" x="306" y="320" flags="0x4"/>
      <component glyphName="C" x="0" y="0" flags="0x4"/>
    </TTGlyph>
    <TTGlyph name="Ccaron" xMin="82" yMin="-10" xMax="747" yMax="953">
      <component glyphName="caron" x="251" y="320" flags="0x4"/>
      <component glyphName="C" x="0" y="0" flags="0x4"/>
    </TTGlyph>
    <TTGlyph name="Ccedilla" xMin="82" yMin="-237" xMax="747" yMax="744">
      <contour>
        <pt x="449" y="-142" on="1"/>
        <pt x="449" y="-183" on="0"/>
        <pt x="385" y="-237" on="0"/>
        <pt x="334" y="-237" on="1"/>
        <pt x="282" y="-237" on="0"/>
        <pt x="231" y="-203" on="1"/>
        <pt x="255" y="-167" on="1"/>
        <pt x="296" y="-196" on="0"/>
        <pt x="337" y="-196" on="1"/>
        <pt x="364" y="-196" on="0"/>
        <pt x="401" y="-170" on="0"/>
        <pt x="401" y="-145" on="1"/>
        <pt x="401" y="-128" on="0"/>
        <pt x="361" y="-94" on="0"/>
        <pt x="311" y="-89" on="1"/>
        <pt x="309" y="-83" on="1"/>
        <pt x="346" y="-5" on="1"/>
        <pt x="290" y="5" on="0"/>
        <pt x="193" y="59" on="0"/>
        <pt x="122" y="142" on="0"/>
        <pt x="82" y="251" on="0"/>
        <pt x="82" y="315" on="1"/>
        <pt x="82" y="405" on="0"/>
        <pt x="148" y="562" on="0"/>
        <pt x="262" y="677" on="0"/>
        <pt x="414" y="744" on="0"/>
        <pt x="500" y="744" on="1"/>
        <pt x="578" y="744" on="0"/>
        <pt x="704" y="690" on="0"/>
        <pt x="747" y="655" on="1"/>
        <pt x="717" y="610" on="1"/>
        <pt x="673" y="646" on="0"/>
        <pt x="560" y="692" on="0"/>
        <pt x="492" y="692" on="1"/>
        <pt x="417" y="692" on="0"/>
        <pt x="288" y="632" on="0"/>
        <pt x="193" y="530" on="0"/>
        <pt x="140" y="394" on="0"/>
        <pt x="140" y="318" on="1"/>
        <pt x="140" y="256" on="0"/>
        <pt x="181" y="154" on="0"/>
        <pt x="254" y="81" on="0"/>
        <pt x="353" y="41" on="0"/>
        <pt x="412" y="41" on="1"/>
        <pt x="476" y="41" on="0"/>
        <pt x="578" y="79" on="0"/>
        <pt x="627" y="110" on="1"/>
        <pt x="651" y="64" on="1"/>
        <pt x="604" y="34" on="0"/>
        <pt x="484" y="-10" on="0"/>
        <pt x="406" y="-10" on="1"/>
        <pt x="401" y="-10" on="0"/>
        <pt x="390" y="-10" on="0"/>
        <pt x="385" y="-9" on="1"/>
        <pt x="363" y="-60" on="1"/>
        <pt x="449" y="-83" on="0"/>
      </contour>
    </TTGlyph>
    <TTGlyph name="Cdotaccent" xMin="82" yMin="-10" xMax="747" yMax="902">
      <component glyphName="C" x="0" y="0" flags="0x204"/>
      <component glyphName="dotaccent" x="244" y="320" flags="0x4"/>
    </TTGlyph>
    <TTGlyph name="D" xMin="46" yMin="-7" xMax="680" yMax="740">
      <contour>
        <pt x="217" y="-7" on="1"/>
        <pt x="173" y="-7" on="0"/>
        <pt x="84" y="1" on="0"/>
        <pt x="46" y="8" on="1"/>
        <pt x="186" y="730" on="1"/>
        <pt x="218" y="735" on="0"/>
        <pt x="282" y="740" on="0"/>
        <pt x="320" y="740" on="1"/>
        <pt x="405" y="740" on="0"/>
        <pt x="542" y="691" on="0"/>
        <pt x="590" y="643" on="1"/>
        <pt x="633" y="600" on="0"/>
        <pt x="680" y="482" on="0"/>
        <pt x="680" y="409" on="1"/>
        <pt x="680" y="319" on="0"/>
        <pt x="615" y="167" on="0"/>
        <pt x="494" y="56" on="0"/>
        <pt x="323" y="-7" on="0"/>
      </contour>
      <contour>
        <pt x="322" y="691" on="1"/>
        <pt x="300" y="691" on="0"/>
        <pt x="256" y="688" on="0"/>
        <pt x="234" y="684" on="1"/>
        <pt x="110" y="51" on="1"/>
        <pt x="138" y="47" on="0"/>
        <pt x="203" y="43" on="0"/>
        <pt x="231" y="43" on="1"/>
        <pt x="316" y="43" on="0"/>
        <pt x="460" y="97" on="0"/>
        <pt x="564" y="193" on="0"/>
        <pt x="622" y="326" on="0"/>
        <pt x="622" y="404" on="1"/>
        <pt x="622" y="476" on="0"/>
        <pt x="579" y="578" on="0"/>
        <pt x="544" y="612" on="1"/>
        <pt x="505" y="651" on="0"/>
        <pt x="391" y="691" on="0"/>
      </contour>
    </TTGlyph>
    <TTGlyph name="Dcaron" xMin="46" yMin="-7" xMax="680" yMax="953">
      <component glyphName="caron" x="156" y="320" flags="0x4"/>
      <component glyphName="D" x="0" y="0" flags="0x4"/>
    </TTGlyph>
    <TTGlyph name="Dcroat" xMin="56" yMin="-7" xMax="710" yMax="740">
      <component glyphName="Eth" x="0" y="0" flags="0x204"/>
    </TTGlyph>
    <TTGlyph name="E" xMin="44" yMin="0" xMax="592" yMax="733">
      <contour>
        <pt x="582" y="683" on="1"/>
        <pt x="234" y="683" on="1"/>
        <pt x="178" y="397" on="1"/>
        <pt x="492" y="397" on="1"/>
        <pt x="482" y="347" on="1"/>
        <pt x="169" y="347" on="1"/>
        <pt x="111" y="51" on="1"/>
        <pt x="460" y="51" on="1"/>
        <pt x="450" y="0" on="1"/>
        <pt x="44" y="0" on="1"/>
        <pt x="187" y="733" on="1"/>
        <pt x="592" y="733" on="1"/>
      </contour>
    </TTGlyph>
    <TTGlyph name="Eacute" xMin="44" yMin="0" xMax="592" yMax="954">
      <component glyphName="acute" x="190" y="320" flags="0x4"/>
      <component glyphName="E" x="0" y="0" flags="0x4"/>
    </TTGlyph>
    <TTGlyph name="Ebreve" xMin="44" yMin="0" xMax="592" yMax="937">
      <component glyphName="E" x="0" y="0" flags="0x204"/>
      <component glyphName="breve" x="134" y="320" flags="0x4"/>
    </TTGlyph>
    <TTGlyph name="Ecaron" xMin="44" yMin="0" xMax="592" yMax="953">
      <component glyphName="caron" x="135" y="320" flags="0x4"/>
      <component glyphName="E" x="0" y="0" flags="0x4"/>
    </TTGlyph>
    <TTGlyph name="Ecircumflex" xMin="44" yMin="0" xMax="592" yMax="954">
      <component glyphName="circumflex" x="126" y="320" flags="0x4"/>
      <component glyphName="E" x="0" y="0" flags="0x4"/>
    </TTGlyph>
    <TTGlyph name="Edieresis" xMin="44" yMin="0" xMax="592" yMax="902">
      <component glyphName="dieresis" x="130" y="320" flags="0x4"/>
      <component glyphName="E" x="0" y="0" flags="0x4"/>
    </TTGlyph>
    <TTGlyph name="Edotaccent" xMin="44" yMin="0" xMax="592" yMax="902">
      <component glyphName="E" x="0" y="0" flags="0x204"/>
      <component glyphName="dotaccent" x="128" y="320" flags="0x4"/>
    </TTGlyph>
    <TTGlyph name="Egrave" xMin="44" yMin="0" xMax="592" yMax="954">
      <component glyphName="E" x="0" y="0" flags="0x204"/>
      <component glyphName="grave" x="60" y="320" flags="0x4"/>
    </TTGlyph>
    <TTGlyph name="Emacron" xMin="44" yMin="0" xMax="592" yMax="881">
      <component glyphName="E" x="0" y="0" flags="0x204"/>
      <component glyphName="macron" x="131" y="320" flags="0x4"/>
    </TTGlyph>
    <TTGlyph name="Eogonek" xMin="44" yMin="-220" xMax="592" yMax="733">
      <contour>
        <pt x="582" y="683" on="1"/>
        <pt x="234" y="683" on="1"/>
        <pt x="178" y="397" on="1"/>
        <pt x="492" y="397" on="1"/>
        <pt x="482" y="347" on="1"/>
        <pt x="169" y="347" on="1"/>
        <pt x="111" y="51" on="1"/>
        <pt x="460" y="51" on="1"/>
        <pt x="450" y="0" on="1"/>
        <pt x="416" y="0" on="1"/>
        <pt x="402" y="-12" on="0"/>
        <pt x="365" y="-43" on="0"/>
        <pt x="331" y="-81" on="0"/>
        <pt x="307" y="-121" on="0"/>
        <pt x="307" y="-142" on="1"/>
        <pt x="307" y="-178" on="0"/>
        <pt x="338" y="-178" on="1"/>
        <pt x="354" y="-178" on="0"/>
        <pt x="382" y="-160" on="0"/>
        <pt x="399" y="-144" on="1"/>
        <pt x="421" y="-170" on="1"/>
        <pt x="399" y="-193" on="0"/>
        <pt x="353" y="-219" on="0"/>
        <pt x="325" y="-219" on="1"/>
        <pt x="293" y="-220" on="0"/>
        <pt x="258" y="-184" on="0"/>
        <pt x="258" y="-155" on="1"/>
        <pt x="258" y="-112" on="0"/>
        <pt x="318" y="-36" on="0"/>
        <pt x="362" y="0" on="1"/>
        <pt x="44" y="0" on="1"/>
        <pt x="187" y="733" on="1"/>
        <pt x="592" y="733" on="1"/>
      </contour>
    </TTGlyph>
    <TTGlyph name="Eth" xMin="56" yMin="-7" xMax="710" yMax="740">
      <contour>
        <pt x="710" y="409" on="1"/>
        <pt x="710" y="319" on="0"/>
        <pt x="645" y="167" on="0"/>
        <pt x="524" y="56" on="0"/>
        <pt x="353" y="-7" on="0"/>
        <pt x="247" y="-7" on="1"/>
        <pt x="203" y="-7" on="0"/>
        <pt x="114" y="1" on="0"/>
        <pt x="76" y="8" on="1"/>
        <pt x="142" y="348" on="1"/>
        <pt x="56" y="348" on="1"/>
        <pt x="65" y="398" on="1"/>
        <pt x="151" y="398" on="1"/>
        <pt x="216" y="730" on="1"/>
        <pt x="248" y="735" on="0"/>
        <pt x="312" y="740" on="0"/>
        <pt x="350" y="740" on="1"/>
        <pt x="435" y="740" on="0"/>
        <pt x="572" y="691" on="0"/>
        <pt x="620" y="643" on="1"/>
        <pt x="663" y="600" on="0"/>
        <pt x="710" y="482" on="0"/>
      </contour>
      <contour>
        <pt x="652" y="404" on="1"/>
        <pt x="652" y="476" on="0"/>
        <pt x="609" y="578" on="0"/>
        <pt x="574" y="612" on="1"/>
        <pt x="535" y="651" on="0"/>
        <pt x="421" y="691" on="0"/>
        <pt x="352" y="691" on="1"/>
        <pt x="330" y="691" on="0"/>
        <pt x="286" y="688" on="0"/>
        <pt x="264" y="684" on="1"/>
        <pt x="208" y="398" on="1"/>
        <pt x="344" y="398" on="1"/>
        <pt x="335" y="348" on="1"/>
        <pt x="198" y="348" on="1"/>
        <pt x="140" y="51" on="1"/>
        <pt x="168" y="47" on="0"/>
        <pt x="233" y="43" on="0"/>
        <pt x="261" y="43" on="1"/>
        <pt x="346" y="43" on="0"/>
        <pt x="490" y="97" on="0"/>
        <pt x="594" y="193" on="0"/>
        <pt x="652" y="326" on="0"/>
      </contour>
    </TTGlyph>
    <TTGlyph name="Euro" xMin="30" yMin="-9" xMax="625" yMax="586">
      <contour>
        <pt x="110" y="243" on="1"/>
        <pt x="110" y="247" on="1"/>
        <pt x="110" y="292" on="0"/>
        <pt x="120" y="331" on="1"/>
        <pt x="56" y="331" on="1"/>
        <pt x="65" y="380" on="1"/>
        <pt x="136" y="380" on="1"/>
        <pt x="155" y="426" on="0"/>
        <pt x="217" y="502" on="0"/>
        <pt x="296" y="556" on="0"/>
        <pt x="390" y="586" on="0"/>
        <pt x="441" y="586" on="1"/>
        <pt x="496" y="586" on="0"/>
        <pt x="593" y="548" on="0"/>
        <pt x="625" y="522" on="1"/>
        <pt x="596" y="480" on="1"/>
        <pt x="567" y="504" on="0"/>
        <pt x="481" y="537" on="0"/>
        <pt x="432" y="537" on="1"/>
        <pt x="391" y="537" on="0"/>
        <pt x="319" y="514" on="0"/>
        <pt x="258" y="472" on="0"/>
        <pt x="210" y="414" on="0"/>
        <pt x="194" y="380" on="1"/>
        <pt x="506" y="380" on="1"/>
        <pt x="497" y="331" on="1"/>
        <pt x="176" y="331" on="1"/>
        <pt x="165" y="289" on="0"/>
        <pt x="165" y="249" on="1"/>
        <pt x="165" y="243" on="1"/>
        <pt x="480" y="243" on="1"/>
        <pt x="470" y="196" on="1"/>
        <pt x="170" y="196" on="1"/>
        <pt x="186" y="123" on="0"/>
        <pt x="296" y="40" on="0"/>
        <pt x="373" y="40" on="1"/>
        <pt x="421" y="40" on="0"/>
        <pt x="498" y="67" on="0"/>
        <pt x="535" y="90" on="1"/>
        <pt x="554" y="46" on="1"/>
        <pt x="516" y="24" on="0"/>
        <pt x="424" y="-9" on="0"/>
        <pt x="365" y="-9" on="1"/>
        <pt x="318" y="-9" on="0"/>
        <pt x="235" y="20" on="0"/>
        <pt x="168" y="73" on="0"/>
        <pt x="123" y="149" on="0"/>
        <pt x="114" y="196" on="1"/>
        <pt x="30" y="196" on="1"/>
        <pt x="39" y="243" on="1"/>
      </contour>
    </TTGlyph>
    <TTGlyph name="Euro.lin" xMin="40" yMin="-10" xMax="795" yMax="744">
      <contour>
        <pt x="170" y="473" on="1"/>
        <pt x="194" y="534" on="0"/>
        <pt x="274" y="635" on="0"/>
        <pt x="376" y="705" on="0"/>
        <pt x="496" y="744" on="0"/>
        <pt x="560" y="744" on="1"/>
        <pt x="631" y="744" on="0"/>
        <pt x="753" y="695" on="0"/>
        <pt x="795" y="661" on="1"/>
        <pt x="764" y="617" on="1"/>
        <pt x="726" y="649" on="0"/>
        <pt x="615" y="690" on="0"/>
        <pt x="552" y="690" on="1"/>
        <pt x="498" y="690" on="0"/>
        <pt x="400" y="658" on="0"/>
        <pt x="317" y="600" on="0"/>
        <pt x="252" y="521" on="0"/>
        <pt x="232" y="473" on="1"/>
        <pt x="641" y="473" on="1"/>
        <pt x="631" y="424" on="1"/>
        <pt x="215" y="424" on="1"/>
        <pt x="201" y="371" on="0"/>
        <pt x="201" y="319" on="1"/>
        <pt x="201" y="307" on="1"/>
        <pt x="609" y="307" on="1"/>
        <pt x="600" y="258" on="1"/>
        <pt x="206" y="258" on="1"/>
        <pt x="215" y="210" on="0"/>
        <pt x="262" y="131" on="0"/>
        <pt x="331" y="74" on="0"/>
        <pt x="420" y="43" on="0"/>
        <pt x="472" y="43" on="1"/>
        <pt x="535" y="43" on="0"/>
        <pt x="638" y="80" on="0"/>
        <pt x="687" y="111" on="1"/>
        <pt x="711" y="65" on="1"/>
        <pt x="665" y="36" on="0"/>
        <pt x="544" y="-10" on="0"/>
        <pt x="466" y="-10" on="1"/>
        <pt x="403" y="-10" on="0"/>
        <pt x="295" y="30" on="0"/>
        <pt x="211" y="102" on="0"/>
        <pt x="155" y="200" on="0"/>
        <pt x="145" y="258" on="1"/>
        <pt x="40" y="258" on="1"/>
        <pt x="50" y="307" on="1"/>
        <pt x="141" y="307" on="1"/>
        <pt x="141" y="315" on="1"/>
        <pt x="141" y="344" on="0"/>
        <pt x="148" y="398" on="0"/>
        <pt x="154" y="424" on="1"/>
        <pt x="72" y="424" on="1"/>
        <pt x="82" y="473" on="1"/>
      </contour>
    </TTGlyph>
    <TTGlyph name="F" xMin="44" yMin="0" xMax="592" yMax="733">
      <contour>
        <pt x="582" y="683" on="1"/>
        <pt x="234" y="683" on="1"/>
        <pt x="176" y="384" on="1"/>
        <pt x="490" y="384" on="1"/>
        <pt x="480" y="334" on="1"/>
        <pt x="166" y="334" on="1"/>
        <pt x="101" y="0" on="1"/>
        <pt x="44" y="0" on="1"/>
        <pt x="187" y="733" on="1"/>
        <pt x="592" y="733" on="1"/>
      </contour>
    </TTGlyph>
    <TTGlyph name="G" xMin="82" yMin="-10" xMax="739" yMax="744">
      <contour>
        <pt x="659" y="64" on="1"/>
        <pt x="612" y="35" on="0"/>
        <pt x="491" y="-10" on="0"/>
        <pt x="406" y="-10" on="1"/>
        <pt x="339" y="-10" on="0"/>
        <pt x="221" y="37" on="0"/>
        <pt x="133" y="123" on="0"/>
        <pt x="82" y="243" on="0"/>
        <pt x="82" y="315" on="1"/>
        <pt x="82" y="405" on="0"/>
        <pt x="150" y="562" on="0"/>
        <pt x="266" y="677" on="0"/>
        <pt x="417" y="744" on="0"/>
        <pt x="500" y="744" on="1"/>
        <pt x="537" y="744" on="0"/>
        <pt x="607" y="731" on="0"/>
        <pt x="668" y="710" on="0"/>
        <pt x="720" y="683" on="0"/>
        <pt x="739" y="668" on="1"/>
        <pt x="709" y="623" on="1"/>
        <pt x="671" y="652" on="0"/>
        <pt x="561" y="692" on="0"/>
        <pt x="492" y="692" on="1"/>
        <pt x="418" y="692" on="0"/>
        <pt x="290" y="632" on="0"/>
        <pt x="195" y="530" on="0"/>
        <pt x="140" y="394" on="0"/>
        <pt x="140" y="318" on="1"/>
        <pt x="140" y="256" on="0"/>
        <pt x="181" y="154" on="0"/>
        <pt x="253" y="81" on="0"/>
        <pt x="353" y="41" on="0"/>
        <pt x="412" y="41" on="1"/>
        <pt x="476" y="41" on="0"/>
        <pt x="576" y="73" on="0"/>
        <pt x="609" y="94" on="1"/>
        <pt x="648" y="298" on="1"/>
        <pt x="437" y="298" on="1"/>
        <pt x="447" y="349" on="1"/>
        <pt x="714" y="349" on="1"/>
      </contour>
    </TTGlyph>
    <TTGlyph name="G.alt" xMin="83" yMin="-10" xMax="789" yMax="744">
      <contour>
        <pt x="789" y="345" on="1"/>
        <pt x="777" y="264" on="0"/>
        <pt x="713" y="133" on="0"/>
        <pt x="617" y="40" on="0"/>
        <pt x="491" y="-10" on="0"/>
        <pt x="415" y="-10" on="1"/>
        <pt x="345" y="-10" on="0"/>
        <pt x="224" y="38" on="0"/>
        <pt x="134" y="125" on="0"/>
        <pt x="83" y="244" on="0"/>
        <pt x="83" y="316" on="1"/>
        <pt x="83" y="406" on="0"/>
        <pt x="151" y="562" on="0"/>
        <pt x="266" y="678" on="0"/>
        <pt x="417" y="744" on="0"/>
        <pt x="500" y="744" on="1"/>
        <pt x="537" y="744" on="0"/>
        <pt x="607" y="731" on="0"/>
        <pt x="668" y="710" on="0"/>
        <pt x="720" y="683" on="0"/>
        <pt x="739" y="668" on="1"/>
        <pt x="710" y="622" on="1"/>
        <pt x="672" y="651" on="0"/>
        <pt x="562" y="692" on="0"/>
        <pt x="493" y="692" on="1"/>
        <pt x="419" y="692" on="0"/>
        <pt x="290" y="632" on="0"/>
        <pt x="195" y="530" on="0"/>
        <pt x="140" y="393" on="0"/>
        <pt x="140" y="317" on="1"/>
        <pt x="140" y="257" on="0"/>
        <pt x="181" y="156" on="0"/>
        <pt x="255" y="82" on="0"/>
        <pt x="360" y="41" on="0"/>
        <pt x="424" y="41" on="1"/>
        <pt x="477" y="41" on="0"/>
        <pt x="574" y="76" on="0"/>
        <pt x="653" y="142" on="0"/>
        <pt x="710" y="236" on="0"/>
        <pt x="723" y="295" on="1"/>
        <pt x="418" y="295" on="1"/>
        <pt x="428" y="345" on="1"/>
      </contour>
    </TTGlyph>
    <TTGlyph name="Gbreve" xMin="82" yMin="-10" xMax="739" yMax="937">
      <component glyphName="G" x="0" y="0" flags="0x204"/>
      <component glyphName="breve" x="245" y="320" flags="0x4"/>
    </TTGlyph>
    <TTGlyph name="Gbreve.alt" xMin="83" yMin="-10" xMax="789" yMax="937">
      <component glyphName="G.alt" x="0" y="0" flags="0x204"/>
      <component glyphName="breve" x="245" y="320" flags="0x4"/>
    </TTGlyph>
    <TTGlyph name="Gcommaaccent" xMin="82" yMin="-262" xMax="739" yMax="744">
      <component glyphName="commaaccent" x="217" y="0" flags="0x4"/>
      <component glyphName="G" x="0" y="0" flags="0x4"/>
    </TTGlyph>
    <TTGlyph name="Gcommaaccent.alt" xMin="83" yMin="-262" xMax="789" yMax="744">
      <component glyphName="commaaccent" x="260" y="0" flags="0x4"/>
      <component glyphName="G.alt" x="0" y="0" flags="0x4"/>
    </TTGlyph>
    <TTGlyph name="Gdotaccent" xMin="82" yMin="-10" xMax="739" yMax="902">
      <component glyphName="G" x="0" y="0" flags="0x204"/>
      <component glyphName="dotaccent" x="240" y="320" flags="0x4"/>
    </TTGlyph>
    <TTGlyph name="Gdotaccent.alt" xMin="83" yMin="-10" xMax="789" yMax="902">
      <component glyphName="G.alt" x="0" y="0" flags="0x4"/>
      <component glyphName="dotaccent" x="240" y="320" flags="0x4"/>
    </TTGlyph>
    <TTGlyph name="H" xMin="44" yMin="0" xMax="709" yMax="733">
      <contour>
        <pt x="566" y="0" on="1"/>
        <pt x="509" y="0" on="1"/>
        <pt x="577" y="348" on="1"/>
        <pt x="169" y="348" on="1"/>
        <pt x="101" y="0" on="1"/>
        <pt x="44" y="0" on="1"/>
        <pt x="187" y="733" on="1"/>
        <pt x="244" y="733" on="1"/>
        <pt x="179" y="398" on="1"/>
        <pt x="587" y="398" on="1"/>
        <pt x="652" y="733" on="1"/>
        <pt x="709" y="733" on="1"/>
      </contour>
    </TTGlyph>
    <TTGlyph name="Hbar" xMin="54" yMin="0" xMax="771" yMax="733">
      <contour>
        <pt x="693" y="602" on="1"/>
        <pt x="771" y="602" on="1"/>
        <pt x="761" y="554" on="1"/>
        <pt x="684" y="554" on="1"/>
        <pt x="576" y="0" on="1"/>
        <pt x="519" y="0" on="1"/>
        <pt x="587" y="348" on="1"/>
        <pt x="179" y="348" on="1"/>
        <pt x="111" y="0" on="1"/>
        <pt x="54" y="0" on="1"/>
        <pt x="162" y="554" on="1"/>
        <pt x="85" y="554" on="1"/>
        <pt x="94" y="602" on="1"/>
        <pt x="171" y="602" on="1"/>
        <pt x="197" y="733" on="1"/>
        <pt x="254" y="733" on="1"/>
        <pt x="229" y="602" on="1"/>
        <pt x="637" y="602" on="1"/>
        <pt x="662" y="733" on="1"/>
        <pt x="719" y="733" on="1"/>
      </contour>
      <contour>
        <pt x="597" y="398" on="1"/>
        <pt x="627" y="554" on="1"/>
        <pt x="219" y="554" on="1"/>
        <pt x="189" y="398" on="1"/>
      </contour>
    </TTGlyph>
    <TTGlyph name="I" xMin="49" yMin="0" xMax="248" yMax="733">
      <contour>
        <pt x="105" y="0" on="1"/>
        <pt x="49" y="0" on="1"/>
        <pt x="192" y="733" on="1"/>
        <pt x="248" y="733" on="1"/>
      </contour>
    </TTGlyph>
    <TTGlyph name="Iacute" xMin="49" yMin="0" xMax="406" yMax="954">
      <component glyphName="I" x="0" y="0" flags="0x204"/>
      <component glyphName="acute" x="25" y="320" flags="0x4"/>
    </TTGlyph>
    <TTGlyph name="Ibreve" xMin="49" yMin="0" xMax="390" yMax="937">
      <component glyphName="I" x="0" y="0" flags="0x204"/>
      <component glyphName="breve" x="-34" y="320" flags="0x4"/>
    </TTGlyph>
    <TTGlyph name="Icircumflex" xMin="49" yMin="0" xMax="368" yMax="954">
      <component glyphName="I" x="0" y="0" flags="0x204"/>
      <component glyphName="circumflex" x="-42" y="320" flags="0x4"/>
    </TTGlyph>
    <TTGlyph name="Idieresis" xMin="49" yMin="0" xMax="371" yMax="902">
      <component glyphName="I" x="0" y="0" flags="0x204"/>
      <component glyphName="dieresis" x="-38" y="320" flags="0x4"/>
    </TTGlyph>
    <TTGlyph name="Idotaccent" xMin="49" yMin="0" xMax="286" yMax="902">
      <component glyphName="I" x="0" y="0" flags="0x204"/>
      <component glyphName="dotaccent" x="-40" y="320" flags="0x4"/>
    </TTGlyph>
    <TTGlyph name="Igrave" xMin="49" yMin="0" xMax="274" yMax="954">
      <component glyphName="I" x="0" y="0" flags="0x204"/>
      <component glyphName="grave" x="-108" y="320" flags="0x4"/>
    </TTGlyph>
    <TTGlyph name="Imacron" xMin="49" yMin="0" xMax="389" yMax="881">
      <component glyphName="I" x="0" y="0" flags="0x204"/>
      <component glyphName="macron" x="-37" y="320" flags="0x4"/>
    </TTGlyph>
    <TTGlyph name="Iogonek" xMin="-46" yMin="-220" xMax="248" yMax="733">
      <contour>
        <pt x="105" y="0" on="1"/>
        <pt x="102" y="0" on="1"/>
        <pt x="85" y="-15" on="0"/>
        <pt x="50" y="-49" on="0"/>
        <pt x="22" y="-85" on="0"/>
        <pt x="3" y="-122" on="0"/>
        <pt x="3" y="-141" on="1"/>
        <pt x="3" y="-178" on="0"/>
        <pt x="34" y="-178" on="1"/>
        <pt x="50" y="-178" on="0"/>
        <pt x="78" y="-160" on="0"/>
        <pt x="95" y="-144" on="1"/>
        <pt x="117" y="-170" on="1"/>
        <pt x="95" y="-193" on="0"/>
        <pt x="49" y="-219" on="0"/>
        <pt x="20" y="-219" on="1"/>
        <pt x="-12" y="-220" on="0"/>
        <pt x="-46" y="-184" on="0"/>
        <pt x="-46" y="-155" on="1"/>
        <pt x="-46" y="-113" on="0"/>
        <pt x="9" y="-37" on="0"/>
        <pt x="50" y="0" on="1"/>
        <pt x="49" y="0" on="1"/>
        <pt x="192" y="733" on="1"/>
        <pt x="248" y="733" on="1"/>
      </contour>
    </TTGlyph>
    <TTGlyph name="J" xMin="-14" yMin="-10" xMax="452" yMax="733">
      <contour>
        <pt x="346" y="193" on="1"/>
        <pt x="327" y="95" on="0"/>
        <pt x="230" y="-10" on="0"/>
        <pt x="144" y="-10" on="1"/>
        <pt x="96" y="-10" on="0"/>
        <pt x="16" y="22" on="0"/>
        <pt x="-14" y="48" on="1"/>
        <pt x="19" y="89" on="1"/>
        <pt x="49" y="65" on="0"/>
        <pt x="109" y="41" on="0"/>
        <pt x="147" y="41" on="1"/>
        <pt x="206" y="41" on="0"/>
        <pt x="275" y="116" on="0"/>
        <pt x="291" y="201" on="1"/>
        <pt x="395" y="733" on="1"/>
        <pt x="452" y="733" on="1"/>
      </contour>
    </TTGlyph>
    <TTGlyph name="K" xMin="44" yMin="0" xMax="650" yMax="733">
      <contour>
        <pt x="227" y="374" on="1"/>
        <pt x="521" y="0" on="1"/>
        <pt x="450" y="0" on="1"/>
        <pt x="172" y="362" on="1"/>
        <pt x="101" y="0" on="1"/>
        <pt x="44" y="0" on="1"/>
        <pt x="187" y="733" on="1"/>
        <pt x="244" y="733" on="1"/>
        <pt x="177" y="391" on="1"/>
        <pt x="573" y="733" on="1"/>
        <pt x="650" y="733" on="1"/>
      </contour>
    </TTGlyph>
    <TTGlyph name="Kcommaaccent" xMin="44" yMin="-262" xMax="650" yMax="733">
      <component glyphName="commaaccent" x="124" y="0" flags="0x4"/>
      <component glyphName="K" x="0" y="0" flags="0x4"/>
    </TTGlyph>
    <TTGlyph name="L" xMin="44" yMin="0" xMax="459" yMax="733">
      <contour>
        <pt x="449" y="0" on="1"/>
        <pt x="44" y="0" on="1"/>
        <pt x="187" y="733" on="1"/>
        <pt x="244" y="733" on="1"/>
        <pt x="111" y="51" on="1"/>
        <pt x="459" y="51" on="1"/>
      </contour>
    </TTGlyph>
    <TTGlyph name="Lacute" xMin="44" yMin="0" xMax="459" yMax="954">
      <component glyphName="acute" x="39" y="320" flags="0x4"/>
      <component glyphName="L" x="0" y="0" flags="0x4"/>
    </TTGlyph>
    <TTGlyph name="Lcaron" xMin="44" yMin="0" xMax="459" yMax="733">
      <component glyphName="caron.alt" x="262" y="-8" flags="0x4"/>
      <component glyphName="L" x="0" y="0" flags="0x4"/>
    </TTGlyph>
    <TTGlyph name="Lcommaaccent" xMin="44" yMin="-262" xMax="459" yMax="733">
      <component glyphName="commaaccent" x="104" y="0" flags="0x4"/>
      <component glyphName="L" x="0" y="0" flags="0x4"/>
    </TTGlyph>
    <TTGlyph name="Ldot" xMin="44" yMin="0" xMax="459" yMax="733">
      <contour>
        <pt x="449" y="0" on="1"/>
        <pt x="44" y="0" on="1"/>
        <pt x="187" y="733" on="1"/>
        <pt x="244" y="733" on="1"/>
        <pt x="111" y="51" on="1"/>
        <pt x="459" y="51" on="1"/>
      </contour>
      <contour>
        <pt x="447" y="365" on="1"/>
        <pt x="447" y="348" on="0"/>
        <pt x="423" y="325" on="0"/>
        <pt x="406" y="325" on="1"/>
        <pt x="389" y="325" on="0"/>
        <pt x="366" y="348" on="0"/>
        <pt x="366" y="365" on="1"/>
        <pt x="366" y="382" on="0"/>
        <pt x="389" y="406" on="0"/>
        <pt x="406" y="406" on="1"/>
        <pt x="423" y="406" on="0"/>
        <pt x="447" y="382" on="0"/>
      </contour>
    </TTGlyph>
    <TTGlyph name="Lslash" xMin="66" yMin="0" xMax="487" yMax="733">
      <contour>
        <pt x="477" y="0" on="1"/>
        <pt x="72" y="0" on="1"/>
        <pt x="135" y="324" on="1"/>
        <pt x="66" y="295" on="1"/>
        <pt x="76" y="351" on="1"/>
        <pt x="96" y="359" on="0"/>
        <pt x="111" y="365" on="1"/>
        <pt x="123" y="369" on="0"/>
        <pt x="134" y="375" on="1"/>
        <pt x="139" y="378" on="0"/>
        <pt x="145" y="380" on="1"/>
        <pt x="215" y="733" on="1"/>
        <pt x="271" y="733" on="1"/>
        <pt x="208" y="406" on="1"/>
        <pt x="321" y="453" on="1"/>
        <pt x="311" y="397" on="1"/>
        <pt x="196" y="350" on="1"/>
        <pt x="191" y="328" on="0"/>
        <pt x="187" y="303" on="1"/>
        <pt x="183" y="282" on="0"/>
        <pt x="172" y="228" on="0"/>
        <pt x="167" y="200" on="1"/>
        <pt x="154" y="134" on="0"/>
        <pt x="138" y="51" on="1"/>
        <pt x="487" y="51" on="1"/>
      </contour>
    </TTGlyph>
    <TTGlyph name="M" xMin="35" yMin="0" xMax="841" yMax="744">
      <contour>
        <pt x="721" y="0" on="1"/>
        <pt x="664" y="0" on="1"/>
        <pt x="765" y="582" on="1"/>
        <pt x="407" y="104" on="1"/>
        <pt x="397" y="104" on="1"/>
        <pt x="218" y="591" on="1"/>
        <pt x="92" y="0" on="1"/>
        <pt x="35" y="0" on="1"/>
        <pt x="204" y="742" on="1"/>
        <pt x="217" y="744" on="1"/>
        <pt x="416" y="189" on="1"/>
        <pt x="826" y="744" on="1"/>
        <pt x="841" y="742" on="1"/>
      </contour>
    </TTGlyph>
    <TTGlyph name="M.alt" xMin="35" yMin="0" xMax="841" yMax="744">
      <contour>
        <pt x="721" y="0" on="1"/>
        <pt x="664" y="0" on="1"/>
        <pt x="768" y="597" on="1"/>
        <pt x="421" y="180" on="1"/>
        <pt x="411" y="180" on="1"/>
        <pt x="222" y="608" on="1"/>
        <pt x="92" y="0" on="1"/>
        <pt x="35" y="0" on="1"/>
        <pt x="204" y="742" on="1"/>
        <pt x="217" y="744" on="1"/>
        <pt x="428" y="257" on="1"/>
        <pt x="826" y="744" on="1"/>
        <pt x="841" y="742" on="1"/>
      </contour>
    </TTGlyph>
    <TTGlyph name="N" xMin="45" yMin="-11" xMax="731" yMax="744">
      <contour>
        <pt x="587" y="-9" on="1"/>
        <pt x="576" y="-11" on="1"/>
        <pt x="220" y="615" on="1"/>
        <pt x="100" y="0" on="1"/>
        <pt x="45" y="0" on="1"/>
        <pt x="189" y="741" on="1"/>
        <pt x="203" y="744" on="1"/>
        <pt x="557" y="125" on="1"/>
        <pt x="675" y="733" on="1"/>
        <pt x="731" y="733" on="1"/>
      </contour>
    </TTGlyph>
    <TTGlyph name="Nacute" xMin="45" yMin="-11" xMax="731" yMax="941">
      <component glyphName="acute" x="257" y="307" flags="0x4"/>
      <component glyphName="N" x="0" y="0" flags="0x4"/>
    </TTGlyph>
    <TTGlyph name="Ncaron" xMin="45" yMin="-11" xMax="731" yMax="940">
      <component glyphName="caron" x="202" y="307" flags="0x4"/>
      <component glyphName="N" x="0" y="0" flags="0x4"/>
    </TTGlyph>
    <TTGlyph name="Ncommaaccent" xMin="45" yMin="-262" xMax="731" yMax="744">
      <component glyphName="commaaccent" x="175" y="0" flags="0x4"/>
      <component glyphName="N" x="0" y="0" flags="0x4"/>
    </TTGlyph>
    <TTGlyph name="Ntilde" xMin="45" yMin="-11" xMax="731" yMax="899">
      <component glyphName="N" x="0" y="0" flags="0x204"/>
      <component glyphName="tilde" x="198" y="307" flags="0x4"/>
    </TTGlyph>
    <TTGlyph name="O" xMin="83" yMin="-10" xMax="804" yMax="744">
      <contour>
        <pt x="804" y="411" on="1"/>
        <pt x="804" y="333" on="0"/>
        <pt x="748" y="182" on="0"/>
        <pt x="644" y="63" on="0"/>
        <pt x="496" y="-10" on="0"/>
        <pt x="405" y="-10" on="1"/>
        <pt x="335" y="-10" on="0"/>
        <pt x="217" y="39" on="0"/>
        <pt x="131" y="127" on="0"/>
        <pt x="83" y="249" on="0"/>
        <pt x="83" y="323" on="1"/>
        <pt x="83" y="401" on="0"/>
        <pt x="139" y="552" on="0"/>
        <pt x="243" y="671" on="0"/>
        <pt x="391" y="744" on="0"/>
        <pt x="482" y="744" on="1"/>
        <pt x="552" y="744" on="0"/>
        <pt x="670" y="695" on="0"/>
        <pt x="756" y="607" on="0"/>
        <pt x="804" y="484" on="0"/>
      </contour>
      <contour>
        <pt x="747" y="412" on="1"/>
        <pt x="747" y="473" on="0"/>
        <pt x="708" y="576" on="0"/>
        <pt x="638" y="651" on="0"/>
        <pt x="540" y="692" on="0"/>
        <pt x="481" y="692" on="1"/>
        <pt x="407" y="692" on="0"/>
        <pt x="282" y="633" on="0"/>
        <pt x="191" y="532" on="0"/>
        <pt x="140" y="397" on="0"/>
        <pt x="140" y="322" on="1"/>
        <pt x="140" y="260" on="0"/>
        <pt x="179" y="157" on="0"/>
        <pt x="249" y="82" on="0"/>
        <pt x="347" y="41" on="0"/>
        <pt x="406" y="41" on="1"/>
        <pt x="480" y="41" on="0"/>
        <pt x="605" y="100" on="0"/>
        <pt x="696" y="201" on="0"/>
        <pt x="747" y="336" on="0"/>
      </contour>
    </TTGlyph>
    <TTGlyph name="OE" xMin="84" yMin="-7" xMax="1064" yMax="740">
      <contour>
        <pt x="1055" y="683" on="1"/>
        <pt x="706" y="683" on="1"/>
        <pt x="651" y="397" on="1"/>
        <pt x="964" y="397" on="1"/>
        <pt x="955" y="347" on="1"/>
        <pt x="641" y="347" on="1"/>
        <pt x="583" y="51" on="1"/>
        <pt x="932" y="51" on="1"/>
        <pt x="922" y="0" on="1"/>
        <pt x="539" y="0" on="1"/>
        <pt x="516" y="-2" on="0"/>
        <pt x="468" y="-7" on="0"/>
        <pt x="439" y="-7" on="1"/>
        <pt x="351" y="-7" on="0"/>
        <pt x="218" y="46" on="0"/>
        <pt x="129" y="137" on="0"/>
        <pt x="84" y="258" on="0"/>
        <pt x="84" y="325" on="1"/>
        <pt x="84" y="414" on="0"/>
        <pt x="149" y="566" on="0"/>
        <pt x="270" y="677" on="0"/>
        <pt x="441" y="740" on="0"/>
        <pt x="547" y="740" on="1"/>
        <pt x="573" y="740" on="0"/>
        <pt x="629" y="736" on="0"/>
        <pt x="655" y="733" on="1"/>
        <pt x="1064" y="733" on="1"/>
      </contour>
      <contour>
        <pt x="437" y="43" on="1"/>
        <pt x="484" y="43" on="0"/>
        <pt x="526" y="49" on="1"/>
        <pt x="649" y="682" on="1"/>
        <pt x="622" y="687" on="0"/>
        <pt x="559" y="691" on="0"/>
        <pt x="533" y="691" on="1"/>
        <pt x="448" y="691" on="0"/>
        <pt x="304" y="637" on="0"/>
        <pt x="200" y="541" on="0"/>
        <pt x="142" y="408" on="0"/>
        <pt x="142" y="330" on="1"/>
        <pt x="142" y="255" on="0"/>
        <pt x="193" y="140" on="0"/>
        <pt x="240" y="105" on="1"/>
        <pt x="275" y="76" on="0"/>
        <pt x="374" y="43" on="0"/>
      </contour>
    </TTGlyph>
    <TTGlyph name="Oacute" xMin="83" yMin="-10" xMax="804" yMax="954">
      <component glyphName="acute" x="315" y="320" flags="0x4"/>
      <component glyphName="O" x="0" y="0" flags="0x4"/>
    </TTGlyph>
    <TTGlyph name="Obreve" xMin="83" yMin="-10" xMax="804" yMax="937">
      <component glyphName="O" x="0" y="0" flags="0x204"/>
      <component glyphName="breve" x="259" y="320" flags="0x4"/>
    </TTGlyph>
    <TTGlyph name="Ocircumflex" xMin="83" yMin="-10" xMax="804" yMax="954">
      <component glyphName="circumflex" x="251" y="320" flags="0x4"/>
      <component glyphName="O" x="0" y="0" flags="0x4"/>
    </TTGlyph>
    <TTGlyph name="Odieresis" xMin="83" yMin="-10" xMax="804" yMax="902">
      <component glyphName="dieresis" x="255" y="320" flags="0x4"/>
      <component glyphName="O" x="0" y="0" flags="0x4"/>
    </TTGlyph>
    <TTGlyph name="Ograve" xMin="83" yMin="-10" xMax="804" yMax="954">
      <component glyphName="O" x="0" y="0" flags="0x204"/>
      <component glyphName="grave" x="186" y="320" flags="0x4"/>
    </TTGlyph>
    <TTGlyph name="Ohungarumlaut" xMin="83" yMin="-10" xMax="804" yMax="992">
      <component glyphName="hungarumlaut" x="291" y="320" flags="0x4"/>
      <component glyphName="O" x="0" y="0" flags="0x4"/>
    </TTGlyph>
    <TTGlyph name="Omacron" xMin="83" yMin="-10" xMax="804" yMax="881">
      <component glyphName="macron" x="256" y="320" flags="0x4"/>
      <component glyphName="O" x="0" y="0" flags="0x4"/>
    </TTGlyph>
    <TTGlyph name="Oslash" xMin="61" yMin="-10" xMax="826" yMax="744">
      <contour>
        <pt x="804" y="411" on="1"/>
        <pt x="804" y="333" on="0"/>
        <pt x="748" y="182" on="0"/>
        <pt x="644" y="63" on="0"/>
        <pt x="496" y="-10" on="0"/>
        <pt x="405" y="-10" on="1"/>
        <pt x="336" y="-10" on="0"/>
        <pt x="222" y="35" on="0"/>
        <pt x="179" y="77" on="1"/>
        <pt x="92" y="-6" on="1"/>
        <pt x="61" y="30" on="1"/>
        <pt x="147" y="114" on="1"/>
        <pt x="116" y="156" on="0"/>
        <pt x="83" y="261" on="0"/>
        <pt x="83" y="323" on="1"/>
        <pt x="83" y="401" on="0"/>
        <pt x="139" y="552" on="0"/>
        <pt x="243" y="671" on="0"/>
        <pt x="391" y="744" on="0"/>
        <pt x="482" y="744" on="1"/>
        <pt x="550" y="744" on="0"/>
        <pt x="665" y="698" on="0"/>
        <pt x="708" y="656" on="1"/>
        <pt x="795" y="740" on="1"/>
        <pt x="826" y="704" on="1"/>
        <pt x="811" y="690" on="0"/>
        <pt x="796" y="675" on="1"/>
        <pt x="783" y="662" on="0"/>
        <pt x="752" y="633" on="0"/>
        <pt x="739" y="620" on="1"/>
        <pt x="770" y="578" on="0"/>
        <pt x="804" y="473" on="0"/>
      </contour>
      <contour>
        <pt x="747" y="412" on="1"/>
        <pt x="747" y="461" on="0"/>
        <pt x="722" y="546" on="0"/>
        <pt x="699" y="581" on="1"/>
        <pt x="676" y="559" on="0"/>
        <pt x="600" y="485" on="0"/>
        <pt x="508" y="396" on="0"/>
        <pt x="408" y="300" on="0"/>
        <pt x="316" y="211" on="0"/>
        <pt x="240" y="137" on="0"/>
        <pt x="218" y="115" on="1"/>
        <pt x="253" y="80" on="0"/>
        <pt x="348" y="41" on="0"/>
        <pt x="406" y="41" on="1"/>
        <pt x="480" y="41" on="0"/>
        <pt x="605" y="100" on="0"/>
        <pt x="696" y="201" on="0"/>
        <pt x="747" y="336" on="0"/>
      </contour>
      <contour>
        <pt x="140" y="322" on="1"/>
        <pt x="140" y="272" on="0"/>
        <pt x="164" y="188" on="0"/>
        <pt x="187" y="153" on="1"/>
        <pt x="669" y="618" on="1"/>
        <pt x="634" y="653" on="0"/>
        <pt x="538" y="692" on="0"/>
        <pt x="481" y="692" on="1"/>
        <pt x="407" y="692" on="0"/>
        <pt x="282" y="633" on="0"/>
        <pt x="191" y="532" on="0"/>
        <pt x="140" y="397" on="0"/>
      </contour>
    </TTGlyph>
    <TTGlyph name="Oslashacute" xMin="61" yMin="-10" xMax="826" yMax="954">
      <component glyphName="Oslash" x="0" y="0" flags="0x204"/>
      <component glyphName="acute" x="315" y="320" flags="0x4"/>
    </TTGlyph>
    <TTGlyph name="Otilde" xMin="83" yMin="-10" xMax="804" yMax="912">
      <component glyphName="O" x="0" y="0" flags="0x204"/>
      <component glyphName="tilde" x="256" y="320" flags="0x4"/>
    </TTGlyph>
    <TTGlyph name="P" xMin="44" yMin="0" xMax="568" yMax="738">
      <contour>
        <pt x="568" y="517" on="1"/>
        <pt x="568" y="462" on="0"/>
        <pt x="529" y="367" on="0"/>
        <pt x="451" y="296" on="0"/>
        <pt x="334" y="255" on="0"/>
        <pt x="257" y="255" on="1"/>
        <pt x="235" y="255" on="0"/>
        <pt x="176" y="260" on="0"/>
        <pt x="152" y="264" on="1"/>
        <pt x="101" y="0" on="1"/>
        <pt x="44" y="0" on="1"/>
        <pt x="186" y="728" on="1"/>
        <pt x="216" y="733" on="0"/>
        <pt x="277" y="738" on="0"/>
        <pt x="305" y="738" on="1"/>
        <pt x="370" y="738" on="0"/>
        <pt x="468" y="704" on="0"/>
        <pt x="534" y="644" on="0"/>
        <pt x="568" y="563" on="0"/>
      </contour>
      <contour>
        <pt x="510" y="514" on="1"/>
        <pt x="510" y="548" on="0"/>
        <pt x="487" y="611" on="0"/>
        <pt x="437" y="659" on="0"/>
        <pt x="361" y="688" on="0"/>
        <pt x="309" y="688" on="1"/>
        <pt x="291" y="688" on="0"/>
        <pt x="254" y="684" on="0"/>
        <pt x="234" y="681" on="1"/>
        <pt x="162" y="314" on="1"/>
        <pt x="188" y="310" on="0"/>
        <pt x="241" y="305" on="0"/>
        <pt x="264" y="305" on="1"/>
        <pt x="326" y="305" on="0"/>
        <pt x="419" y="338" on="0"/>
        <pt x="480" y="395" on="0"/>
        <pt x="510" y="471" on="0"/>
      </contour>
    </TTGlyph>
    <TTGlyph name="Q" xMin="83" yMin="-19" xMax="804" yMax="744">
      <contour>
        <pt x="804" y="411" on="1"/>
        <pt x="804" y="323" on="0"/>
        <pt x="733" y="155" on="0"/>
        <pt x="667" y="93" on="1"/>
        <pt x="733" y="19" on="1"/>
        <pt x="692" y="-19" on="1"/>
        <pt x="625" y="59" on="1"/>
        <pt x="579" y="27" on="0"/>
        <pt x="469" y="-10" on="0"/>
        <pt x="405" y="-10" on="1"/>
        <pt x="335" y="-10" on="0"/>
        <pt x="217" y="39" on="0"/>
        <pt x="131" y="127" on="0"/>
        <pt x="83" y="249" on="0"/>
        <pt x="83" y="323" on="1"/>
        <pt x="83" y="401" on="0"/>
        <pt x="139" y="552" on="0"/>
        <pt x="243" y="671" on="0"/>
        <pt x="391" y="744" on="0"/>
        <pt x="482" y="744" on="1"/>
        <pt x="552" y="744" on="0"/>
        <pt x="670" y="695" on="0"/>
        <pt x="756" y="607" on="0"/>
        <pt x="804" y="484" on="0"/>
      </contour>
      <contour>
        <pt x="747" y="412" on="1"/>
        <pt x="747" y="473" on="0"/>
        <pt x="708" y="576" on="0"/>
        <pt x="638" y="651" on="0"/>
        <pt x="540" y="692" on="0"/>
        <pt x="481" y="692" on="1"/>
        <pt x="407" y="692" on="0"/>
        <pt x="282" y="633" on="0"/>
        <pt x="191" y="532" on="0"/>
        <pt x="140" y="397" on="0"/>
        <pt x="140" y="322" on="1"/>
        <pt x="140" y="260" on="0"/>
        <pt x="179" y="157" on="0"/>
        <pt x="249" y="82" on="0"/>
        <pt x="347" y="41" on="0"/>
        <pt x="406" y="41" on="1"/>
        <pt x="459" y="41" on="0"/>
        <pt x="552" y="71" on="0"/>
        <pt x="590" y="98" on="1"/>
        <pt x="459" y="245" on="1"/>
        <pt x="500" y="283" on="1"/>
        <pt x="632" y="133" on="1"/>
        <pt x="686" y="184" on="0"/>
        <pt x="747" y="328" on="0"/>
      </contour>
    </TTGlyph>
    <TTGlyph name="R" xMin="44" yMin="0" xMax="571" yMax="738">
      <contour>
        <pt x="571" y="537" on="1"/>
        <pt x="571" y="495" on="0"/>
        <pt x="544" y="418" on="0"/>
        <pt x="490" y="357" on="0"/>
        <pt x="411" y="312" on="0"/>
        <pt x="360" y="302" on="1"/>
        <pt x="513" y="0" on="1"/>
        <pt x="446" y="0" on="1"/>
        <pt x="302" y="294" on="1"/>
        <pt x="294" y="293" on="0"/>
        <pt x="278" y="293" on="0"/>
        <pt x="270" y="293" on="1"/>
        <pt x="241" y="293" on="0"/>
        <pt x="190" y="297" on="0"/>
        <pt x="159" y="300" on="1"/>
        <pt x="101" y="0" on="1"/>
        <pt x="44" y="0" on="1"/>
        <pt x="186" y="728" on="1"/>
        <pt x="221" y="733" on="0"/>
        <pt x="284" y="738" on="0"/>
        <pt x="322" y="738" on="1"/>
        <pt x="383" y="738" on="0"/>
        <pt x="476" y="707" on="0"/>
        <pt x="539" y="653" on="0"/>
        <pt x="571" y="579" on="0"/>
      </contour>
      <contour>
        <pt x="513" y="533" on="1"/>
        <pt x="513" y="566" on="0"/>
        <pt x="490" y="622" on="0"/>
        <pt x="443" y="663" on="0"/>
        <pt x="371" y="687" on="0"/>
        <pt x="323" y="687" on="1"/>
        <pt x="298" y="687" on="0"/>
        <pt x="259" y="685" on="0"/>
        <pt x="234" y="681" on="1"/>
        <pt x="169" y="350" on="1"/>
        <pt x="197" y="347" on="0"/>
        <pt x="250" y="343" on="0"/>
        <pt x="276" y="343" on="1"/>
        <pt x="333" y="343" on="0"/>
        <pt x="421" y="371" on="0"/>
        <pt x="482" y="421" on="0"/>
        <pt x="513" y="491" on="0"/>
      </contour>
    </TTGlyph>
    <TTGlyph name="Racute" xMin="44" yMin="0" xMax="571" yMax="954">
      <component glyphName="acute" x="179" y="320" flags="0x4"/>
      <component glyphName="R" x="0" y="0" flags="0x4"/>
    </TTGlyph>
    <TTGlyph name="Rcaron" xMin="44" yMin="0" xMax="571" yMax="953">
      <component glyphName="caron" x="124" y="320" flags="0x4"/>
      <component glyphName="R" x="0" y="0" flags="0x4"/>
    </TTGlyph>
    <TTGlyph name="Rcommaaccent" xMin="44" yMin="-262" xMax="571" yMax="738">
      <component glyphName="commaaccent" x="94" y="0" flags="0x4"/>
      <component glyphName="R" x="0" y="0" flags="0x4"/>
    </TTGlyph>
    <TTGlyph name="S" xMin="3" yMin="-10" xMax="520" yMax="744">
      <contour>
        <pt x="489" y="635" on="1"/>
        <pt x="459" y="660" on="0"/>
        <pt x="382" y="692" on="0"/>
        <pt x="340" y="692" on="1"/>
        <pt x="302" y="692" on="0"/>
        <pt x="244" y="669" on="0"/>
        <pt x="203" y="629" on="0"/>
        <pt x="182" y="577" on="0"/>
        <pt x="182" y="547" on="1"/>
        <pt x="182" y="521" on="0"/>
        <pt x="200" y="481" on="0"/>
        <pt x="232" y="446" on="0"/>
        <pt x="277" y="413" on="0"/>
        <pt x="305" y="395" on="1"/>
        <pt x="331" y="377" on="0"/>
        <pt x="383" y="339" on="0"/>
        <pt x="424" y="293" on="0"/>
        <pt x="450" y="235" on="0"/>
        <pt x="450" y="197" on="1"/>
        <pt x="450" y="154" on="0"/>
        <pt x="419" y="79" on="0"/>
        <pt x="361" y="23" on="0"/>
        <pt x="277" y="-10" on="0"/>
        <pt x="224" y="-10" on="1"/>
        <pt x="164" y="-10" on="0"/>
        <pt x="49" y="37" on="0"/>
        <pt x="3" y="76" on="1"/>
        <pt x="35" y="120" on="1"/>
        <pt x="77" y="85" on="0"/>
        <pt x="171" y="42" on="0"/>
        <pt x="224" y="42" on="1"/>
        <pt x="303" y="42" on="0"/>
        <pt x="393" y="125" on="0"/>
        <pt x="393" y="191" on="1"/>
        <pt x="393" y="219" on="0"/>
        <pt x="371" y="265" on="0"/>
        <pt x="335" y="304" on="0"/>
        <pt x="288" y="339" on="0"/>
        <pt x="262" y="356" on="1"/>
        <pt x="236" y="373" on="0"/>
        <pt x="187" y="409" on="0"/>
        <pt x="149" y="453" on="0"/>
        <pt x="125" y="507" on="0"/>
        <pt x="125" y="541" on="1"/>
        <pt x="125" y="583" on="0"/>
        <pt x="157" y="657" on="0"/>
        <pt x="215" y="712" on="0"/>
        <pt x="296" y="744" on="0"/>
        <pt x="345" y="744" on="1"/>
        <pt x="395" y="744" on="0"/>
        <pt x="487" y="707" on="0"/>
        <pt x="520" y="679" on="1"/>
      </contour>
    </TTGlyph>
    <TTGlyph name="Sacute" xMin="3" yMin="-10" xMax="526" yMax="954">
      <component glyphName="acute" x="145" y="320" flags="0x4"/>
      <component glyphName="S" x="0" y="0" flags="0x4"/>
    </TTGlyph>
    <TTGlyph name="Scaron" xMin="3" yMin="-10" xMax="524" yMax="953">
      <component glyphName="caron" x="90" y="320" flags="0x4"/>
      <component glyphName="S" x="0" y="0" flags="0x4"/>
    </TTGlyph>
    <TTGlyph name="Scedilla" xMin="3" yMin="-237" xMax="520" yMax="744">
      <contour>
        <pt x="295" y="-142" on="1"/>
        <pt x="295" y="-183" on="0"/>
        <pt x="231" y="-237" on="0"/>
        <pt x="180" y="-237" on="1"/>
        <pt x="128" y="-237" on="0"/>
        <pt x="77" y="-203" on="1"/>
        <pt x="101" y="-167" on="1"/>
        <pt x="142" y="-196" on="0"/>
        <pt x="183" y="-196" on="1"/>
        <pt x="210" y="-196" on="0"/>
        <pt x="247" y="-170" on="0"/>
        <pt x="247" y="-145" on="1"/>
        <pt x="247" y="-128" on="0"/>
        <pt x="207" y="-94" on="0"/>
        <pt x="157" y="-89" on="1"/>
        <pt x="155" y="-83" on="1"/>
        <pt x="190" y="-8" on="1"/>
        <pt x="139" y="-2" on="0"/>
        <pt x="42" y="42" on="0"/>
        <pt x="3" y="76" on="1"/>
        <pt x="35" y="120" on="1"/>
        <pt x="77" y="85" on="0"/>
        <pt x="171" y="42" on="0"/>
        <pt x="224" y="42" on="1"/>
        <pt x="303" y="42" on="0"/>
        <pt x="393" y="125" on="0"/>
        <pt x="393" y="191" on="1"/>
        <pt x="393" y="219" on="0"/>
        <pt x="371" y="265" on="0"/>
        <pt x="335" y="304" on="0"/>
        <pt x="288" y="339" on="0"/>
        <pt x="262" y="356" on="1"/>
        <pt x="236" y="373" on="0"/>
        <pt x="187" y="409" on="0"/>
        <pt x="149" y="453" on="0"/>
        <pt x="125" y="507" on="0"/>
        <pt x="125" y="541" on="1"/>
        <pt x="125" y="583" on="0"/>
        <pt x="157" y="657" on="0"/>
        <pt x="215" y="712" on="0"/>
        <pt x="296" y="744" on="0"/>
        <pt x="345" y="744" on="1"/>
        <pt x="395" y="744" on="0"/>
        <pt x="487" y="707" on="0"/>
        <pt x="520" y="679" on="1"/>
        <pt x="489" y="635" on="1"/>
        <pt x="459" y="660" on="0"/>
        <pt x="382" y="692" on="0"/>
        <pt x="340" y="692" on="1"/>
        <pt x="302" y="692" on="0"/>
        <pt x="244" y="669" on="0"/>
        <pt x="203" y="629" on="0"/>
        <pt x="182" y="577" on="0"/>
        <pt x="182" y="547" on="1"/>
        <pt x="182" y="521" on="0"/>
        <pt x="200" y="481" on="0"/>
        <pt x="232" y="446" on="0"/>
        <pt x="277" y="413" on="0"/>
        <pt x="305" y="395" on="1"/>
        <pt x="331" y="377" on="0"/>
        <pt x="383" y="339" on="0"/>
        <pt x="424" y="293" on="0"/>
        <pt x="450" y="235" on="0"/>
        <pt x="450" y="197" on="1"/>
        <pt x="450" y="155" on="0"/>
        <pt x="420" y="81" on="0"/>
        <pt x="364" y="25" on="0"/>
        <pt x="283" y="-9" on="0"/>
        <pt x="231" y="-10" on="1"/>
        <pt x="209" y="-60" on="1"/>
        <pt x="295" y="-83" on="0"/>
      </contour>
    </TTGlyph>
    <TTGlyph name="Scommaaccent" xMin="3" yMin="-262" xMax="520" yMax="744">
      <component glyphName="commaaccent" x="60" y="0" flags="0x4"/>
      <component glyphName="S" x="0" y="0" flags="0x4"/>
    </TTGlyph>
    <TTGlyph name="T" xMin="110" yMin="0" xMax="656" yMax="733">
      <contour>
        <pt x="646" y="681" on="1"/>
        <pt x="405" y="681" on="1"/>
        <pt x="273" y="0" on="1"/>
        <pt x="217" y="0" on="1"/>
        <pt x="349" y="681" on="1"/>
        <pt x="110" y="681" on="1"/>
        <pt x="120" y="733" on="1"/>
        <pt x="656" y="733" on="1"/>
      </contour>
    </TTGlyph>
    <TTGlyph name="Tcaron" xMin="110" yMin="0" xMax="656" yMax="953">
      <component glyphName="caron" x="135" y="320" flags="0x4"/>
      <component glyphName="T" x="0" y="0" flags="0x4"/>
    </TTGlyph>
    <TTGlyph name="Tcommaaccent" xMin="110" yMin="-262" xMax="656" yMax="733">
      <component glyphName="commaaccent" x="105" y="0" flags="0x4"/>
      <component glyphName="T" x="0" y="0" flags="0x4"/>
    </TTGlyph>
    <TTGlyph name="Thorn" xMin="45" yMin="0" xMax="543" yMax="733">
      <contour>
        <pt x="188" y="733" on="1"/>
        <pt x="244" y="733" on="1"/>
        <pt x="219" y="606" on="1"/>
        <pt x="233" y="608" on="0"/>
        <pt x="267" y="609" on="0"/>
        <pt x="280" y="609" on="1"/>
        <pt x="345" y="609" on="0"/>
        <pt x="443" y="575" on="0"/>
        <pt x="509" y="515" on="0"/>
        <pt x="543" y="434" on="0"/>
        <pt x="543" y="387" on="1"/>
        <pt x="543" y="333" on="0"/>
        <pt x="504" y="237" on="0"/>
        <pt x="426" y="166" on="0"/>
        <pt x="309" y="125" on="0"/>
        <pt x="232" y="125" on="1"/>
        <pt x="210" y="125" on="0"/>
        <pt x="152" y="130" on="0"/>
        <pt x="128" y="134" on="1"/>
        <pt x="101" y="0" on="1"/>
        <pt x="45" y="0" on="1"/>
      </contour>
      <contour>
        <pt x="485" y="384" on="1"/>
        <pt x="485" y="418" on="0"/>
        <pt x="462" y="481" on="0"/>
        <pt x="412" y="529" on="0"/>
        <pt x="336" y="558" on="0"/>
        <pt x="284" y="558" on="1"/>
        <pt x="266" y="558" on="0"/>
        <pt x="228" y="555" on="0"/>
        <pt x="209" y="553" on="1"/>
        <pt x="138" y="184" on="1"/>
        <pt x="163" y="180" on="0"/>
        <pt x="216" y="175" on="0"/>
        <pt x="239" y="175" on="1"/>
        <pt x="301" y="175" on="0"/>
        <pt x="394" y="208" on="0"/>
        <pt x="455" y="265" on="0"/>
        <pt x="485" y="341" on="0"/>
      </contour>
    </TTGlyph>
    <TTGlyph name="U" xMin="89" yMin="-10" xMax="716" yMax="733">
      <contour>
        <pt x="621" y="247" on="1"/>
        <pt x="571" y="-10" on="0"/>
        <pt x="326" y="-10" on="1"/>
        <pt x="215" y="-10" on="0"/>
        <pt x="89" y="111" on="0"/>
        <pt x="89" y="217" on="1"/>
        <pt x="89" y="238" on="0"/>
        <pt x="94" y="277" on="0"/>
        <pt x="98" y="297" on="1"/>
        <pt x="182" y="733" on="1"/>
        <pt x="239" y="733" on="1"/>
        <pt x="153" y="288" on="1"/>
        <pt x="149" y="270" on="0"/>
        <pt x="145" y="239" on="0"/>
        <pt x="145" y="219" on="1"/>
        <pt x="145" y="136" on="0"/>
        <pt x="243" y="41" on="0"/>
        <pt x="336" y="41" on="1"/>
        <pt x="429" y="41" on="0"/>
        <pt x="544" y="143" on="0"/>
        <pt x="566" y="257" on="1"/>
        <pt x="659" y="733" on="1"/>
        <pt x="716" y="733" on="1"/>
      </contour>
    </TTGlyph>
    <TTGlyph name="Uacute" xMin="89" yMin="-10" xMax="716" yMax="941">
      <component glyphName="acute" x="245" y="307" flags="0x4"/>
      <component glyphName="U" x="0" y="0" flags="0x4"/>
    </TTGlyph>
    <TTGlyph name="Ubreve" xMin="89" yMin="-10" xMax="716" yMax="924">
      <component glyphName="U" x="0" y="0" flags="0x204"/>
      <component glyphName="breve" x="188" y="307" flags="0x4"/>
    </TTGlyph>
    <TTGlyph name="Ucircumflex" xMin="89" yMin="-10" xMax="716" yMax="941">
      <component glyphName="circumflex" x="181" y="307" flags="0x4"/>
      <component glyphName="U" x="0" y="0" flags="0x4"/>
    </TTGlyph>
    <TTGlyph name="Udieresis" xMin="89" yMin="-10" xMax="716" yMax="889">
      <component glyphName="dieresis" x="185" y="307" flags="0x4"/>
      <component glyphName="U" x="0" y="0" flags="0x4"/>
    </TTGlyph>
    <TTGlyph name="Ugrave" xMin="89" yMin="-10" xMax="716" yMax="941">
      <component glyphName="U" x="0" y="0" flags="0x204"/>
      <component glyphName="grave" x="115" y="307" flags="0x4"/>
    </TTGlyph>
    <TTGlyph name="Uhungarumlaut" xMin="89" yMin="-10" xMax="716" yMax="979">
      <component glyphName="U" x="0" y="0" flags="0x204"/>
      <component glyphName="hungarumlaut" x="221" y="307" flags="0x4"/>
    </TTGlyph>
    <TTGlyph name="Umacron" xMin="89" yMin="-10" xMax="716" yMax="868">
      <component glyphName="U" x="0" y="0" flags="0x204"/>
      <component glyphName="macron" x="186" y="307" flags="0x4"/>
    </TTGlyph>
    <TTGlyph name="Uogonek" xMin="89" yMin="-220" xMax="716" yMax="733">
      <contour>
        <pt x="621" y="247" on="1"/>
        <pt x="573" y="3" on="0"/>
        <pt x="349" y="-9" on="1"/>
        <pt x="335" y="-21" on="0"/>
        <pt x="301" y="-52" on="0"/>
        <pt x="271" y="-86" on="0"/>
        <pt x="251" y="-123" on="0"/>
        <pt x="251" y="-141" on="1"/>
        <pt x="251" y="-178" on="0"/>
        <pt x="283" y="-178" on="1"/>
        <pt x="298" y="-178" on="0"/>
        <pt x="327" y="-160" on="0"/>
        <pt x="343" y="-144" on="1"/>
        <pt x="366" y="-170" on="1"/>
        <pt x="343" y="-193" on="0"/>
        <pt x="297" y="-219" on="0"/>
        <pt x="269" y="-219" on="1"/>
        <pt x="237" y="-220" on="0"/>
        <pt x="203" y="-184" on="0"/>
        <pt x="203" y="-155" on="1"/>
        <pt x="203" y="-114" on="0"/>
        <pt x="256" y="-43" on="0"/>
        <pt x="296" y="-8" on="1"/>
        <pt x="199" y="0" on="0"/>
        <pt x="89" y="118" on="0"/>
        <pt x="89" y="217" on="1"/>
        <pt x="89" y="238" on="0"/>
        <pt x="94" y="277" on="0"/>
        <pt x="98" y="297" on="1"/>
        <pt x="182" y="733" on="1"/>
        <pt x="239" y="733" on="1"/>
        <pt x="153" y="288" on="1"/>
        <pt x="149" y="270" on="0"/>
        <pt x="145" y="239" on="0"/>
        <pt x="145" y="219" on="1"/>
        <pt x="145" y="136" on="0"/>
        <pt x="243" y="41" on="0"/>
        <pt x="336" y="41" on="1"/>
        <pt x="429" y="41" on="0"/>
        <pt x="544" y="143" on="0"/>
        <pt x="566" y="257" on="1"/>
        <pt x="659" y="733" on="1"/>
        <pt x="716" y="733" on="1"/>
      </contour>
    </TTGlyph>
    <TTGlyph name="Uring" xMin="89" yMin="-10" xMax="716" yMax="992">
      <component glyphName="ring" x="190" y="307" flags="0x4"/>
      <component glyphName="U" x="0" y="0" flags="0x4"/>
    </TTGlyph>
    <TTGlyph name="V" xMin="120" yMin="-12" xMax="759" yMax="733">
      <contour>
        <pt x="300" y="-12" on="1"/>
        <pt x="289" y="-12" on="1"/>
        <pt x="120" y="733" on="1"/>
        <pt x="178" y="733" on="1"/>
        <pt x="316" y="104" on="1"/>
        <pt x="694" y="733" on="1"/>
        <pt x="759" y="733" on="1"/>
      </contour>
    </TTGlyph>
    <TTGlyph name="W" xMin="135" yMin="-12" xMax="1010" yMax="737">
      <contour>
        <pt x="673" y="-10" on="1"/>
        <pt x="658" y="-12" on="1"/>
        <pt x="547" y="616" on="1"/>
        <pt x="198" y="-12" on="1"/>
        <pt x="182" y="-10" on="1"/>
        <pt x="135" y="733" on="1"/>
        <pt x="191" y="733" on="1"/>
        <pt x="226" y="133" on="1"/>
        <pt x="563" y="737" on="1"/>
        <pt x="575" y="737" on="1"/>
        <pt x="684" y="128" on="1"/>
        <pt x="948" y="733" on="1"/>
        <pt x="1010" y="733" on="1"/>
      </contour>
    </TTGlyph>
    <TTGlyph name="Wacute" xMin="135" yMin="-12" xMax="1010" yMax="954">
      <component glyphName="acute" x="369" y="320" flags="0x4"/>
      <component glyphName="W" x="0" y="0" flags="0x4"/>
    </TTGlyph>
    <TTGlyph name="Wcircumflex" xMin="135" yMin="-12" xMax="1010" yMax="954">
      <component glyphName="circumflex" x="306" y="320" flags="0x4"/>
      <component glyphName="W" x="0" y="0" flags="0x4"/>
    </TTGlyph>
    <TTGlyph name="Wdieresis" xMin="135" yMin="-12" xMax="1010" yMax="902">
      <component glyphName="dieresis" x="310" y="320" flags="0x4"/>
      <component glyphName="W" x="0" y="0" flags="0x4"/>
    </TTGlyph>
    <TTGlyph name="Wgrave" xMin="135" yMin="-12" xMax="1010" yMax="954">
      <component glyphName="W" x="0" y="0" flags="0x204"/>
      <component glyphName="grave" x="240" y="320" flags="0x4"/>
    </TTGlyph>
    <TTGlyph name="X" xMin="-4" yMin="0" xMax="726" yMax="733">
      <contour>
        <pt x="397" y="367" on="1"/>
        <pt x="588" y="0" on="1"/>
        <pt x="526" y="0" on="1"/>
        <pt x="358" y="329" on="1"/>
        <pt x="66" y="0" on="1"/>
        <pt x="-4" y="0" on="1"/>
        <pt x="332" y="371" on="1"/>
        <pt x="143" y="733" on="1"/>
        <pt x="205" y="733" on="1"/>
        <pt x="371" y="409" on="1"/>
        <pt x="657" y="733" on="1"/>
        <pt x="726" y="733" on="1"/>
      </contour>
    </TTGlyph>
    <TTGlyph name="Y" xMin="117" yMin="0" xMax="676" yMax="733">
      <contour>
        <pt x="348" y="327" on="1"/>
        <pt x="284" y="0" on="1"/>
        <pt x="228" y="0" on="1"/>
        <pt x="292" y="329" on="1"/>
        <pt x="117" y="733" on="1"/>
        <pt x="174" y="733" on="1"/>
        <pt x="328" y="376" on="1"/>
        <pt x="611" y="733" on="1"/>
        <pt x="676" y="733" on="1"/>
      </contour>
    </TTGlyph>
    <TTGlyph name="Yacute" xMin="117" yMin="0" xMax="676" yMax="941">
      <component glyphName="Y" x="0" y="0" flags="0x204"/>
      <component glyphName="acute" x="197" y="307" flags="0x4"/>
    </TTGlyph>
    <TTGlyph name="Ycircumflex" xMin="117" yMin="0" xMax="676" yMax="941">
      <component glyphName="Y" x="0" y="0" flags="0x204"/>
      <component glyphName="circumflex" x="134" y="307" flags="0x4"/>
    </TTGlyph>
    <TTGlyph name="Ydieresis" xMin="117" yMin="0" xMax="676" yMax="889">
      <component glyphName="Y" x="0" y="0" flags="0x204"/>
      <component glyphName="dieresis" x="137" y="307" flags="0x4"/>
    </TTGlyph>
    <TTGlyph name="Ygrave" xMin="117" yMin="0" xMax="676" yMax="941">
      <component glyphName="Y" x="0" y="0" flags="0x204"/>
      <component glyphName="grave" x="68" y="307" flags="0x4"/>
    </TTGlyph>
    <TTGlyph name="Z" xMin="8" yMin="0" xMax="671" yMax="733">
      <contour>
        <pt x="106" y="51" on="1"/>
        <pt x="536" y="51" on="1"/>
        <pt x="526" y="0" on="1"/>
        <pt x="10" y="0" on="1"/>
        <pt x="8" y="10" on="1"/>
        <pt x="573" y="683" on="1"/>
        <pt x="164" y="683" on="1"/>
        <pt x="173" y="733" on="1"/>
        <pt x="668" y="733" on="1"/>
        <pt x="671" y="723" on="1"/>
      </contour>
    </TTGlyph>
    <TTGlyph name="Zacute" xMin="8" yMin="0" xMax="671" yMax="954">
      <component glyphName="acute" x="211" y="320" flags="0x4"/>
      <component glyphName="Z" x="0" y="0" flags="0x4"/>
    </TTGlyph>
    <TTGlyph name="Zcaron" xMin="8" yMin="0" xMax="671" yMax="953">
      <component glyphName="caron" x="156" y="320" flags="0x4"/>
      <component glyphName="Z" x="0" y="0" flags="0x4"/>
    </TTGlyph>
    <TTGlyph name="Zdotaccent" xMin="8" yMin="0" xMax="671" yMax="902">
      <component glyphName="Z" x="0" y="0" flags="0x204"/>
      <component glyphName="dotaccent" x="150" y="320" flags="0x4"/>
    </TTGlyph>
    <TTGlyph name="a" xMin="22" yMin="-8" xMax="378" yMax="426">
      <contour>
        <pt x="378" y="299" on="1"/>
        <pt x="378" y="286" on="0"/>
        <pt x="374" y="258" on="0"/>
        <pt x="372" y="244" on="1"/>
        <pt x="323" y="0" on="1"/>
        <pt x="270" y="0" on="1"/>
        <pt x="279" y="45" on="1"/>
        <pt x="256" y="24" on="0"/>
        <pt x="193" y="-8" on="0"/>
        <pt x="148" y="-8" on="1"/>
        <pt x="123" y="-8" on="0"/>
        <pt x="78" y="8" on="0"/>
        <pt x="43" y="38" on="0"/>
        <pt x="22" y="83" on="0"/>
        <pt x="22" y="112" on="1"/>
        <pt x="22" y="141" on="0"/>
        <pt x="46" y="192" on="0"/>
        <pt x="90" y="231" on="0"/>
        <pt x="154" y="254" on="0"/>
        <pt x="193" y="254" on="1"/>
        <pt x="231" y="254" on="0"/>
        <pt x="292" y="233" on="0"/>
        <pt x="311" y="221" on="1"/>
        <pt x="317" y="254" on="1"/>
        <pt x="319" y="262" on="0"/>
        <pt x="322" y="282" on="0"/>
        <pt x="322" y="292" on="1"/>
        <pt x="322" y="330" on="0"/>
        <pt x="269" y="376" on="0"/>
        <pt x="222" y="376" on="1"/>
        <pt x="195" y="376" on="0"/>
        <pt x="141" y="365" on="0"/>
        <pt x="115" y="356" on="1"/>
        <pt x="109" y="406" on="1"/>
        <pt x="135" y="414" on="0"/>
        <pt x="195" y="426" on="0"/>
        <pt x="229" y="426" on="1"/>
        <pt x="261" y="426" on="0"/>
        <pt x="315" y="410" on="0"/>
        <pt x="355" y="379" on="0"/>
        <pt x="378" y="331" on="0"/>
      </contour>
      <contour>
        <pt x="302" y="176" on="1"/>
        <pt x="285" y="190" on="0"/>
        <pt x="226" y="210" on="0"/>
        <pt x="191" y="210" on="1"/>
        <pt x="139" y="210" on="0"/>
        <pt x="75" y="155" on="0"/>
        <pt x="75" y="116" on="1"/>
        <pt x="75" y="79" on="0"/>
        <pt x="121" y="37" on="0"/>
        <pt x="161" y="37" on="1"/>
        <pt x="200" y="37" on="0"/>
        <pt x="261" y="71" on="0"/>
        <pt x="286" y="95" on="1"/>
      </contour>
    </TTGlyph>
    <TTGlyph name="aacute" xMin="22" yMin="-8" xMax="430" yMax="634">
      <component glyphName="a" x="0" y="0" flags="0x204"/>
      <component glyphName="acute" x="49" y="0" flags="0x4"/>
    </TTGlyph>
    <TTGlyph name="abreve" xMin="22" yMin="-8" xMax="418" yMax="617">
      <component glyphName="a" x="0" y="0" flags="0x204"/>
      <component glyphName="breve" x="-6" y="0" flags="0x4"/>
    </TTGlyph>
    <TTGlyph name="acircumflex" xMin="22" yMin="-8" xMax="397" yMax="634">
      <component glyphName="a" x="0" y="0" flags="0x204"/>
      <component glyphName="circumflex" x="-13" y="0" flags="0x4"/>
    </TTGlyph>
    <TTGlyph name="acute" xMin="170" yMin="475" xMax="381" yMax="634">
      <contour>
        <pt x="185" y="475" on="1"/>
        <pt x="170" y="506" on="1"/>
        <pt x="353" y="634" on="1"/>
        <pt x="381" y="581" on="1"/>
      </contour>
    </TTGlyph>
    <TTGlyph name="adieresis" xMin="22" yMin="-8" xMax="400" yMax="582">
      <component glyphName="a" x="0" y="0" flags="0x204"/>
      <component glyphName="dieresis" x="-9" y="0" flags="0x4"/>
    </TTGlyph>
    <TTGlyph name="ae" xMin="22" yMin="-8" xMax="685" yMax="426">
      <contour>
        <pt x="156" y="-8" on="1"/>
        <pt x="128" y="-8" on="0"/>
        <pt x="79" y="8" on="0"/>
        <pt x="43" y="38" on="0"/>
        <pt x="22" y="83" on="0"/>
        <pt x="22" y="112" on="1"/>
        <pt x="22" y="141" on="0"/>
        <pt x="46" y="192" on="0"/>
        <pt x="90" y="231" on="0"/>
        <pt x="154" y="254" on="0"/>
        <pt x="193" y="254" on="1"/>
        <pt x="231" y="254" on="0"/>
        <pt x="293" y="233" on="0"/>
        <pt x="311" y="221" on="1"/>
        <pt x="318" y="257" on="1"/>
        <pt x="322" y="274" on="0"/>
        <pt x="322" y="292" on="1"/>
        <pt x="322" y="333" on="0"/>
        <pt x="268" y="376" on="0"/>
        <pt x="222" y="376" on="1"/>
        <pt x="167" y="376" on="0"/>
        <pt x="115" y="356" on="1"/>
        <pt x="108" y="404" on="1"/>
        <pt x="135" y="414" on="0"/>
        <pt x="195" y="426" on="0"/>
        <pt x="229" y="426" on="1"/>
        <pt x="280" y="426" on="0"/>
        <pt x="353" y="383" on="0"/>
        <pt x="365" y="339" on="1"/>
        <pt x="395" y="379" on="0"/>
        <pt x="480" y="425" on="0"/>
        <pt x="533" y="425" on="1"/>
        <pt x="574" y="425" on="0"/>
        <pt x="632" y="397" on="0"/>
        <pt x="669" y="351" on="0"/>
        <pt x="685" y="293" on="0"/>
        <pt x="685" y="263" on="1"/>
        <pt x="685" y="230" on="0"/>
        <pt x="676" y="202" on="1"/>
        <pt x="361" y="202" on="1"/>
        <pt x="360" y="195" on="0"/>
        <pt x="359" y="181" on="0"/>
        <pt x="359" y="175" on="1"/>
        <pt x="359" y="110" on="0"/>
        <pt x="429" y="40" on="0"/>
        <pt x="497" y="40" on="1"/>
        <pt x="546" y="40" on="0"/>
        <pt x="601" y="60" on="1"/>
        <pt x="603" y="48" on="0"/>
        <pt x="605" y="37" on="1"/>
        <pt x="607" y="28" on="0"/>
        <pt x="610" y="13" on="0"/>
        <pt x="610" y="14" on="1"/>
        <pt x="583" y="3" on="0"/>
        <pt x="527" y="-8" on="0"/>
        <pt x="491" y="-8" on="1"/>
        <pt x="424" y="-8" on="0"/>
        <pt x="336" y="47" on="0"/>
        <pt x="319" y="99" on="1"/>
        <pt x="296" y="50" on="0"/>
        <pt x="209" y="-8" on="0"/>
      </contour>
      <contour>
        <pt x="163" y="37" on="1"/>
        <pt x="211" y="37" on="0"/>
        <pt x="289" y="110" on="0"/>
        <pt x="303" y="176" on="1"/>
        <pt x="282" y="192" on="0"/>
        <pt x="225" y="210" on="0"/>
        <pt x="191" y="210" on="1"/>
        <pt x="139" y="210" on="0"/>
        <pt x="75" y="155" on="0"/>
        <pt x="75" y="116" on="1"/>
        <pt x="75" y="79" on="0"/>
        <pt x="121" y="37" on="0"/>
      </contour>
      <contour>
        <pt x="630" y="246" on="1"/>
        <pt x="632" y="252" on="0"/>
        <pt x="632" y="264" on="0"/>
        <pt x="632" y="269" on="1"/>
        <pt x="632" y="289" on="0"/>
        <pt x="621" y="328" on="0"/>
        <pt x="596" y="359" on="0"/>
        <pt x="556" y="378" on="0"/>
        <pt x="528" y="378" on="1"/>
        <pt x="471" y="378" on="0"/>
        <pt x="388" y="303" on="0"/>
        <pt x="371" y="246" on="1"/>
      </contour>
    </TTGlyph>
    <TTGlyph name="aeacute" xMin="22" yMin="-8" xMax="685" yMax="634">
      <component glyphName="acute" x="186" y="0" flags="0x4"/>
      <component glyphName="ae" x="0" y="0" flags="0x4"/>
    </TTGlyph>
    <TTGlyph name="agrave" xMin="22" yMin="-8" xMax="378" yMax="634">
      <component glyphName="a" x="0" y="0" flags="0x204"/>
      <component glyphName="grave" x="-79" y="0" flags="0x4"/>
    </TTGlyph>
    <TTGlyph name="amacron" xMin="22" yMin="-8" xMax="418" yMax="561">
      <component glyphName="a" x="0" y="0" flags="0x204"/>
      <component glyphName="macron" x="-8" y="0" flags="0x4"/>
    </TTGlyph>
    <TTGlyph name="ampersand" xMin="38" yMin="-16" xMax="569" yMax="583">
      <contour>
        <pt x="569" y="230" on="1"/>
        <pt x="539" y="197" on="0"/>
        <pt x="471" y="128" on="0"/>
        <pt x="434" y="97" on="1"/>
        <pt x="451" y="77" on="0"/>
        <pt x="485" y="38" on="0"/>
        <pt x="503" y="20" on="1"/>
        <pt x="465" y="-16" on="1"/>
        <pt x="448" y="1" on="0"/>
        <pt x="411" y="42" on="0"/>
        <pt x="392" y="65" on="1"/>
        <pt x="346" y="33" on="0"/>
        <pt x="250" y="-9" on="0"/>
        <pt x="201" y="-9" on="1"/>
        <pt x="125" y="-9" on="0"/>
        <pt x="38" y="72" on="0"/>
        <pt x="38" y="136" on="1"/>
        <pt x="38" y="199" on="0"/>
        <pt x="130" y="295" on="0"/>
        <pt x="219" y="321" on="1"/>
        <pt x="208" y="344" on="0"/>
        <pt x="193" y="397" on="0"/>
        <pt x="193" y="423" on="1"/>
        <pt x="193" y="456" on="0"/>
        <pt x="219" y="514" on="0"/>
        <pt x="264" y="558" on="0"/>
        <pt x="324" y="583" on="0"/>
        <pt x="358" y="583" on="1"/>
        <pt x="387" y="583" on="0"/>
        <pt x="433" y="564" on="0"/>
        <pt x="466" y="532" on="0"/>
        <pt x="483" y="492" on="0"/>
        <pt x="483" y="470" on="1"/>
        <pt x="483" y="413" on="0"/>
        <pt x="392" y="321" on="0"/>
        <pt x="292" y="293" on="1"/>
        <pt x="312" y="260" on="0"/>
        <pt x="370" y="177" on="0"/>
        <pt x="404" y="134" on="1"/>
        <pt x="440" y="164" on="0"/>
        <pt x="506" y="233" on="0"/>
        <pt x="534" y="266" on="1"/>
      </contour>
      <contour>
        <pt x="362" y="101" on="1"/>
        <pt x="325" y="148" on="0"/>
        <pt x="260" y="242" on="0"/>
        <pt x="240" y="280" on="1"/>
        <pt x="170" y="262" on="0"/>
        <pt x="94" y="190" on="0"/>
        <pt x="94" y="139" on="1"/>
        <pt x="94" y="97" on="0"/>
        <pt x="150" y="40" on="0"/>
        <pt x="206" y="40" on="1"/>
        <pt x="244" y="40" on="0"/>
        <pt x="324" y="74" on="0"/>
      </contour>
      <contour>
        <pt x="429" y="465" on="1"/>
        <pt x="429" y="496" on="0"/>
        <pt x="388" y="539" on="0"/>
        <pt x="353" y="539" on="1"/>
        <pt x="331" y="539" on="0"/>
        <pt x="292" y="520" on="0"/>
        <pt x="264" y="489" on="0"/>
        <pt x="247" y="448" on="0"/>
        <pt x="247" y="427" on="1"/>
        <pt x="247" y="402" on="0"/>
        <pt x="260" y="357" on="0"/>
        <pt x="272" y="332" on="1"/>
        <pt x="358" y="356" on="0"/>
        <pt x="429" y="421" on="0"/>
      </contour>
    </TTGlyph>
    <TTGlyph name="ampersand.cap" xMin="43" yMin="-14" xMax="709" yMax="740">
      <contour>
        <pt x="709" y="294" on="1"/>
        <pt x="671" y="252" on="0"/>
        <pt x="578" y="160" on="0"/>
        <pt x="530" y="120" on="1"/>
        <pt x="553" y="93" on="0"/>
        <pt x="598" y="44" on="0"/>
        <pt x="620" y="23" on="1"/>
        <pt x="582" y="-14" on="1"/>
        <pt x="561" y="7" on="0"/>
        <pt x="513" y="59" on="0"/>
        <pt x="488" y="89" on="1"/>
        <pt x="428" y="45" on="0"/>
        <pt x="306" y="-7" on="0"/>
        <pt x="244" y="-7" on="1"/>
        <pt x="197" y="-7" on="0"/>
        <pt x="123" y="20" on="0"/>
        <pt x="71" y="68" on="0"/>
        <pt x="43" y="134" on="0"/>
        <pt x="43" y="173" on="1"/>
        <pt x="43" y="257" on="0"/>
        <pt x="160" y="375" on="0"/>
        <pt x="273" y="405" on="1"/>
        <pt x="259" y="435" on="0"/>
        <pt x="239" y="500" on="0"/>
        <pt x="239" y="537" on="1"/>
        <pt x="239" y="580" on="0"/>
        <pt x="269" y="654" on="0"/>
        <pt x="322" y="709" on="0"/>
        <pt x="396" y="740" on="0"/>
        <pt x="440" y="740" on="1"/>
        <pt x="477" y="740" on="0"/>
        <pt x="536" y="716" on="0"/>
        <pt x="576" y="676" on="0"/>
        <pt x="597" y="624" on="0"/>
        <pt x="597" y="596" on="1"/>
        <pt x="597" y="441" on="0"/>
        <pt x="347" y="375" on="1"/>
        <pt x="373" y="327" on="0"/>
        <pt x="455" y="211" on="0"/>
        <pt x="499" y="156" on="1"/>
        <pt x="548" y="196" on="0"/>
        <pt x="638" y="288" on="0"/>
        <pt x="673" y="329" on="1"/>
      </contour>
      <contour>
        <pt x="458" y="124" on="1"/>
        <pt x="410" y="182" on="0"/>
        <pt x="322" y="309" on="0"/>
        <pt x="293" y="363" on="1"/>
        <pt x="200" y="338" on="0"/>
        <pt x="102" y="243" on="0"/>
        <pt x="102" y="177" on="1"/>
        <pt x="102" y="149" on="0"/>
        <pt x="120" y="100" on="0"/>
        <pt x="157" y="64" on="0"/>
        <pt x="213" y="44" on="0"/>
        <pt x="251" y="44" on="1"/>
        <pt x="300" y="44" on="0"/>
        <pt x="405" y="87" on="0"/>
      </contour>
      <contour>
        <pt x="328" y="417" on="1"/>
        <pt x="439" y="446" on="0"/>
        <pt x="541" y="534" on="0"/>
        <pt x="541" y="594" on="1"/>
        <pt x="541" y="636" on="0"/>
        <pt x="485" y="694" on="0"/>
        <pt x="439" y="694" on="1"/>
        <pt x="406" y="694" on="0"/>
        <pt x="353" y="669" on="0"/>
        <pt x="316" y="627" on="0"/>
        <pt x="295" y="571" on="0"/>
        <pt x="295" y="540" on="1"/>
        <pt x="295" y="508" on="0"/>
        <pt x="314" y="446" on="0"/>
      </contour>
    </TTGlyph>
    <TTGlyph name="aogonek" xMin="22" yMin="-220" xMax="378" yMax="426">
      <contour>
        <pt x="322" y="-170" on="1"/>
        <pt x="300" y="-193" on="0"/>
        <pt x="254" y="-219" on="0"/>
        <pt x="226" y="-219" on="1"/>
        <pt x="194" y="-220" on="0"/>
        <pt x="159" y="-184" on="0"/>
        <pt x="159" y="-155" on="1"/>
        <pt x="159" y="-111" on="0"/>
        <pt x="224" y="-31" on="0"/>
        <pt x="271" y="7" on="1"/>
        <pt x="279" y="45" on="1"/>
        <pt x="256" y="24" on="0"/>
        <pt x="193" y="-8" on="0"/>
        <pt x="148" y="-8" on="1"/>
        <pt x="123" y="-8" on="0"/>
        <pt x="78" y="8" on="0"/>
        <pt x="43" y="38" on="0"/>
        <pt x="22" y="83" on="0"/>
        <pt x="22" y="112" on="1"/>
        <pt x="22" y="141" on="0"/>
        <pt x="46" y="192" on="0"/>
        <pt x="90" y="231" on="0"/>
        <pt x="154" y="254" on="0"/>
        <pt x="193" y="254" on="1"/>
        <pt x="231" y="254" on="0"/>
        <pt x="292" y="233" on="0"/>
        <pt x="311" y="221" on="1"/>
        <pt x="317" y="254" on="1"/>
        <pt x="319" y="262" on="0"/>
        <pt x="322" y="282" on="0"/>
        <pt x="322" y="292" on="1"/>
        <pt x="322" y="330" on="0"/>
        <pt x="269" y="376" on="0"/>
        <pt x="222" y="376" on="1"/>
        <pt x="195" y="376" on="0"/>
        <pt x="141" y="365" on="0"/>
        <pt x="115" y="356" on="1"/>
        <pt x="109" y="406" on="1"/>
        <pt x="135" y="414" on="0"/>
        <pt x="195" y="426" on="0"/>
        <pt x="229" y="426" on="1"/>
        <pt x="261" y="426" on="0"/>
        <pt x="315" y="410" on="0"/>
        <pt x="355" y="379" on="0"/>
        <pt x="378" y="331" on="0"/>
        <pt x="378" y="299" on="1"/>
        <pt x="378" y="286" on="0"/>
        <pt x="374" y="258" on="0"/>
        <pt x="372" y="244" on="1"/>
        <pt x="323" y="0" on="1"/>
        <pt x="317" y="0" on="1"/>
        <pt x="303" y="-12" on="0"/>
        <pt x="266" y="-43" on="0"/>
        <pt x="232" y="-81" on="0"/>
        <pt x="208" y="-121" on="0"/>
        <pt x="208" y="-142" on="1"/>
        <pt x="208" y="-178" on="0"/>
        <pt x="239" y="-178" on="1"/>
        <pt x="255" y="-178" on="0"/>
        <pt x="283" y="-160" on="0"/>
        <pt x="300" y="-144" on="1"/>
      </contour>
      <contour>
        <pt x="302" y="176" on="1"/>
        <pt x="285" y="190" on="0"/>
        <pt x="226" y="210" on="0"/>
        <pt x="191" y="210" on="1"/>
        <pt x="139" y="210" on="0"/>
        <pt x="75" y="155" on="0"/>
        <pt x="75" y="116" on="1"/>
        <pt x="75" y="79" on="0"/>
        <pt x="121" y="37" on="0"/>
        <pt x="161" y="37" on="1"/>
        <pt x="200" y="37" on="0"/>
        <pt x="261" y="71" on="0"/>
        <pt x="286" y="95" on="1"/>
      </contour>
    </TTGlyph>
    <TTGlyph name="aring" xMin="22" yMin="-8" xMax="383" yMax="685">
      <component glyphName="a" x="0" y="0" flags="0x204"/>
      <component glyphName="ring" x="-4" y="0" flags="0x4"/>
    </TTGlyph>
    <TTGlyph name="aringacute" xMin="22" yMin="-8" xMax="491" yMax="893">
      <component glyphName="a" x="0" y="0" flags="0x204"/>
      <component glyphName="acute" x="110" y="259" flags="0x4"/>
      <component glyphName="ring" x="-4" y="0" flags="0x4"/>
    </TTGlyph>
    <TTGlyph name="arrowleft" xMin="39" yMin="-1" xMax="674" yMax="486">
      <contour>
        <pt x="126" y="219" on="1"/>
        <pt x="315" y="34" on="1"/>
        <pt x="280" y="-1" on="1"/>
        <pt x="39" y="238" on="1"/>
        <pt x="41" y="247" on="1"/>
        <pt x="375" y="486" on="1"/>
        <pt x="400" y="446" on="1"/>
        <pt x="145" y="266" on="1"/>
        <pt x="674" y="267" on="1"/>
        <pt x="665" y="218" on="1"/>
      </contour>
    </TTGlyph>
    <TTGlyph name="arrowleft.cap" xMin="63" yMin="127" xMax="698" yMax="614">
      <component glyphName="arrowleft" x="24" y="128" flags="0x204"/>
    </TTGlyph>
    <TTGlyph name="arrowright" xMin="50" yMin="-1" xMax="686" yMax="486">
      <contour>
        <pt x="598" y="266" on="1"/>
        <pt x="410" y="451" on="1"/>
        <pt x="445" y="486" on="1"/>
        <pt x="686" y="247" on="1"/>
        <pt x="684" y="238" on="1"/>
        <pt x="350" y="-1" on="1"/>
        <pt x="324" y="39" on="1"/>
        <pt x="580" y="219" on="1"/>
        <pt x="50" y="218" on="1"/>
        <pt x="59" y="267" on="1"/>
      </contour>
    </TTGlyph>
    <TTGlyph name="arrowright.cap" xMin="75" yMin="127" xMax="711" yMax="614">
      <component glyphName="arrowright" x="25" y="128" flags="0x204"/>
    </TTGlyph>
    <TTGlyph name="asciicircum" xMin="137" yMin="485" xMax="409" yMax="634">
      <contour>
        <pt x="354" y="485" on="1"/>
        <pt x="294" y="582" on="1"/>
        <pt x="198" y="485" on="1"/>
        <pt x="137" y="485" on="1"/>
        <pt x="287" y="634" on="1"/>
        <pt x="318" y="634" on="1"/>
        <pt x="409" y="485" on="1"/>
      </contour>
    </TTGlyph>
    <TTGlyph name="asciitilde" xMin="99" yMin="323" xMax="408" yMax="417">
      <contour>
        <pt x="408" y="384" on="1"/>
        <pt x="378" y="351" on="0"/>
        <pt x="330" y="323" on="0"/>
        <pt x="304" y="323" on="1"/>
        <pt x="284" y="323" on="0"/>
        <pt x="256" y="340" on="0"/>
        <pt x="242" y="349" on="1"/>
        <pt x="231" y="358" on="0"/>
        <pt x="207" y="372" on="0"/>
        <pt x="192" y="372" on="1"/>
        <pt x="175" y="372" on="0"/>
        <pt x="148" y="353" on="0"/>
        <pt x="125" y="330" on="1"/>
        <pt x="99" y="360" on="1"/>
        <pt x="127" y="391" on="0"/>
        <pt x="174" y="417" on="0"/>
        <pt x="200" y="417" on="1"/>
        <pt x="219" y="417" on="0"/>
        <pt x="246" y="402" on="0"/>
        <pt x="260" y="391" on="1"/>
        <pt x="272" y="382" on="0"/>
        <pt x="297" y="368" on="0"/>
        <pt x="311" y="368" on="1"/>
        <pt x="328" y="368" on="0"/>
        <pt x="357" y="388" on="0"/>
        <pt x="381" y="413" on="1"/>
      </contour>
    </TTGlyph>
    <TTGlyph name="asterisk" xMin="114" yMin="437" xMax="414" yMax="737">
      <contour>
        <pt x="289" y="567" on="1"/>
        <pt x="345" y="456" on="1"/>
        <pt x="303" y="437" on="1"/>
        <pt x="252" y="551" on="1"/>
        <pt x="162" y="465" on="1"/>
        <pt x="131" y="498" on="1"/>
        <pt x="225" y="580" on="1"/>
        <pt x="114" y="638" on="1"/>
        <pt x="136" y="678" on="1"/>
        <pt x="244" y="614" on="1"/>
        <pt x="265" y="737" on="1"/>
        <pt x="310" y="728" on="1"/>
        <pt x="284" y="606" on="1"/>
        <pt x="408" y="625" on="1"/>
        <pt x="414" y="579" on="1"/>
      </contour>
    </TTGlyph>
    <TTGlyph name="at" xMin="67" yMin="-10" xMax="662" yMax="591">
      <contour>
        <pt x="662" y="339" on="1"/>
        <pt x="662" y="303" on="0"/>
        <pt x="640" y="233" on="0"/>
        <pt x="601" y="178" on="0"/>
        <pt x="545" y="143" on="0"/>
        <pt x="512" y="143" on="1"/>
        <pt x="485" y="143" on="0"/>
        <pt x="442" y="166" on="0"/>
        <pt x="433" y="190" on="1"/>
        <pt x="391" y="146" on="0"/>
        <pt x="338" y="146" on="1"/>
        <pt x="297" y="146" on="0"/>
        <pt x="244" y="189" on="0"/>
        <pt x="244" y="223" on="1"/>
        <pt x="244" y="261" on="0"/>
        <pt x="298" y="310" on="0"/>
        <pt x="341" y="310" on="1"/>
        <pt x="370" y="310" on="0"/>
        <pt x="413" y="295" on="0"/>
        <pt x="431" y="281" on="1"/>
        <pt x="434" y="295" on="0"/>
        <pt x="436" y="314" on="0"/>
        <pt x="436" y="321" on="1"/>
        <pt x="436" y="376" on="0"/>
        <pt x="360" y="376" on="1"/>
        <pt x="345" y="376" on="0"/>
        <pt x="319" y="373" on="0"/>
        <pt x="303" y="370" on="1"/>
        <pt x="303" y="408" on="1"/>
        <pt x="337" y="415" on="0"/>
        <pt x="370" y="415" on="1"/>
        <pt x="427" y="415" on="0"/>
        <pt x="482" y="364" on="0"/>
        <pt x="482" y="322" on="1"/>
        <pt x="482" y="314" on="0"/>
        <pt x="480" y="295" on="0"/>
        <pt x="478" y="286" on="1"/>
        <pt x="468" y="236" on="1"/>
        <pt x="462" y="209" on="0"/>
        <pt x="490" y="180" on="0"/>
        <pt x="515" y="180" on="1"/>
        <pt x="540" y="180" on="0"/>
        <pt x="578" y="210" on="0"/>
        <pt x="604" y="256" on="0"/>
        <pt x="617" y="311" on="0"/>
        <pt x="617" y="336" on="1"/>
        <pt x="617" y="383" on="0"/>
        <pt x="583" y="462" on="0"/>
        <pt x="523" y="519" on="0"/>
        <pt x="439" y="551" on="0"/>
        <pt x="389" y="551" on="1"/>
        <pt x="328" y="551" on="0"/>
        <pt x="226" y="504" on="0"/>
        <pt x="153" y="425" on="0"/>
        <pt x="112" y="322" on="0"/>
        <pt x="112" y="265" on="1"/>
        <pt x="112" y="215" on="0"/>
        <pt x="149" y="129" on="0"/>
        <pt x="217" y="66" on="0"/>
        <pt x="313" y="30" on="0"/>
        <pt x="373" y="30" on="1"/>
        <pt x="398" y="30" on="0"/>
        <pt x="444" y="36" on="0"/>
        <pt x="471" y="42" on="1"/>
        <pt x="475" y="2" on="1"/>
        <pt x="443" y="-5" on="0"/>
        <pt x="393" y="-10" on="0"/>
        <pt x="364" y="-10" on="1"/>
        <pt x="295" y="-10" on="0"/>
        <pt x="185" y="35" on="0"/>
        <pt x="108" y="110" on="0"/>
        <pt x="67" y="207" on="0"/>
        <pt x="67" y="260" on="1"/>
        <pt x="67" y="327" on="0"/>
        <pt x="116" y="447" on="0"/>
        <pt x="203" y="538" on="0"/>
        <pt x="320" y="591" on="0"/>
        <pt x="389" y="591" on="1"/>
        <pt x="449" y="591" on="0"/>
        <pt x="549" y="552" on="0"/>
        <pt x="621" y="484" on="0"/>
        <pt x="662" y="392" on="0"/>
      </contour>
      <contour>
        <pt x="424" y="248" on="1"/>
        <pt x="408" y="260" on="0"/>
        <pt x="367" y="276" on="0"/>
        <pt x="346" y="276" on="1"/>
        <pt x="321" y="276" on="0"/>
        <pt x="289" y="250" on="0"/>
        <pt x="289" y="227" on="1"/>
        <pt x="289" y="204" on="0"/>
        <pt x="322" y="181" on="0"/>
        <pt x="346" y="181" on="1"/>
        <pt x="384" y="181" on="0"/>
        <pt x="418" y="217" on="1"/>
      </contour>
    </TTGlyph>
    <TTGlyph name="at.cap" xMin="94" yMin="-10" xMax="848" yMax="744">
      <contour>
        <pt x="610" y="2" on="1"/>
        <pt x="578" y="-4" on="0"/>
        <pt x="515" y="-10" on="0"/>
        <pt x="488" y="-10" on="1"/>
        <pt x="407" y="-10" on="0"/>
        <pt x="264" y="35" on="0"/>
        <pt x="156" y="122" on="0"/>
        <pt x="94" y="248" on="0"/>
        <pt x="94" y="329" on="1"/>
        <pt x="94" y="413" on="0"/>
        <pt x="156" y="563" on="0"/>
        <pt x="265" y="677" on="0"/>
        <pt x="414" y="744" on="0"/>
        <pt x="502" y="744" on="1"/>
        <pt x="572" y="744" on="0"/>
        <pt x="698" y="700" on="0"/>
        <pt x="793" y="617" on="0"/>
        <pt x="848" y="499" on="0"/>
        <pt x="848" y="424" on="1"/>
        <pt x="848" y="378" on="0"/>
        <pt x="824" y="291" on="0"/>
        <pt x="776" y="223" on="0"/>
        <pt x="706" y="182" on="0"/>
        <pt x="661" y="182" on="1"/>
        <pt x="624" y="182" on="0"/>
        <pt x="570" y="215" on="0"/>
        <pt x="561" y="244" on="1"/>
        <pt x="536" y="217" on="0"/>
        <pt x="471" y="188" on="0"/>
        <pt x="435" y="188" on="1"/>
        <pt x="384" y="188" on="0"/>
        <pt x="316" y="237" on="0"/>
        <pt x="316" y="285" on="1"/>
        <pt x="316" y="310" on="0"/>
        <pt x="336" y="349" on="0"/>
        <pt x="369" y="376" on="0"/>
        <pt x="413" y="391" on="0"/>
        <pt x="437" y="391" on="1"/>
        <pt x="469" y="391" on="0"/>
        <pt x="530" y="370" on="0"/>
        <pt x="556" y="350" on="1"/>
        <pt x="561" y="374" on="0"/>
        <pt x="565" y="396" on="0"/>
        <pt x="565" y="406" on="1"/>
        <pt x="565" y="444" on="0"/>
        <pt x="503" y="478" on="0"/>
        <pt x="458" y="478" on="1"/>
        <pt x="441" y="478" on="0"/>
        <pt x="410" y="474" on="0"/>
        <pt x="394" y="470" on="1"/>
        <pt x="396" y="516" on="1"/>
        <pt x="433" y="525" on="0"/>
        <pt x="471" y="525" on="1"/>
        <pt x="537" y="525" on="0"/>
        <pt x="619" y="471" on="0"/>
        <pt x="619" y="414" on="1"/>
        <pt x="619" y="398" on="0"/>
        <pt x="614" y="375" on="1"/>
        <pt x="600" y="303" on="1"/>
        <pt x="592" y="267" on="0"/>
        <pt x="631" y="227" on="0"/>
        <pt x="665" y="227" on="1"/>
        <pt x="700" y="227" on="0"/>
        <pt x="751" y="265" on="0"/>
        <pt x="783" y="324" on="0"/>
        <pt x="798" y="393" on="0"/>
        <pt x="798" y="424" on="1"/>
        <pt x="798" y="489" on="0"/>
        <pt x="751" y="591" on="0"/>
        <pt x="669" y="661" on="0"/>
        <pt x="559" y="698" on="0"/>
        <pt x="497" y="698" on="1"/>
        <pt x="423" y="698" on="0"/>
        <pt x="295" y="638" on="0"/>
        <pt x="200" y="537" on="0"/>
        <pt x="146" y="403" on="0"/>
        <pt x="146" y="329" on="1"/>
        <pt x="146" y="257" on="0"/>
        <pt x="202" y="148" on="0"/>
        <pt x="296" y="74" on="0"/>
        <pt x="420" y="36" on="0"/>
        <pt x="488" y="36" on="1"/>
        <pt x="517" y="36" on="0"/>
        <pt x="576" y="43" on="0"/>
        <pt x="606" y="48" on="1"/>
      </contour>
      <contour>
        <pt x="548" y="307" on="1"/>
        <pt x="528" y="326" on="0"/>
        <pt x="473" y="349" on="0"/>
        <pt x="445" y="349" on="1"/>
        <pt x="414" y="349" on="0"/>
        <pt x="370" y="317" on="0"/>
        <pt x="370" y="287" on="1"/>
        <pt x="370" y="258" on="0"/>
        <pt x="414" y="228" on="0"/>
        <pt x="445" y="228" on="1"/>
        <pt x="472" y="228" on="0"/>
        <pt x="523" y="256" on="0"/>
        <pt x="543" y="283" on="1"/>
      </contour>
    </TTGlyph>
    <TTGlyph name="atilde" xMin="22" yMin="-8" xMax="431" yMax="592">
      <component glyphName="a" x="0" y="0" flags="0x204"/>
      <component glyphName="tilde" x="-8" y="0" flags="0x4"/>
    </TTGlyph>
    <TTGlyph name="b" xMin="22" yMin="-8" xMax="435" yMax="733">
      <contour>
        <pt x="435" y="252" on="1"/>
        <pt x="435" y="202" on="0"/>
        <pt x="400" y="108" on="0"/>
        <pt x="338" y="36" on="0"/>
        <pt x="253" y="-8" on="0"/>
        <pt x="204" y="-8" on="1"/>
        <pt x="167" y="-8" on="0"/>
        <pt x="106" y="20" on="0"/>
        <pt x="85" y="40" on="1"/>
        <pt x="77" y="0" on="1"/>
        <pt x="22" y="0" on="1"/>
        <pt x="165" y="733" on="1"/>
        <pt x="221" y="733" on="1"/>
        <pt x="153" y="382" on="1"/>
        <pt x="178" y="402" on="0"/>
        <pt x="241" y="426" on="0"/>
        <pt x="278" y="426" on="1"/>
        <pt x="313" y="426" on="0"/>
        <pt x="371" y="399" on="0"/>
        <pt x="412" y="353" on="0"/>
        <pt x="435" y="289" on="0"/>
      </contour>
      <contour>
        <pt x="380" y="243" on="1"/>
        <pt x="380" y="305" on="0"/>
        <pt x="316" y="377" on="0"/>
        <pt x="262" y="377" on="1"/>
        <pt x="230" y="377" on="0"/>
        <pt x="168" y="350" on="0"/>
        <pt x="143" y="327" on="1"/>
        <pt x="96" y="88" on="1"/>
        <pt x="114" y="67" on="0"/>
        <pt x="169" y="40" on="0"/>
        <pt x="204" y="40" on="1"/>
        <pt x="241" y="40" on="0"/>
        <pt x="306" y="74" on="0"/>
        <pt x="353" y="130" on="0"/>
        <pt x="380" y="203" on="0"/>
      </contour>
    </TTGlyph>
    <TTGlyph name="backslash" xMin="105" yMin="-216" xMax="250" yMax="733">
      <contour>
        <pt x="200" y="-216" on="1"/>
        <pt x="105" y="733" on="1"/>
        <pt x="154" y="733" on="1"/>
        <pt x="250" y="-216" on="1"/>
      </contour>
    </TTGlyph>
    <TTGlyph name="backslash.cap" xMin="117" yMin="-110" xMax="262" yMax="839">
      <component glyphName="backslash" x="12" y="106" flags="0x204"/>
    </TTGlyph>
    <TTGlyph name="bar" xMin="9" yMin="-216" xMax="243" yMax="733">
      <contour>
        <pt x="9" y="-216" on="1"/>
        <pt x="194" y="733" on="1"/>
        <pt x="243" y="733" on="1"/>
        <pt x="58" y="-216" on="1"/>
      </contour>
    </TTGlyph>
    <TTGlyph name="bar.cap" xMin="28" yMin="-110" xMax="262" yMax="839">
      <component glyphName="bar" x="19" y="106" flags="0x204"/>
    </TTGlyph>
    <TTGlyph name="braceleft" xMin="25" yMin="-223" xMax="380" yMax="740">
      <contour>
        <pt x="371" y="691" on="1"/>
        <pt x="361" y="691" on="1"/>
        <pt x="309" y="691" on="0"/>
        <pt x="244" y="636" on="0"/>
        <pt x="233" y="574" on="1"/>
        <pt x="193" y="366" on="1"/>
        <pt x="185" y="321" on="0"/>
        <pt x="149" y="273" on="0"/>
        <pt x="107" y="259" on="1"/>
        <pt x="133" y="249" on="0"/>
        <pt x="156" y="217" on="0"/>
        <pt x="156" y="192" on="1"/>
        <pt x="156" y="178" on="0"/>
        <pt x="151" y="150" on="1"/>
        <pt x="112" y="-47" on="1"/>
        <pt x="110" y="-59" on="0"/>
        <pt x="107" y="-84" on="0"/>
        <pt x="107" y="-92" on="1"/>
        <pt x="107" y="-175" on="0"/>
        <pt x="204" y="-175" on="1"/>
        <pt x="195" y="-223" on="1"/>
        <pt x="55" y="-223" on="0"/>
        <pt x="55" y="-98" on="1"/>
        <pt x="55" y="-87" on="0"/>
        <pt x="59" y="-55" on="0"/>
        <pt x="62" y="-40" on="1"/>
        <pt x="102" y="167" on="1"/>
        <pt x="104" y="175" on="0"/>
        <pt x="105" y="190" on="0"/>
        <pt x="105" y="195" on="1"/>
        <pt x="105" y="216" on="0"/>
        <pt x="80" y="238" on="0"/>
        <pt x="49" y="238" on="1"/>
        <pt x="25" y="238" on="1"/>
        <pt x="35" y="285" on="1"/>
        <pt x="56" y="285" on="1"/>
        <pt x="97" y="285" on="0"/>
        <pt x="133" y="324" on="0"/>
        <pt x="140" y="359" on="1"/>
        <pt x="182" y="577" on="1"/>
        <pt x="198" y="659" on="0"/>
        <pt x="287" y="740" on="0"/>
        <pt x="366" y="740" on="1"/>
        <pt x="380" y="740" on="1"/>
      </contour>
    </TTGlyph>
    <TTGlyph name="braceleft.cap" xMin="46" yMin="-117" xMax="401" yMax="846">
      <component glyphName="braceleft" x="21" y="106" flags="0x204"/>
    </TTGlyph>
    <TTGlyph name="braceright" xMin="-66" yMin="-222" xMax="290" yMax="741">
      <contour>
        <pt x="-56" y="-173" on="1"/>
        <pt x="-47" y="-173" on="1"/>
        <pt x="6" y="-173" on="0"/>
        <pt x="71" y="-119" on="0"/>
        <pt x="82" y="-56" on="1"/>
        <pt x="122" y="152" on="1"/>
        <pt x="130" y="197" on="0"/>
        <pt x="166" y="245" on="0"/>
        <pt x="208" y="259" on="1"/>
        <pt x="182" y="269" on="0"/>
        <pt x="159" y="301" on="0"/>
        <pt x="159" y="326" on="1"/>
        <pt x="159" y="340" on="0"/>
        <pt x="164" y="368" on="1"/>
        <pt x="203" y="565" on="1"/>
        <pt x="205" y="576" on="0"/>
        <pt x="208" y="602" on="0"/>
        <pt x="208" y="610" on="1"/>
        <pt x="208" y="653" on="0"/>
        <pt x="160" y="692" on="0"/>
        <pt x="111" y="692" on="1"/>
        <pt x="120" y="741" on="1"/>
        <pt x="191" y="741" on="0"/>
        <pt x="260" y="677" on="0"/>
        <pt x="260" y="615" on="1"/>
        <pt x="260" y="604" on="0"/>
        <pt x="256" y="572" on="0"/>
        <pt x="253" y="558" on="1"/>
        <pt x="213" y="351" on="1"/>
        <pt x="210" y="334" on="0"/>
        <pt x="210" y="323" on="1"/>
        <pt x="210" y="302" on="0"/>
        <pt x="235" y="280" on="0"/>
        <pt x="266" y="280" on="1"/>
        <pt x="290" y="280" on="1"/>
        <pt x="280" y="233" on="1"/>
        <pt x="259" y="233" on="1"/>
        <pt x="218" y="233" on="0"/>
        <pt x="182" y="194" on="0"/>
        <pt x="175" y="159" on="1"/>
        <pt x="133" y="-60" on="1"/>
        <pt x="117" y="-142" on="0"/>
        <pt x="28" y="-222" on="0"/>
        <pt x="-52" y="-222" on="1"/>
        <pt x="-66" y="-222" on="1"/>
      </contour>
    </TTGlyph>
    <TTGlyph name="braceright.cap" xMin="-45" yMin="-117" xMax="311" yMax="846">
      <component glyphName="braceright" x="21" y="105" flags="0x204"/>
    </TTGlyph>
    <TTGlyph name="bracketleft" xMin="-3" yMin="-216" xMax="372" yMax="733">
      <contour>
        <pt x="363" y="687" on="1"/>
        <pt x="225" y="687" on="1"/>
        <pt x="58" y="-170" on="1"/>
        <pt x="197" y="-170" on="1"/>
        <pt x="188" y="-216" on="1"/>
        <pt x="-3" y="-216" on="1"/>
        <pt x="182" y="733" on="1"/>
        <pt x="372" y="733" on="1"/>
      </contour>
    </TTGlyph>
    <TTGlyph name="bracketleft.cap" xMin="18" yMin="-110" xMax="393" yMax="839">
      <component glyphName="bracketleft" x="21" y="106" flags="0x204"/>
    </TTGlyph>
    <TTGlyph name="bracketright" xMin="-58" yMin="-216" xMax="317" yMax="733">
      <contour>
        <pt x="133" y="-216" on="1"/>
        <pt x="-58" y="-216" on="1"/>
        <pt x="-49" y="-170" on="1"/>
        <pt x="91" y="-170" on="1"/>
        <pt x="257" y="687" on="1"/>
        <pt x="118" y="687" on="1"/>
        <pt x="127" y="733" on="1"/>
        <pt x="317" y="733" on="1"/>
      </contour>
    </TTGlyph>
    <TTGlyph name="bracketright.cap" xMin="-38" yMin="-110" xMax="337" yMax="839">
      <component glyphName="bracketright" x="20" y="106" flags="0x4"/>
    </TTGlyph>
    <TTGlyph name="breve" xMin="161" yMin="480" xMax="424" yMax="617">
      <contour>
        <pt x="424" y="613" on="1"/>
        <pt x="419" y="585" on="0"/>
        <pt x="396" y="536" on="0"/>
        <pt x="360" y="500" on="0"/>
        <pt x="310" y="480" on="0"/>
        <pt x="279" y="480" on="1"/>
        <pt x="224" y="480" on="0"/>
        <pt x="161" y="537" on="0"/>
        <pt x="161" y="584" on="1"/>
        <pt x="161" y="592" on="0"/>
        <pt x="161" y="605" on="0"/>
        <pt x="163" y="613" on="1"/>
        <pt x="211" y="617" on="1"/>
        <pt x="209" y="611" on="0"/>
        <pt x="209" y="598" on="0"/>
        <pt x="209" y="591" on="1"/>
        <pt x="209" y="555" on="0"/>
        <pt x="252" y="522" on="0"/>
        <pt x="283" y="522" on="1"/>
        <pt x="321" y="522" on="0"/>
        <pt x="368" y="573" on="0"/>
        <pt x="376" y="617" on="1"/>
      </contour>
    </TTGlyph>
    <TTGlyph name="bullet" xMin="92" yMin="247" xMax="324" yMax="485">
      <contour>
        <pt x="324" y="366" on="1"/>
        <pt x="324" y="342" on="0"/>
        <pt x="306" y="298" on="0"/>
        <pt x="275" y="266" on="0"/>
        <pt x="232" y="247" on="0"/>
        <pt x="208" y="247" on="1"/>
        <pt x="184" y="247" on="0"/>
        <pt x="142" y="266" on="0"/>
        <pt x="110" y="298" on="0"/>
        <pt x="92" y="342" on="0"/>
        <pt x="92" y="366" on="1"/>
        <pt x="92" y="391" on="0"/>
        <pt x="110" y="434" on="0"/>
        <pt x="142" y="466" on="0"/>
        <pt x="184" y="485" on="0"/>
        <pt x="208" y="485" on="1"/>
        <pt x="232" y="485" on="0"/>
        <pt x="275" y="466" on="0"/>
        <pt x="306" y="434" on="0"/>
        <pt x="324" y="391" on="0"/>
      </contour>
    </TTGlyph>
    <TTGlyph name="c" xMin="39" yMin="-8" xMax="415" yMax="426">
      <contour>
        <pt x="386" y="335" on="1"/>
        <pt x="363" y="354" on="0"/>
        <pt x="305" y="378" on="0"/>
        <pt x="269" y="378" on="1"/>
        <pt x="231" y="378" on="0"/>
        <pt x="166" y="346" on="0"/>
        <pt x="119" y="292" on="0"/>
        <pt x="93" y="221" on="0"/>
        <pt x="93" y="182" on="1"/>
        <pt x="93" y="149" on="0"/>
        <pt x="115" y="96" on="0"/>
        <pt x="153" y="59" on="0"/>
        <pt x="206" y="40" on="0"/>
        <pt x="236" y="40" on="1"/>
        <pt x="263" y="40" on="0"/>
        <pt x="314" y="53" on="0"/>
        <pt x="336" y="64" on="1"/>
        <pt x="348" y="19" on="1"/>
        <pt x="319" y="7" on="0"/>
        <pt x="262" y="-8" on="0"/>
        <pt x="227" y="-8" on="1"/>
        <pt x="188" y="-8" on="0"/>
        <pt x="119" y="18" on="0"/>
        <pt x="68" y="67" on="0"/>
        <pt x="39" y="137" on="0"/>
        <pt x="39" y="180" on="1"/>
        <pt x="39" y="226" on="0"/>
        <pt x="73" y="315" on="0"/>
        <pt x="136" y="384" on="0"/>
        <pt x="224" y="426" on="0"/>
        <pt x="277" y="426" on="1"/>
        <pt x="319" y="426" on="0"/>
        <pt x="389" y="397" on="0"/>
        <pt x="415" y="376" on="1"/>
      </contour>
    </TTGlyph>
    <TTGlyph name="cacute" xMin="39" yMin="-8" xMax="454" yMax="634">
      <component glyphName="acute" x="73" y="0" flags="0x4"/>
      <component glyphName="c" x="0" y="0" flags="0x4"/>
    </TTGlyph>
    <TTGlyph name="caron" xMin="162" yMin="484" xMax="434" yMax="633">
      <contour>
        <pt x="284" y="484" on="1"/>
        <pt x="254" y="484" on="1"/>
        <pt x="162" y="633" on="1"/>
        <pt x="218" y="633" on="1"/>
        <pt x="278" y="536" on="1"/>
        <pt x="373" y="633" on="1"/>
        <pt x="434" y="633" on="1"/>
      </contour>
    </TTGlyph>
    <TTGlyph name="caron.alt" xMin="37" yMin="545" xMax="186" yMax="738">
      <contour>
        <pt x="186" y="729" on="1"/>
        <pt x="175" y="666" on="0"/>
        <pt x="110" y="575" on="0"/>
        <pt x="61" y="545" on="1"/>
        <pt x="37" y="568" on="1"/>
        <pt x="74" y="599" on="0"/>
        <pt x="120" y="681" on="0"/>
        <pt x="131" y="738" on="1"/>
      </contour>
    </TTGlyph>
    <TTGlyph name="ccaron" xMin="39" yMin="-8" xMax="452" yMax="633">
      <component glyphName="caron" x="18" y="0" flags="0x4"/>
      <component glyphName="c" x="0" y="0" flags="0x4"/>
    </TTGlyph>
    <TTGlyph name="ccedilla" xMin="39" yMin="-237" xMax="415" yMax="426">
      <contour>
        <pt x="272" y="-142" on="1"/>
        <pt x="272" y="-183" on="0"/>
        <pt x="208" y="-237" on="0"/>
        <pt x="157" y="-237" on="1"/>
        <pt x="105" y="-237" on="0"/>
        <pt x="54" y="-203" on="1"/>
        <pt x="78" y="-167" on="1"/>
        <pt x="119" y="-196" on="0"/>
        <pt x="160" y="-196" on="1"/>
        <pt x="187" y="-196" on="0"/>
        <pt x="224" y="-170" on="0"/>
        <pt x="224" y="-145" on="1"/>
        <pt x="224" y="-128" on="0"/>
        <pt x="184" y="-94" on="0"/>
        <pt x="134" y="-89" on="1"/>
        <pt x="132" y="-83" on="1"/>
        <pt x="171" y="0" on="1"/>
        <pt x="113" y="15" on="0"/>
        <pt x="39" y="109" on="0"/>
        <pt x="39" y="180" on="1"/>
        <pt x="39" y="226" on="0"/>
        <pt x="73" y="315" on="0"/>
        <pt x="136" y="384" on="0"/>
        <pt x="224" y="426" on="0"/>
        <pt x="277" y="426" on="1"/>
        <pt x="319" y="426" on="0"/>
        <pt x="389" y="397" on="0"/>
        <pt x="415" y="376" on="1"/>
        <pt x="386" y="335" on="1"/>
        <pt x="363" y="354" on="0"/>
        <pt x="305" y="378" on="0"/>
        <pt x="269" y="378" on="1"/>
        <pt x="231" y="378" on="0"/>
        <pt x="166" y="346" on="0"/>
        <pt x="119" y="292" on="0"/>
        <pt x="93" y="221" on="0"/>
        <pt x="93" y="182" on="1"/>
        <pt x="93" y="149" on="0"/>
        <pt x="115" y="96" on="0"/>
        <pt x="153" y="59" on="0"/>
        <pt x="206" y="40" on="0"/>
        <pt x="236" y="40" on="1"/>
        <pt x="263" y="40" on="0"/>
        <pt x="314" y="53" on="0"/>
        <pt x="336" y="64" on="1"/>
        <pt x="348" y="19" on="1"/>
        <pt x="319" y="7" on="0"/>
        <pt x="262" y="-8" on="0"/>
        <pt x="227" y="-8" on="1"/>
        <pt x="222" y="-8" on="0"/>
        <pt x="214" y="-8" on="0"/>
        <pt x="209" y="-7" on="1"/>
        <pt x="186" y="-60" on="1"/>
        <pt x="272" y="-83" on="0"/>
      </contour>
    </TTGlyph>
    <TTGlyph name="cdotaccent" xMin="39" yMin="-8" xMax="415" yMax="582">
      <component glyphName="c" x="0" y="0" flags="0x204"/>
      <component glyphName="dotaccent" x="12" y="0" flags="0x4"/>
    </TTGlyph>
    <TTGlyph name="cedilla" xMin="45" yMin="-237" xMax="263" yMax="14">
      <contour>
        <pt x="263" y="-142" on="1"/>
        <pt x="263" y="-183" on="0"/>
        <pt x="199" y="-237" on="0"/>
        <pt x="148" y="-237" on="1"/>
        <pt x="96" y="-237" on="0"/>
        <pt x="45" y="-203" on="1"/>
        <pt x="69" y="-167" on="1"/>
        <pt x="110" y="-196" on="0"/>
        <pt x="151" y="-196" on="1"/>
        <pt x="178" y="-196" on="0"/>
        <pt x="215" y="-170" on="0"/>
        <pt x="215" y="-145" on="1"/>
        <pt x="215" y="-128" on="0"/>
        <pt x="175" y="-94" on="0"/>
        <pt x="125" y="-89" on="1"/>
        <pt x="123" y="-83" on="1"/>
        <pt x="169" y="14" on="1"/>
        <pt x="206" y="5" on="1"/>
        <pt x="177" y="-60" on="1"/>
        <pt x="263" y="-83" on="0"/>
      </contour>
    </TTGlyph>
    <TTGlyph name="cent" xMin="40" yMin="-82" xMax="419" yMax="496">
      <contour>
        <pt x="319" y="422" on="1"/>
        <pt x="349" y="417" on="0"/>
        <pt x="401" y="391" on="0"/>
        <pt x="419" y="376" on="1"/>
        <pt x="390" y="335" on="1"/>
        <pt x="373" y="349" on="0"/>
        <pt x="331" y="368" on="0"/>
        <pt x="306" y="373" on="1"/>
        <pt x="219" y="41" on="1"/>
        <pt x="224" y="40" on="0"/>
        <pt x="234" y="40" on="0"/>
        <pt x="239" y="40" on="1"/>
        <pt x="266" y="40" on="0"/>
        <pt x="318" y="53" on="0"/>
        <pt x="340" y="64" on="1"/>
        <pt x="352" y="20" on="1"/>
        <pt x="323" y="7" on="0"/>
        <pt x="266" y="-8" on="0"/>
        <pt x="228" y="-8" on="1"/>
        <pt x="223" y="-8" on="0"/>
        <pt x="211" y="-7" on="0"/>
        <pt x="206" y="-7" on="1"/>
        <pt x="187" y="-82" on="1"/>
        <pt x="139" y="-77" on="1"/>
        <pt x="160" y="3" on="1"/>
        <pt x="109" y="21" on="0"/>
        <pt x="40" y="110" on="0"/>
        <pt x="40" y="180" on="1"/>
        <pt x="40" y="226" on="0"/>
        <pt x="73" y="312" on="0"/>
        <pt x="133" y="381" on="0"/>
        <pt x="218" y="424" on="0"/>
        <pt x="270" y="426" on="1"/>
        <pt x="289" y="496" on="1"/>
        <pt x="337" y="491" on="1"/>
      </contour>
      <contour>
        <pt x="94" y="182" on="1"/>
        <pt x="94" y="134" on="0"/>
        <pt x="136" y="68" on="0"/>
        <pt x="173" y="52" on="1"/>
        <pt x="257" y="376" on="1"/>
        <pt x="220" y="373" on="0"/>
        <pt x="160" y="339" on="0"/>
        <pt x="117" y="285" on="0"/>
        <pt x="94" y="218" on="0"/>
      </contour>
    </TTGlyph>
    <TTGlyph name="cent.lin" xMin="75" yMin="82" xMax="454" yMax="660">
      <component glyphName="cent" x="35" y="164" flags="0x204"/>
    </TTGlyph>
    <TTGlyph name="circumflex" xMin="138" yMin="485" xMax="410" yMax="634">
      <contour>
        <pt x="355" y="485" on="1"/>
        <pt x="295" y="582" on="1"/>
        <pt x="199" y="485" on="1"/>
        <pt x="138" y="485" on="1"/>
        <pt x="288" y="634" on="1"/>
        <pt x="319" y="634" on="1"/>
        <pt x="410" y="485" on="1"/>
      </contour>
    </TTGlyph>
    <TTGlyph name="colon" xMin="17" yMin="-8" xMax="157" yMax="366">
      <contour>
        <pt x="157" y="324" on="1"/>
        <pt x="157" y="306" on="0"/>
        <pt x="132" y="282" on="0"/>
        <pt x="114" y="282" on="1"/>
        <pt x="97" y="282" on="0"/>
        <pt x="72" y="306" on="0"/>
        <pt x="72" y="324" on="1"/>
        <pt x="72" y="341" on="0"/>
        <pt x="97" y="366" on="0"/>
        <pt x="114" y="366" on="1"/>
        <pt x="132" y="366" on="0"/>
        <pt x="157" y="341" on="0"/>
      </contour>
      <contour>
        <pt x="102" y="34" on="1"/>
        <pt x="102" y="17" on="0"/>
        <pt x="77" y="-8" on="0"/>
        <pt x="59" y="-8" on="1"/>
        <pt x="42" y="-8" on="0"/>
        <pt x="17" y="17" on="0"/>
        <pt x="17" y="34" on="1"/>
        <pt x="17" y="52" on="0"/>
        <pt x="42" y="77" on="0"/>
        <pt x="59" y="77" on="1"/>
        <pt x="77" y="77" on="0"/>
        <pt x="102" y="52" on="0"/>
      </contour>
    </TTGlyph>
    <TTGlyph name="comma" xMin="-23" yMin="-113" xMax="102" yMax="77">
      <contour>
        <pt x="102" y="28" on="1"/>
        <pt x="102" y="5" on="0"/>
        <pt x="81" y="-36" on="0"/>
        <pt x="48" y="-72" on="0"/>
        <pt x="6" y="-102" on="0"/>
        <pt x="-14" y="-113" on="1"/>
        <pt x="-23" y="-100" on="1"/>
        <pt x="9" y="-76" on="0"/>
        <pt x="47" y="-32" on="0"/>
        <pt x="58" y="-8" on="1"/>
        <pt x="40" y="-6" on="0"/>
        <pt x="17" y="19" on="0"/>
        <pt x="17" y="36" on="1"/>
        <pt x="17" y="53" on="0"/>
        <pt x="41" y="77" on="0"/>
        <pt x="58" y="77" on="1"/>
        <pt x="73" y="77" on="0"/>
        <pt x="102" y="51" on="0"/>
      </contour>
    </TTGlyph>
    <TTGlyph name="commaaccent" xMin="42" yMin="-262" xMax="166" yMax="-73">
      <contour>
        <pt x="166" y="-122" on="1"/>
        <pt x="166" y="-145" on="0"/>
        <pt x="145" y="-186" on="0"/>
        <pt x="112" y="-222" on="0"/>
        <pt x="71" y="-251" on="0"/>
        <pt x="51" y="-262" on="1"/>
        <pt x="42" y="-249" on="1"/>
        <pt x="73" y="-225" on="0"/>
        <pt x="112" y="-181" on="0"/>
        <pt x="122" y="-158" on="1"/>
        <pt x="105" y="-155" on="0"/>
        <pt x="82" y="-131" on="0"/>
        <pt x="82" y="-114" on="1"/>
        <pt x="82" y="-97" on="0"/>
        <pt x="106" y="-73" on="0"/>
        <pt x="123" y="-73" on="1"/>
        <pt x="138" y="-73" on="0"/>
        <pt x="166" y="-99" on="0"/>
      </contour>
    </TTGlyph>
    <TTGlyph name="copyright" xMin="85" yMin="-13" xMax="829" yMax="746">
      <contour>
        <pt x="571" y="217" on="1"/>
        <pt x="543" y="200" on="0"/>
        <pt x="476" y="179" on="0"/>
        <pt x="437" y="179" on="1"/>
        <pt x="401" y="179" on="0"/>
        <pt x="341" y="201" on="0"/>
        <pt x="298" y="244" on="0"/>
        <pt x="274" y="305" on="0"/>
        <pt x="274" y="344" on="1"/>
        <pt x="274" y="388" on="0"/>
        <pt x="309" y="466" on="0"/>
        <pt x="370" y="525" on="0"/>
        <pt x="453" y="559" on="0"/>
        <pt x="500" y="559" on="1"/>
        <pt x="542" y="559" on="0"/>
        <pt x="604" y="536" on="0"/>
        <pt x="628" y="517" on="1"/>
        <pt x="604" y="479" on="1"/>
        <pt x="583" y="495" on="0"/>
        <pt x="531" y="515" on="0"/>
        <pt x="499" y="515" on="1"/>
        <pt x="462" y="515" on="0"/>
        <pt x="399" y="490" on="0"/>
        <pt x="352" y="445" on="0"/>
        <pt x="325" y="384" on="0"/>
        <pt x="325" y="348" on="1"/>
        <pt x="325" y="288" on="0"/>
        <pt x="391" y="223" on="0"/>
        <pt x="447" y="223" on="1"/>
        <pt x="478" y="223" on="0"/>
        <pt x="534" y="242" on="0"/>
        <pt x="559" y="257" on="1"/>
      </contour>
      <contour>
        <pt x="786" y="415" on="1"/>
        <pt x="786" y="481" on="0"/>
        <pt x="743" y="589" on="0"/>
        <pt x="666" y="666" on="0"/>
        <pt x="560" y="708" on="0"/>
        <pt x="497" y="708" on="1"/>
        <pt x="417" y="708" on="0"/>
        <pt x="281" y="646" on="0"/>
        <pt x="183" y="539" on="0"/>
        <pt x="128" y="398" on="0"/>
        <pt x="128" y="319" on="1"/>
        <pt x="128" y="253" on="0"/>
        <pt x="172" y="145" on="0"/>
        <pt x="249" y="68" on="0"/>
        <pt x="355" y="25" on="0"/>
        <pt x="417" y="25" on="1"/>
        <pt x="497" y="25" on="0"/>
        <pt x="632" y="88" on="0"/>
        <pt x="731" y="195" on="0"/>
        <pt x="786" y="337" on="0"/>
      </contour>
      <contour>
        <pt x="829" y="414" on="1"/>
        <pt x="829" y="331" on="0"/>
        <pt x="768" y="176" on="0"/>
        <pt x="659" y="58" on="0"/>
        <pt x="506" y="-13" on="0"/>
        <pt x="415" y="-13" on="1"/>
        <pt x="341" y="-13" on="0"/>
        <pt x="220" y="36" on="0"/>
        <pt x="133" y="125" on="0"/>
        <pt x="85" y="247" on="0"/>
        <pt x="85" y="319" on="1"/>
        <pt x="85" y="403" on="0"/>
        <pt x="146" y="557" on="0"/>
        <pt x="255" y="676" on="0"/>
        <pt x="407" y="746" on="0"/>
        <pt x="499" y="746" on="1"/>
        <pt x="572" y="746" on="0"/>
        <pt x="694" y="697" on="0"/>
        <pt x="781" y="609" on="0"/>
        <pt x="829" y="487" on="0"/>
      </contour>
    </TTGlyph>
    <TTGlyph name="d" xMin="38" yMin="-8" xMax="511" yMax="733">
      <contour>
        <pt x="369" y="0" on="1"/>
        <pt x="315" y="0" on="1"/>
        <pt x="323" y="37" on="1"/>
        <pt x="298" y="17" on="0"/>
        <pt x="236" y="-8" on="0"/>
        <pt x="199" y="-8" on="1"/>
        <pt x="166" y="-8" on="0"/>
        <pt x="108" y="18" on="0"/>
        <pt x="64" y="64" on="0"/>
        <pt x="38" y="129" on="0"/>
        <pt x="38" y="168" on="1"/>
        <pt x="38" y="217" on="0"/>
        <pt x="73" y="310" on="0"/>
        <pt x="135" y="382" on="0"/>
        <pt x="221" y="426" on="0"/>
        <pt x="272" y="426" on="1"/>
        <pt x="310" y="426" on="0"/>
        <pt x="370" y="399" on="0"/>
        <pt x="388" y="382" on="1"/>
        <pt x="455" y="733" on="1"/>
        <pt x="511" y="733" on="1"/>
      </contour>
      <contour>
        <pt x="378" y="331" on="1"/>
        <pt x="359" y="351" on="0"/>
        <pt x="304" y="378" on="0"/>
        <pt x="270" y="378" on="1"/>
        <pt x="232" y="378" on="0"/>
        <pt x="167" y="346" on="0"/>
        <pt x="120" y="291" on="0"/>
        <pt x="93" y="219" on="0"/>
        <pt x="93" y="179" on="1"/>
        <pt x="93" y="114" on="0"/>
        <pt x="159" y="41" on="0"/>
        <pt x="213" y="41" on="1"/>
        <pt x="278" y="41" on="0"/>
        <pt x="330" y="87" on="1"/>
      </contour>
    </TTGlyph>
    <TTGlyph name="dagger" xMin="101" yMin="156" xMax="463" yMax="733">
      <contour>
        <pt x="454" y="502" on="1"/>
        <pt x="305" y="502" on="1"/>
        <pt x="238" y="156" on="1"/>
        <pt x="184" y="156" on="1"/>
        <pt x="251" y="502" on="1"/>
        <pt x="101" y="502" on="1"/>
        <pt x="110" y="551" on="1"/>
        <pt x="260" y="551" on="1"/>
        <pt x="296" y="733" on="1"/>
        <pt x="350" y="733" on="1"/>
        <pt x="314" y="551" on="1"/>
        <pt x="463" y="551" on="1"/>
      </contour>
    </TTGlyph>
    <TTGlyph name="daggerdbl" xMin="66" yMin="156" xMax="468" yMax="733">
      <contour>
        <pt x="459" y="529" on="1"/>
        <pt x="310" y="529" on="1"/>
        <pt x="277" y="360" on="1"/>
        <pt x="429" y="360" on="1"/>
        <pt x="419" y="312" on="1"/>
        <pt x="268" y="312" on="1"/>
        <pt x="238" y="156" on="1"/>
        <pt x="184" y="156" on="1"/>
        <pt x="214" y="312" on="1"/>
        <pt x="66" y="312" on="1"/>
        <pt x="75" y="360" on="1"/>
        <pt x="223" y="360" on="1"/>
        <pt x="257" y="529" on="1"/>
        <pt x="106" y="529" on="1"/>
        <pt x="115" y="578" on="1"/>
        <pt x="266" y="578" on="1"/>
        <pt x="296" y="733" on="1"/>
        <pt x="350" y="733" on="1"/>
        <pt x="320" y="578" on="1"/>
        <pt x="468" y="578" on="1"/>
      </contour>
    </TTGlyph>
    <TTGlyph name="dcaron" xMin="38" yMin="-8" xMax="662" yMax="735">
      <component glyphName="caron.alt" x="476" y="-3" flags="0x4"/>
      <component glyphName="d" x="0" y="0" flags="0x4"/>
    </TTGlyph>
    <TTGlyph name="dcroat" xMin="38" yMin="-8" xMax="549" yMax="733">
      <contour>
        <pt x="489" y="618" on="1"/>
        <pt x="549" y="618" on="1"/>
        <pt x="540" y="570" on="1"/>
        <pt x="479" y="570" on="1"/>
        <pt x="369" y="0" on="1"/>
        <pt x="315" y="0" on="1"/>
        <pt x="323" y="37" on="1"/>
        <pt x="298" y="17" on="0"/>
        <pt x="236" y="-8" on="0"/>
        <pt x="199" y="-8" on="1"/>
        <pt x="166" y="-8" on="0"/>
        <pt x="108" y="18" on="0"/>
        <pt x="64" y="64" on="0"/>
        <pt x="38" y="129" on="0"/>
        <pt x="38" y="168" on="1"/>
        <pt x="38" y="217" on="0"/>
        <pt x="73" y="310" on="0"/>
        <pt x="135" y="382" on="0"/>
        <pt x="221" y="426" on="0"/>
        <pt x="272" y="426" on="1"/>
        <pt x="310" y="426" on="0"/>
        <pt x="370" y="399" on="0"/>
        <pt x="388" y="382" on="1"/>
        <pt x="424" y="570" on="1"/>
        <pt x="281" y="570" on="1"/>
        <pt x="290" y="618" on="1"/>
        <pt x="433" y="618" on="1"/>
        <pt x="455" y="733" on="1"/>
        <pt x="511" y="733" on="1"/>
      </contour>
      <contour>
        <pt x="378" y="331" on="1"/>
        <pt x="359" y="351" on="0"/>
        <pt x="304" y="378" on="0"/>
        <pt x="270" y="378" on="1"/>
        <pt x="232" y="378" on="0"/>
        <pt x="167" y="346" on="0"/>
        <pt x="120" y="291" on="0"/>
        <pt x="93" y="219" on="0"/>
        <pt x="93" y="179" on="1"/>
        <pt x="93" y="114" on="0"/>
        <pt x="159" y="41" on="0"/>
        <pt x="213" y="41" on="1"/>
        <pt x="278" y="41" on="0"/>
        <pt x="330" y="87" on="1"/>
      </contour>
    </TTGlyph>
    <TTGlyph name="degree" xMin="137" yMin="482" xMax="330" yMax="685">
      <contour>
        <pt x="330" y="600" on="1"/>
        <pt x="330" y="577" on="0"/>
        <pt x="314" y="535" on="0"/>
        <pt x="285" y="502" on="0"/>
        <pt x="245" y="482" on="0"/>
        <pt x="221" y="482" on="1"/>
        <pt x="184" y="482" on="0"/>
        <pt x="137" y="531" on="0"/>
        <pt x="137" y="568" on="1"/>
        <pt x="137" y="590" on="0"/>
        <pt x="153" y="633" on="0"/>
        <pt x="182" y="665" on="0"/>
        <pt x="223" y="685" on="0"/>
        <pt x="247" y="685" on="1"/>
        <pt x="284" y="685" on="0"/>
        <pt x="330" y="637" on="0"/>
      </contour>
      <contour>
        <pt x="289" y="596" on="1"/>
        <pt x="289" y="622" on="0"/>
        <pt x="264" y="652" on="0"/>
        <pt x="243" y="652" on="1"/>
        <pt x="217" y="652" on="0"/>
        <pt x="178" y="604" on="0"/>
        <pt x="178" y="571" on="1"/>
        <pt x="178" y="545" on="0"/>
        <pt x="203" y="516" on="0"/>
        <pt x="224" y="516" on="1"/>
        <pt x="250" y="516" on="0"/>
        <pt x="289" y="562" on="0"/>
      </contour>
    </TTGlyph>
    <TTGlyph name="degree.lin" xMin="138" yMin="481" xMax="384" yMax="744">
      <contour>
        <pt x="384" y="633" on="1"/>
        <pt x="384" y="604" on="0"/>
        <pt x="363" y="549" on="0"/>
        <pt x="326" y="507" on="0"/>
        <pt x="275" y="481" on="0"/>
        <pt x="244" y="481" on="1"/>
        <pt x="196" y="481" on="0"/>
        <pt x="138" y="543" on="0"/>
        <pt x="138" y="591" on="1"/>
        <pt x="138" y="621" on="0"/>
        <pt x="158" y="676" on="0"/>
        <pt x="195" y="718" on="0"/>
        <pt x="247" y="744" on="0"/>
        <pt x="278" y="744" on="1"/>
        <pt x="326" y="744" on="0"/>
        <pt x="384" y="681" on="0"/>
      </contour>
      <contour>
        <pt x="337" y="631" on="1"/>
        <pt x="337" y="664" on="0"/>
        <pt x="302" y="705" on="0"/>
        <pt x="272" y="705" on="1"/>
        <pt x="254" y="705" on="0"/>
        <pt x="222" y="687" on="0"/>
        <pt x="198" y="656" on="0"/>
        <pt x="184" y="615" on="0"/>
        <pt x="184" y="593" on="1"/>
        <pt x="184" y="559" on="0"/>
        <pt x="219" y="520" on="0"/>
        <pt x="249" y="520" on="1"/>
        <pt x="267" y="520" on="0"/>
        <pt x="299" y="538" on="0"/>
        <pt x="323" y="568" on="0"/>
        <pt x="337" y="608" on="0"/>
      </contour>
    </TTGlyph>
    <TTGlyph name="dieresis" xMin="158" yMin="501" xMax="409" yMax="582">
      <contour>
        <pt x="239" y="541" on="1"/>
        <pt x="239" y="524" on="0"/>
        <pt x="215" y="501" on="0"/>
        <pt x="198" y="501" on="1"/>
        <pt x="181" y="501" on="0"/>
        <pt x="158" y="524" on="0"/>
        <pt x="158" y="541" on="1"/>
        <pt x="158" y="558" on="0"/>
        <pt x="181" y="582" on="0"/>
        <pt x="198" y="582" on="1"/>
        <pt x="215" y="582" on="0"/>
        <pt x="239" y="558" on="0"/>
      </contour>
      <contour>
        <pt x="409" y="541" on="1"/>
        <pt x="409" y="524" on="0"/>
        <pt x="386" y="501" on="0"/>
        <pt x="369" y="501" on="1"/>
        <pt x="352" y="501" on="0"/>
        <pt x="329" y="524" on="0"/>
        <pt x="329" y="541" on="1"/>
        <pt x="329" y="558" on="0"/>
        <pt x="352" y="582" on="0"/>
        <pt x="369" y="582" on="1"/>
        <pt x="386" y="582" on="0"/>
        <pt x="409" y="558" on="0"/>
      </contour>
    </TTGlyph>
    <TTGlyph name="divide" xMin="60" yMin="97" xMax="409" yMax="466">
      <contour>
        <pt x="246" y="136" on="1"/>
        <pt x="246" y="120" on="0"/>
        <pt x="224" y="97" on="0"/>
        <pt x="207" y="97" on="1"/>
        <pt x="190" y="97" on="0"/>
        <pt x="167" y="120" on="0"/>
        <pt x="167" y="136" on="1"/>
        <pt x="167" y="153" on="0"/>
        <pt x="190" y="177" on="0"/>
        <pt x="207" y="177" on="1"/>
        <pt x="224" y="177" on="0"/>
        <pt x="246" y="153" on="0"/>
      </contour>
      <contour>
        <pt x="69" y="306" on="1"/>
        <pt x="409" y="306" on="1"/>
        <pt x="399" y="257" on="1"/>
        <pt x="60" y="257" on="1"/>
      </contour>
      <contour>
        <pt x="302" y="425" on="1"/>
        <pt x="302" y="409" on="0"/>
        <pt x="279" y="386" on="0"/>
        <pt x="262" y="386" on="1"/>
        <pt x="245" y="386" on="0"/>
        <pt x="222" y="409" on="0"/>
        <pt x="222" y="425" on="1"/>
        <pt x="222" y="442" on="0"/>
        <pt x="245" y="466" on="0"/>
        <pt x="262" y="466" on="1"/>
        <pt x="279" y="466" on="0"/>
        <pt x="302" y="442" on="0"/>
      </contour>
    </TTGlyph>
    <TTGlyph name="divide.lin" xMin="88" yMin="187" xMax="437" yMax="556">
      <component glyphName="divide" x="28" y="90" flags="0x4"/>
    </TTGlyph>
    <TTGlyph name="dollar" xMin="5" yMin="-72" xMax="425" yMax="646">
      <contour>
        <pt x="329" y="581" on="1"/>
        <pt x="360" y="574" on="0"/>
        <pt x="408" y="547" on="0"/>
        <pt x="425" y="534" on="1"/>
        <pt x="394" y="491" on="1"/>
        <pt x="375" y="505" on="0"/>
        <pt x="337" y="527" on="0"/>
        <pt x="317" y="532" on="1"/>
        <pt x="259" y="309" on="1"/>
        <pt x="283" y="294" on="0"/>
        <pt x="323" y="263" on="0"/>
        <pt x="353" y="228" on="0"/>
        <pt x="369" y="186" on="0"/>
        <pt x="369" y="159" on="1"/>
        <pt x="369" y="119" on="0"/>
        <pt x="339" y="57" on="0"/>
        <pt x="289" y="14" on="0"/>
        <pt x="221" y="-9" on="0"/>
        <pt x="184" y="-9" on="1"/>
        <pt x="178" y="-9" on="1"/>
        <pt x="162" y="-72" on="1"/>
        <pt x="118" y="-67" on="1"/>
        <pt x="134" y="-4" on="1"/>
        <pt x="97" y="3" on="0"/>
        <pt x="34" y="37" on="0"/>
        <pt x="5" y="60" on="1"/>
        <pt x="37" y="102" on="1"/>
        <pt x="62" y="82" on="0"/>
        <pt x="116" y="50" on="0"/>
        <pt x="147" y="43" on="1"/>
        <pt x="208" y="279" on="1"/>
        <pt x="161" y="308" on="0"/>
        <pt x="101" y="373" on="0"/>
        <pt x="101" y="423" on="1"/>
        <pt x="101" y="457" on="0"/>
        <pt x="127" y="517" on="0"/>
        <pt x="175" y="561" on="0"/>
        <pt x="243" y="586" on="0"/>
        <pt x="284" y="586" on="1"/>
        <pt x="285" y="586" on="1"/>
        <pt x="301" y="646" on="1"/>
        <pt x="345" y="641" on="1"/>
      </contour>
      <contour>
        <pt x="315" y="154" on="1"/>
        <pt x="315" y="184" on="0"/>
        <pt x="281" y="231" on="0"/>
        <pt x="247" y="255" on="1"/>
        <pt x="191" y="39" on="1"/>
        <pt x="243" y="41" on="0"/>
        <pt x="315" y="100" on="0"/>
      </contour>
      <contour>
        <pt x="154" y="428" on="1"/>
        <pt x="154" y="399" on="0"/>
        <pt x="185" y="356" on="0"/>
        <pt x="220" y="333" on="1"/>
        <pt x="273" y="537" on="1"/>
        <pt x="216" y="535" on="0"/>
        <pt x="154" y="474" on="0"/>
      </contour>
    </TTGlyph>
    <TTGlyph name="dollar.lin" xMin="5" yMin="-89" xMax="515" yMax="818">
      <contour>
        <pt x="398" y="737" on="1"/>
        <pt x="432" y="729" on="0"/>
        <pt x="492" y="699" on="0"/>
        <pt x="515" y="680" on="1"/>
        <pt x="485" y="637" on="1"/>
        <pt x="465" y="654" on="0"/>
        <pt x="414" y="681" on="0"/>
        <pt x="385" y="688" on="1"/>
        <pt x="308" y="389" on="1"/>
        <pt x="334" y="372" on="0"/>
        <pt x="384" y="335" on="0"/>
        <pt x="424" y="289" on="0"/>
        <pt x="449" y="231" on="0"/>
        <pt x="449" y="194" on="1"/>
        <pt x="449" y="152" on="0"/>
        <pt x="416" y="77" on="0"/>
        <pt x="356" y="22" on="0"/>
        <pt x="272" y="-10" on="0"/>
        <pt x="221" y="-10" on="1"/>
        <pt x="217" y="-10" on="0"/>
        <pt x="209" y="-10" on="0"/>
        <pt x="205" y="-9" on="1"/>
        <pt x="185" y="-89" on="1"/>
        <pt x="139" y="-82" on="1"/>
        <pt x="159" y="-3" on="1"/>
        <pt x="117" y="5" on="0"/>
        <pt x="39" y="46" on="0"/>
        <pt x="5" y="75" on="1"/>
        <pt x="35" y="118" on="1"/>
        <pt x="66" y="91" on="0"/>
        <pt x="135" y="53" on="0"/>
        <pt x="172" y="45" on="1"/>
        <pt x="254" y="358" on="1"/>
        <pt x="228" y="375" on="0"/>
        <pt x="180" y="411" on="0"/>
        <pt x="141" y="455" on="0"/>
        <pt x="118" y="509" on="0"/>
        <pt x="118" y="544" on="1"/>
        <pt x="118" y="586" on="0"/>
        <pt x="151" y="659" on="0"/>
        <pt x="210" y="713" on="0"/>
        <pt x="292" y="744" on="0"/>
        <pt x="341" y="744" on="1"/>
        <pt x="353" y="744" on="1"/>
        <pt x="372" y="818" on="1"/>
        <pt x="418" y="812" on="1"/>
      </contour>
      <contour>
        <pt x="394" y="188" on="1"/>
        <pt x="394" y="236" on="0"/>
        <pt x="336" y="303" on="0"/>
        <pt x="293" y="332" on="1"/>
        <pt x="218" y="40" on="1"/>
        <pt x="221" y="40" on="1"/>
        <pt x="260" y="40" on="0"/>
        <pt x="324" y="63" on="0"/>
        <pt x="369" y="103" on="0"/>
        <pt x="394" y="157" on="0"/>
      </contour>
      <contour>
        <pt x="173" y="550" on="1"/>
        <pt x="173" y="506" on="0"/>
        <pt x="223" y="446" on="0"/>
        <pt x="268" y="415" on="1"/>
        <pt x="340" y="694" on="1"/>
        <pt x="336" y="694" on="1"/>
        <pt x="298" y="694" on="0"/>
        <pt x="237" y="671" on="0"/>
        <pt x="195" y="632" on="0"/>
        <pt x="173" y="580" on="0"/>
      </contour>
    </TTGlyph>
    <TTGlyph name="dotaccent" xMin="245" yMin="501" xMax="326" yMax="582">
      <contour>
        <pt x="326" y="541" on="1"/>
        <pt x="326" y="524" on="0"/>
        <pt x="302" y="501" on="0"/>
        <pt x="285" y="501" on="1"/>
        <pt x="268" y="501" on="0"/>
        <pt x="245" y="524" on="0"/>
        <pt x="245" y="541" on="1"/>
        <pt x="245" y="558" on="0"/>
        <pt x="268" y="582" on="0"/>
        <pt x="285" y="582" on="1"/>
        <pt x="302" y="582" on="0"/>
        <pt x="326" y="558" on="0"/>
      </contour>
    </TTGlyph>
    <TTGlyph name="dotlessi" xMin="26" yMin="0" xMax="163" yMax="418">
      <contour>
        <pt x="82" y="0" on="1"/>
        <pt x="26" y="0" on="1"/>
        <pt x="108" y="418" on="1"/>
        <pt x="163" y="418" on="1"/>
      </contour>
    </TTGlyph>
    <TTGlyph name="e" xMin="36" yMin="-8" xMax="410" yMax="426">
      <contour>
        <pt x="221" y="-8" on="1"/>
        <pt x="134" y="-8" on="0"/>
        <pt x="36" y="84" on="0"/>
        <pt x="36" y="168" on="1"/>
        <pt x="36" y="214" on="0"/>
        <pt x="70" y="307" on="0"/>
        <pt x="130" y="380" on="0"/>
        <pt x="213" y="426" on="0"/>
        <pt x="263" y="426" on="1"/>
        <pt x="300" y="426" on="0"/>
        <pt x="355" y="400" on="0"/>
        <pt x="392" y="357" on="0"/>
        <pt x="410" y="299" on="0"/>
        <pt x="410" y="267" on="1"/>
        <pt x="410" y="248" on="0"/>
        <pt x="406" y="219" on="0"/>
        <pt x="401" y="202" on="1"/>
        <pt x="90" y="202" on="1"/>
        <pt x="89" y="195" on="0"/>
        <pt x="89" y="180" on="0"/>
        <pt x="89" y="173" on="1"/>
        <pt x="89" y="110" on="0"/>
        <pt x="160" y="40" on="0"/>
        <pt x="227" y="40" on="1"/>
        <pt x="276" y="40" on="0"/>
        <pt x="331" y="60" on="1"/>
        <pt x="333" y="48" on="0"/>
        <pt x="335" y="37" on="1"/>
        <pt x="337" y="28" on="0"/>
        <pt x="340" y="13" on="0"/>
        <pt x="340" y="14" on="1"/>
        <pt x="313" y="3" on="0"/>
        <pt x="257" y="-8" on="0"/>
      </contour>
      <contour>
        <pt x="355" y="246" on="1"/>
        <pt x="357" y="252" on="0"/>
        <pt x="357" y="265" on="0"/>
        <pt x="357" y="273" on="1"/>
        <pt x="357" y="316" on="0"/>
        <pt x="309" y="378" on="0"/>
        <pt x="259" y="378" on="1"/>
        <pt x="233" y="378" on="0"/>
        <pt x="185" y="358" on="0"/>
        <pt x="143" y="322" on="0"/>
        <pt x="111" y="274" on="0"/>
        <pt x="102" y="246" on="1"/>
      </contour>
    </TTGlyph>
    <TTGlyph name="eacute" xMin="36" yMin="-8" xMax="451" yMax="634">
      <component glyphName="acute" x="70" y="0" flags="0x4"/>
      <component glyphName="e" x="0" y="0" flags="0x4"/>
    </TTGlyph>
    <TTGlyph name="ebreve" xMin="36" yMin="-8" xMax="437" yMax="617">
      <component glyphName="e" x="0" y="0" flags="0x204"/>
      <component glyphName="breve" x="13" y="0" flags="0x4"/>
    </TTGlyph>
    <TTGlyph name="ecaron" xMin="36" yMin="-8" xMax="449" yMax="633">
      <component glyphName="caron" x="15" y="0" flags="0x4"/>
      <component glyphName="e" x="0" y="0" flags="0x4"/>
    </TTGlyph>
    <TTGlyph name="ecircumflex" xMin="36" yMin="-8" xMax="416" yMax="634">
      <component glyphName="circumflex" x="6" y="0" flags="0x4"/>
      <component glyphName="e" x="0" y="0" flags="0x4"/>
    </TTGlyph>
    <TTGlyph name="edieresis" xMin="36" yMin="-8" xMax="419" yMax="582">
      <component glyphName="dieresis" x="10" y="0" flags="0x4"/>
      <component glyphName="e" x="0" y="0" flags="0x4"/>
    </TTGlyph>
    <TTGlyph name="edotaccent" xMin="36" yMin="-8" xMax="410" yMax="582">
      <component glyphName="e" x="0" y="0" flags="0x204"/>
      <component glyphName="dotaccent" x="8" y="0" flags="0x4"/>
    </TTGlyph>
    <TTGlyph name="egrave" xMin="36" yMin="-8" xMax="410" yMax="634">
      <component glyphName="e" x="0" y="0" flags="0x204"/>
      <component glyphName="grave" x="-58" y="0" flags="0x4"/>
    </TTGlyph>
    <TTGlyph name="eight" xMin="48" yMin="-9" xMax="453" yMax="586">
      <contour>
        <pt x="453" y="444" on="1"/>
        <pt x="453" y="390" on="0"/>
        <pt x="392" y="307" on="0"/>
        <pt x="335" y="288" on="1"/>
        <pt x="370" y="268" on="0"/>
        <pt x="410" y="203" on="0"/>
        <pt x="410" y="162" on="1"/>
        <pt x="410" y="126" on="0"/>
        <pt x="380" y="64" on="0"/>
        <pt x="329" y="17" on="0"/>
        <pt x="260" y="-9" on="0"/>
        <pt x="221" y="-9" on="1"/>
        <pt x="185" y="-9" on="0"/>
        <pt x="122" y="12" on="0"/>
        <pt x="75" y="51" on="0"/>
        <pt x="48" y="107" on="0"/>
        <pt x="48" y="142" on="1"/>
        <pt x="48" y="199" on="0"/>
        <pt x="120" y="287" on="0"/>
        <pt x="179" y="303" on="1"/>
        <pt x="147" y="322" on="0"/>
        <pt x="114" y="382" on="0"/>
        <pt x="114" y="418" on="1"/>
        <pt x="114" y="451" on="0"/>
        <pt x="141" y="512" on="0"/>
        <pt x="189" y="558" on="0"/>
        <pt x="254" y="586" on="0"/>
        <pt x="293" y="586" on="1"/>
        <pt x="327" y="586" on="0"/>
        <pt x="385" y="565" on="0"/>
        <pt x="428" y="528" on="0"/>
        <pt x="453" y="475" on="0"/>
      </contour>
      <contour>
        <pt x="399" y="439" on="1"/>
        <pt x="399" y="483" on="0"/>
        <pt x="341" y="540" on="0"/>
        <pt x="292" y="540" on="1"/>
        <pt x="265" y="540" on="0"/>
        <pt x="220" y="521" on="0"/>
        <pt x="187" y="488" on="0"/>
        <pt x="168" y="444" on="0"/>
        <pt x="168" y="419" on="1"/>
        <pt x="168" y="373" on="0"/>
        <pt x="227" y="315" on="0"/>
        <pt x="274" y="315" on="1"/>
        <pt x="301" y="315" on="0"/>
        <pt x="347" y="335" on="0"/>
        <pt x="380" y="369" on="0"/>
        <pt x="399" y="414" on="0"/>
      </contour>
      <contour>
        <pt x="354" y="164" on="1"/>
        <pt x="354" y="187" on="0"/>
        <pt x="337" y="227" on="0"/>
        <pt x="305" y="256" on="0"/>
        <pt x="262" y="273" on="0"/>
        <pt x="237" y="273" on="1"/>
        <pt x="208" y="273" on="0"/>
        <pt x="160" y="253" on="0"/>
        <pt x="124" y="218" on="0"/>
        <pt x="104" y="171" on="0"/>
        <pt x="104" y="144" on="1"/>
        <pt x="104" y="95" on="0"/>
        <pt x="173" y="37" on="0"/>
        <pt x="225" y="37" on="1"/>
        <pt x="254" y="37" on="0"/>
        <pt x="301" y="57" on="0"/>
        <pt x="335" y="91" on="0"/>
        <pt x="354" y="137" on="0"/>
      </contour>
    </TTGlyph>
    <TTGlyph name="eight.den" xMin="12" yMin="-8" xMax="328" yMax="387">
      <contour>
        <pt x="155" y="-8" on="1"/>
        <pt x="126" y="-8" on="0"/>
        <pt x="74" y="6" on="0"/>
        <pt x="35" y="32" on="0"/>
        <pt x="12" y="70" on="0"/>
        <pt x="12" y="95" on="1"/>
        <pt x="12" y="132" on="0"/>
        <pt x="60" y="186" on="0"/>
        <pt x="104" y="199" on="1"/>
        <pt x="80" y="211" on="0"/>
        <pt x="56" y="252" on="0"/>
        <pt x="56" y="276" on="1"/>
        <pt x="56" y="326" on="0"/>
        <pt x="133" y="387" on="0"/>
        <pt x="193" y="387" on="1"/>
        <pt x="255" y="387" on="0"/>
        <pt x="328" y="330" on="0"/>
        <pt x="328" y="288" on="1"/>
        <pt x="328" y="253" on="0"/>
        <pt x="284" y="199" on="0"/>
        <pt x="246" y="187" on="1"/>
        <pt x="300" y="158" on="0"/>
        <pt x="300" y="105" on="1"/>
        <pt x="300" y="79" on="0"/>
        <pt x="277" y="38" on="0"/>
        <pt x="238" y="8" on="0"/>
        <pt x="185" y="-8" on="0"/>
      </contour>
      <contour>
        <pt x="191" y="213" on="1"/>
        <pt x="227" y="213" on="0"/>
        <pt x="277" y="250" on="0"/>
        <pt x="277" y="282" on="1"/>
        <pt x="277" y="309" on="0"/>
        <pt x="231" y="344" on="0"/>
        <pt x="190" y="344" on="1"/>
        <pt x="154" y="344" on="0"/>
        <pt x="104" y="306" on="0"/>
        <pt x="104" y="274" on="1"/>
        <pt x="104" y="248" on="0"/>
        <pt x="150" y="213" on="0"/>
      </contour>
      <contour>
        <pt x="156" y="35" on="1"/>
        <pt x="194" y="35" on="0"/>
        <pt x="249" y="72" on="0"/>
        <pt x="249" y="107" on="1"/>
        <pt x="249" y="139" on="0"/>
        <pt x="193" y="173" on="0"/>
        <pt x="156" y="173" on="1"/>
        <pt x="118" y="173" on="0"/>
        <pt x="63" y="136" on="0"/>
        <pt x="63" y="101" on="1"/>
        <pt x="63" y="69" on="0"/>
        <pt x="119" y="35" on="0"/>
      </contour>
    </TTGlyph>
    <TTGlyph name="eight.lin" xMin="58" yMin="-11" xMax="565" yMax="744">
      <contour>
        <pt x="276" y="-11" on="1"/>
        <pt x="230" y="-11" on="0"/>
        <pt x="150" y="18" on="0"/>
        <pt x="92" y="69" on="0"/>
        <pt x="58" y="139" on="0"/>
        <pt x="58" y="180" on="1"/>
        <pt x="58" y="217" on="0"/>
        <pt x="83" y="284" on="0"/>
        <pt x="128" y="337" on="0"/>
        <pt x="188" y="375" on="0"/>
        <pt x="224" y="384" on="1"/>
        <pt x="185" y="409" on="0"/>
        <pt x="141" y="485" on="0"/>
        <pt x="141" y="531" on="1"/>
        <pt x="141" y="576" on="0"/>
        <pt x="177" y="654" on="0"/>
        <pt x="238" y="711" on="0"/>
        <pt x="319" y="744" on="0"/>
        <pt x="364" y="744" on="1"/>
        <pt x="407" y="744" on="0"/>
        <pt x="480" y="717" on="0"/>
        <pt x="534" y="669" on="0"/>
        <pt x="565" y="601" on="0"/>
        <pt x="565" y="561" on="1"/>
        <pt x="565" y="527" on="0"/>
        <pt x="543" y="463" on="0"/>
        <pt x="503" y="410" on="0"/>
        <pt x="446" y="370" on="0"/>
        <pt x="411" y="360" on="1"/>
        <pt x="457" y="335" on="0"/>
        <pt x="509" y="256" on="0"/>
        <pt x="509" y="205" on="1"/>
        <pt x="509" y="160" on="0"/>
        <pt x="473" y="81" on="0"/>
        <pt x="410" y="22" on="0"/>
        <pt x="325" y="-11" on="0"/>
      </contour>
      <contour>
        <pt x="452" y="208" on="1"/>
        <pt x="452" y="240" on="0"/>
        <pt x="426" y="293" on="0"/>
        <pt x="382" y="331" on="0"/>
        <pt x="323" y="352" on="0"/>
        <pt x="291" y="352" on="1"/>
        <pt x="252" y="352" on="0"/>
        <pt x="188" y="324" on="0"/>
        <pt x="142" y="278" on="0"/>
        <pt x="117" y="217" on="0"/>
        <pt x="117" y="183" on="1"/>
        <pt x="117" y="151" on="0"/>
        <pt x="142" y="97" on="0"/>
        <pt x="185" y="59" on="0"/>
        <pt x="244" y="38" on="0"/>
        <pt x="278" y="38" on="1"/>
        <pt x="315" y="38" on="0"/>
        <pt x="379" y="65" on="0"/>
        <pt x="425" y="111" on="0"/>
        <pt x="452" y="173" on="0"/>
      </contour>
      <contour>
        <pt x="508" y="559" on="1"/>
        <pt x="508" y="591" on="0"/>
        <pt x="485" y="642" on="0"/>
        <pt x="445" y="677" on="0"/>
        <pt x="391" y="695" on="0"/>
        <pt x="360" y="695" on="1"/>
        <pt x="324" y="695" on="0"/>
        <pt x="264" y="668" on="0"/>
        <pt x="221" y="623" on="0"/>
        <pt x="197" y="563" on="0"/>
        <pt x="197" y="530" on="1"/>
        <pt x="197" y="499" on="0"/>
        <pt x="220" y="449" on="0"/>
        <pt x="259" y="413" on="0"/>
        <pt x="313" y="393" on="0"/>
        <pt x="345" y="393" on="1"/>
        <pt x="381" y="393" on="0"/>
        <pt x="441" y="420" on="0"/>
        <pt x="484" y="466" on="0"/>
        <pt x="508" y="526" on="0"/>
      </contour>
    </TTGlyph>
    <TTGlyph name="eight.num" xMin="82" yMin="346" xMax="397" yMax="741">
      <contour>
        <pt x="224" y="346" on="1"/>
        <pt x="195" y="346" on="0"/>
        <pt x="143" y="360" on="0"/>
        <pt x="104" y="386" on="0"/>
        <pt x="82" y="424" on="0"/>
        <pt x="82" y="449" on="1"/>
        <pt x="82" y="486" on="0"/>
        <pt x="129" y="540" on="0"/>
        <pt x="173" y="553" on="1"/>
        <pt x="150" y="565" on="0"/>
        <pt x="125" y="606" on="0"/>
        <pt x="125" y="630" on="1"/>
        <pt x="125" y="655" on="0"/>
        <pt x="146" y="696" on="0"/>
        <pt x="182" y="725" on="0"/>
        <pt x="233" y="741" on="0"/>
        <pt x="263" y="741" on="1"/>
        <pt x="324" y="741" on="0"/>
        <pt x="397" y="684" on="0"/>
        <pt x="397" y="642" on="1"/>
        <pt x="397" y="607" on="0"/>
        <pt x="353" y="553" on="0"/>
        <pt x="316" y="541" on="1"/>
        <pt x="369" y="512" on="0"/>
        <pt x="369" y="459" on="1"/>
        <pt x="369" y="433" on="0"/>
        <pt x="346" y="392" on="0"/>
        <pt x="307" y="362" on="0"/>
        <pt x="254" y="346" on="0"/>
      </contour>
      <contour>
        <pt x="260" y="567" on="1"/>
        <pt x="297" y="567" on="0"/>
        <pt x="347" y="605" on="0"/>
        <pt x="347" y="637" on="1"/>
        <pt x="347" y="663" on="0"/>
        <pt x="301" y="698" on="0"/>
        <pt x="260" y="698" on="1"/>
        <pt x="224" y="698" on="0"/>
        <pt x="174" y="660" on="0"/>
        <pt x="174" y="628" on="1"/>
        <pt x="174" y="602" on="0"/>
        <pt x="220" y="567" on="0"/>
      </contour>
      <contour>
        <pt x="226" y="389" on="1"/>
        <pt x="263" y="389" on="0"/>
        <pt x="318" y="427" on="0"/>
        <pt x="318" y="461" on="1"/>
        <pt x="318" y="493" on="0"/>
        <pt x="262" y="527" on="0"/>
        <pt x="225" y="527" on="1"/>
        <pt x="188" y="527" on="0"/>
        <pt x="133" y="490" on="0"/>
        <pt x="133" y="455" on="1"/>
        <pt x="133" y="423" on="0"/>
        <pt x="189" y="389" on="0"/>
      </contour>
    </TTGlyph>
    <TTGlyph name="elevensixteenths" xMin="131" yMin="-16" xMax="1252" yMax="749">
      <component glyphName="one.den" x="665" y="0" flags="0x4"/>
      <component glyphName="six.den" x="939" y="0" flags="0x4"/>
      <component glyphName="one.num" x="7" y="0" flags="0x4"/>
      <component glyphName="one.num" x="281" y="0" flags="0x4"/>
      <component glyphName="fraction" x="555" y="0" flags="0x4"/>
    </TTGlyph>
    <TTGlyph name="ellipsis" xMin="27" yMin="-8" xMax="512" yMax="77">
      <contour>
        <pt x="112" y="34" on="1"/>
        <pt x="112" y="17" on="0"/>
        <pt x="87" y="-8" on="0"/>
        <pt x="69" y="-8" on="1"/>
        <pt x="52" y="-8" on="0"/>
        <pt x="27" y="17" on="0"/>
        <pt x="27" y="34" on="1"/>
        <pt x="27" y="52" on="0"/>
        <pt x="52" y="77" on="0"/>
        <pt x="69" y="77" on="1"/>
        <pt x="87" y="77" on="0"/>
        <pt x="112" y="52" on="0"/>
      </contour>
      <contour>
        <pt x="312" y="34" on="1"/>
        <pt x="312" y="17" on="0"/>
        <pt x="287" y="-8" on="0"/>
        <pt x="269" y="-8" on="1"/>
        <pt x="252" y="-8" on="0"/>
        <pt x="227" y="17" on="0"/>
        <pt x="227" y="34" on="1"/>
        <pt x="227" y="52" on="0"/>
        <pt x="252" y="77" on="0"/>
        <pt x="269" y="77" on="1"/>
        <pt x="287" y="77" on="0"/>
        <pt x="312" y="52" on="0"/>
      </contour>
      <contour>
        <pt x="512" y="34" on="1"/>
        <pt x="512" y="17" on="0"/>
        <pt x="487" y="-8" on="0"/>
        <pt x="469" y="-8" on="1"/>
        <pt x="452" y="-8" on="0"/>
        <pt x="427" y="17" on="0"/>
        <pt x="427" y="34" on="1"/>
        <pt x="427" y="52" on="0"/>
        <pt x="452" y="77" on="0"/>
        <pt x="469" y="77" on="1"/>
        <pt x="487" y="77" on="0"/>
        <pt x="512" y="52" on="0"/>
      </contour>
    </TTGlyph>
    <TTGlyph name="emacron" xMin="36" yMin="-8" xMax="437" yMax="561">
      <component glyphName="e" x="0" y="0" flags="0x204"/>
      <component glyphName="macron" x="11" y="0" flags="0x4"/>
    </TTGlyph>
    <TTGlyph name="emdash" xMin="52" yMin="218" xMax="697" yMax="267">
      <contour>
        <pt x="688" y="218" on="1"/>
        <pt x="52" y="218" on="1"/>
        <pt x="62" y="267" on="1"/>
        <pt x="697" y="267" on="1"/>
      </contour>
    </TTGlyph>
    <TTGlyph name="emdash.cap" xMin="78" yMin="346" xMax="723" yMax="395">
      <component glyphName="emdash" x="26" y="128" flags="0x204"/>
    </TTGlyph>
    <TTGlyph name="endash" xMin="52" yMin="218" xMax="447" yMax="267">
      <contour>
        <pt x="438" y="218" on="1"/>
        <pt x="52" y="218" on="1"/>
        <pt x="62" y="267" on="1"/>
        <pt x="447" y="267" on="1"/>
      </contour>
    </TTGlyph>
    <TTGlyph name="endash.cap" xMin="78" yMin="346" xMax="473" yMax="395">
      <component glyphName="endash" x="26" y="128" flags="0x204"/>
    </TTGlyph>
    <TTGlyph name="eogonek" xMin="36" yMin="-220" xMax="410" yMax="426">
      <contour>
        <pt x="221" y="-8" on="1"/>
        <pt x="134" y="-8" on="0"/>
        <pt x="36" y="84" on="0"/>
        <pt x="36" y="168" on="1"/>
        <pt x="36" y="214" on="0"/>
        <pt x="70" y="307" on="0"/>
        <pt x="130" y="380" on="0"/>
        <pt x="213" y="426" on="0"/>
        <pt x="263" y="426" on="1"/>
        <pt x="300" y="426" on="0"/>
        <pt x="355" y="400" on="0"/>
        <pt x="392" y="357" on="0"/>
        <pt x="410" y="299" on="0"/>
        <pt x="410" y="267" on="1"/>
        <pt x="410" y="248" on="0"/>
        <pt x="406" y="219" on="0"/>
        <pt x="401" y="202" on="1"/>
        <pt x="90" y="202" on="1"/>
        <pt x="89" y="195" on="0"/>
        <pt x="89" y="180" on="0"/>
        <pt x="89" y="173" on="1"/>
        <pt x="89" y="110" on="0"/>
        <pt x="160" y="40" on="0"/>
        <pt x="227" y="40" on="1"/>
        <pt x="276" y="40" on="0"/>
        <pt x="331" y="60" on="1"/>
        <pt x="333" y="48" on="0"/>
        <pt x="335" y="37" on="1"/>
        <pt x="337" y="28" on="0"/>
        <pt x="340" y="13" on="0"/>
        <pt x="340" y="14" on="1"/>
        <pt x="320" y="-2" on="0"/>
        <pt x="278" y="-39" on="0"/>
        <pt x="243" y="-79" on="0"/>
        <pt x="220" y="-121" on="0"/>
        <pt x="220" y="-141" on="1"/>
        <pt x="220" y="-178" on="0"/>
        <pt x="252" y="-178" on="1"/>
        <pt x="267" y="-178" on="0"/>
        <pt x="295" y="-160" on="0"/>
        <pt x="312" y="-144" on="1"/>
        <pt x="334" y="-170" on="1"/>
        <pt x="312" y="-193" on="0"/>
        <pt x="266" y="-219" on="0"/>
        <pt x="237" y="-219" on="1"/>
        <pt x="206" y="-220" on="0"/>
        <pt x="171" y="-184" on="0"/>
        <pt x="171" y="-155" on="1"/>
        <pt x="171" y="-114" on="0"/>
        <pt x="224" y="-41" on="0"/>
        <pt x="264" y="-6" on="1"/>
        <pt x="254" y="-7" on="0"/>
        <pt x="233" y="-8" on="0"/>
      </contour>
      <contour>
        <pt x="355" y="246" on="1"/>
        <pt x="357" y="252" on="0"/>
        <pt x="357" y="265" on="0"/>
        <pt x="357" y="273" on="1"/>
        <pt x="357" y="316" on="0"/>
        <pt x="309" y="378" on="0"/>
        <pt x="259" y="378" on="1"/>
        <pt x="233" y="378" on="0"/>
        <pt x="185" y="358" on="0"/>
        <pt x="143" y="322" on="0"/>
        <pt x="111" y="274" on="0"/>
        <pt x="102" y="246" on="1"/>
      </contour>
    </TTGlyph>
    <TTGlyph name="equal" xMin="53" yMin="185" xMax="373" yMax="376">
      <contour>
        <pt x="336" y="185" on="1"/>
        <pt x="53" y="185" on="1"/>
        <pt x="62" y="234" on="1"/>
        <pt x="345" y="234" on="1"/>
      </contour>
      <contour>
        <pt x="363" y="326" on="1"/>
        <pt x="80" y="326" on="1"/>
        <pt x="90" y="376" on="1"/>
        <pt x="373" y="376" on="1"/>
      </contour>
    </TTGlyph>
    <TTGlyph name="equal.lin" xMin="69" yMin="276" xMax="389" yMax="467">
      <component glyphName="equal" x="16" y="91" flags="0x4"/>
    </TTGlyph>
    <TTGlyph name="eth" xMin="31" yMin="-8" xMax="426" yMax="735">
      <contour>
        <pt x="298" y="619" on="1"/>
        <pt x="355" y="555" on="0"/>
        <pt x="426" y="383" on="0"/>
        <pt x="426" y="272" on="1"/>
        <pt x="426" y="211" on="0"/>
        <pt x="392" y="108" on="0"/>
        <pt x="331" y="34" on="0"/>
        <pt x="246" y="-8" on="0"/>
        <pt x="196" y="-8" on="1"/>
        <pt x="159" y="-8" on="0"/>
        <pt x="98" y="18" on="0"/>
        <pt x="55" y="64" on="0"/>
        <pt x="31" y="130" on="0"/>
        <pt x="31" y="169" on="1"/>
        <pt x="31" y="219" on="0"/>
        <pt x="66" y="311" on="0"/>
        <pt x="128" y="382" on="0"/>
        <pt x="212" y="425" on="0"/>
        <pt x="261" y="425" on="1"/>
        <pt x="294" y="425" on="0"/>
        <pt x="349" y="399" on="0"/>
        <pt x="363" y="379" on="1"/>
        <pt x="352" y="441" on="0"/>
        <pt x="293" y="547" on="0"/>
        <pt x="252" y="590" on="1"/>
        <pt x="146" y="524" on="1"/>
        <pt x="121" y="564" on="1"/>
        <pt x="217" y="625" on="1"/>
        <pt x="171" y="665" on="0"/>
        <pt x="123" y="692" on="1"/>
        <pt x="151" y="735" on="1"/>
        <pt x="212" y="701" on="0"/>
        <pt x="263" y="654" on="1"/>
        <pt x="362" y="716" on="1"/>
        <pt x="388" y="675" on="1"/>
      </contour>
      <contour>
        <pt x="371" y="250" on="1"/>
        <pt x="371" y="306" on="0"/>
        <pt x="311" y="376" on="0"/>
        <pt x="257" y="376" on="1"/>
        <pt x="221" y="376" on="0"/>
        <pt x="159" y="342" on="0"/>
        <pt x="113" y="286" on="0"/>
        <pt x="86" y="213" on="0"/>
        <pt x="86" y="173" on="1"/>
        <pt x="86" y="113" on="0"/>
        <pt x="149" y="41" on="0"/>
        <pt x="203" y="41" on="1"/>
        <pt x="238" y="41" on="0"/>
        <pt x="299" y="75" on="0"/>
        <pt x="345" y="132" on="0"/>
        <pt x="371" y="208" on="0"/>
      </contour>
    </TTGlyph>
    <TTGlyph name="exclam" xMin="29" yMin="-8" xMax="237" yMax="733">
      <contour>
        <pt x="115" y="159" on="1"/>
        <pt x="75" y="163" on="1"/>
        <pt x="174" y="733" on="1"/>
        <pt x="237" y="733" on="1"/>
      </contour>
      <contour>
        <pt x="114" y="34" on="1"/>
        <pt x="114" y="17" on="0"/>
        <pt x="89" y="-8" on="0"/>
        <pt x="71" y="-8" on="1"/>
        <pt x="54" y="-8" on="0"/>
        <pt x="29" y="17" on="0"/>
        <pt x="29" y="34" on="1"/>
        <pt x="29" y="52" on="0"/>
        <pt x="54" y="77" on="0"/>
        <pt x="71" y="77" on="1"/>
        <pt x="89" y="77" on="0"/>
        <pt x="114" y="52" on="0"/>
      </contour>
    </TTGlyph>
    <TTGlyph name="exclamdown" xMin="27" yMin="0" xMax="235" yMax="742">
      <contour>
        <pt x="235" y="700" on="1"/>
        <pt x="235" y="682" on="0"/>
        <pt x="210" y="657" on="0"/>
        <pt x="193" y="657" on="1"/>
        <pt x="175" y="657" on="0"/>
        <pt x="150" y="682" on="0"/>
        <pt x="150" y="700" on="1"/>
        <pt x="150" y="717" on="0"/>
        <pt x="175" y="742" on="0"/>
        <pt x="193" y="742" on="1"/>
        <pt x="210" y="742" on="0"/>
        <pt x="235" y="717" on="0"/>
      </contour>
      <contour>
        <pt x="90" y="0" on="1"/>
        <pt x="27" y="0" on="1"/>
        <pt x="149" y="574" on="1"/>
        <pt x="189" y="570" on="1"/>
      </contour>
    </TTGlyph>
    <TTGlyph name="f" xMin="9" yMin="-216" xMax="392" yMax="740">
      <contour>
        <pt x="372" y="678" on="1"/>
        <pt x="347" y="688" on="0"/>
        <pt x="318" y="688" on="1"/>
        <pt x="295" y="688" on="0"/>
        <pt x="263" y="676" on="0"/>
        <pt x="240" y="647" on="0"/>
        <pt x="223" y="600" on="0"/>
        <pt x="216" y="565" on="1"/>
        <pt x="187" y="418" on="1"/>
        <pt x="301" y="418" on="1"/>
        <pt x="291" y="369" on="1"/>
        <pt x="177" y="369" on="1"/>
        <pt x="64" y="-216" on="1"/>
        <pt x="9" y="-216" on="1"/>
        <pt x="123" y="369" on="1"/>
        <pt x="47" y="369" on="1"/>
        <pt x="49" y="380" on="1"/>
        <pt x="133" y="422" on="1"/>
        <pt x="161" y="563" on="1"/>
        <pt x="179" y="657" on="0"/>
        <pt x="256" y="740" on="0"/>
        <pt x="322" y="740" on="1"/>
        <pt x="359" y="740" on="0"/>
        <pt x="392" y="726" on="1"/>
      </contour>
    </TTGlyph>
    <TTGlyph name="f_f" xMin="9" yMin="-216" xMax="659" yMax="740">
      <contour>
        <pt x="639" y="678" on="1"/>
        <pt x="614" y="688" on="0"/>
        <pt x="585" y="688" on="1"/>
        <pt x="562" y="688" on="0"/>
        <pt x="530" y="676" on="0"/>
        <pt x="507" y="647" on="0"/>
        <pt x="490" y="600" on="0"/>
        <pt x="483" y="565" on="1"/>
        <pt x="454" y="418" on="1"/>
        <pt x="568" y="418" on="1"/>
        <pt x="558" y="369" on="1"/>
        <pt x="444" y="369" on="1"/>
        <pt x="331" y="-216" on="1"/>
        <pt x="276" y="-216" on="1"/>
        <pt x="390" y="369" on="1"/>
        <pt x="314" y="369" on="1"/>
        <pt x="316" y="380" on="1"/>
        <pt x="400" y="422" on="1"/>
        <pt x="428" y="563" on="1"/>
        <pt x="446" y="657" on="0"/>
        <pt x="523" y="740" on="0"/>
        <pt x="589" y="740" on="1"/>
        <pt x="626" y="740" on="0"/>
        <pt x="659" y="726" on="1"/>
      </contour>
      <contour>
        <pt x="372" y="678" on="1"/>
        <pt x="347" y="688" on="0"/>
        <pt x="318" y="688" on="1"/>
        <pt x="295" y="688" on="0"/>
        <pt x="263" y="676" on="0"/>
        <pt x="240" y="647" on="0"/>
        <pt x="223" y="600" on="0"/>
        <pt x="216" y="565" on="1"/>
        <pt x="187" y="418" on="1"/>
        <pt x="301" y="418" on="1"/>
        <pt x="291" y="369" on="1"/>
        <pt x="177" y="369" on="1"/>
        <pt x="64" y="-216" on="1"/>
        <pt x="9" y="-216" on="1"/>
        <pt x="123" y="369" on="1"/>
        <pt x="47" y="369" on="1"/>
        <pt x="49" y="380" on="1"/>
        <pt x="133" y="422" on="1"/>
        <pt x="161" y="563" on="1"/>
        <pt x="179" y="657" on="0"/>
        <pt x="256" y="740" on="0"/>
        <pt x="322" y="740" on="1"/>
        <pt x="359" y="740" on="0"/>
        <pt x="392" y="726" on="1"/>
      </contour>
    </TTGlyph>
    <TTGlyph name="f_f_i" xMin="9" yMin="-216" xMax="739" yMax="740">
      <contour>
        <pt x="372" y="678" on="1"/>
        <pt x="347" y="688" on="0"/>
        <pt x="318" y="688" on="1"/>
        <pt x="295" y="688" on="0"/>
        <pt x="263" y="676" on="0"/>
        <pt x="240" y="647" on="0"/>
        <pt x="223" y="600" on="0"/>
        <pt x="216" y="565" on="1"/>
        <pt x="187" y="418" on="1"/>
        <pt x="301" y="418" on="1"/>
        <pt x="291" y="369" on="1"/>
        <pt x="177" y="369" on="1"/>
        <pt x="64" y="-216" on="1"/>
        <pt x="9" y="-216" on="1"/>
        <pt x="123" y="369" on="1"/>
        <pt x="47" y="369" on="1"/>
        <pt x="49" y="380" on="1"/>
        <pt x="133" y="422" on="1"/>
        <pt x="161" y="563" on="1"/>
        <pt x="179" y="657" on="0"/>
        <pt x="256" y="740" on="0"/>
        <pt x="322" y="740" on="1"/>
        <pt x="359" y="740" on="0"/>
        <pt x="392" y="726" on="1"/>
      </contour>
      <contour>
        <pt x="639" y="678" on="1"/>
        <pt x="614" y="688" on="0"/>
        <pt x="585" y="688" on="1"/>
        <pt x="562" y="688" on="0"/>
        <pt x="530" y="676" on="0"/>
        <pt x="507" y="647" on="0"/>
        <pt x="490" y="600" on="0"/>
        <pt x="483" y="565" on="1"/>
        <pt x="454" y="418" on="1"/>
        <pt x="568" y="418" on="1"/>
        <pt x="558" y="369" on="1"/>
        <pt x="444" y="369" on="1"/>
        <pt x="331" y="-216" on="1"/>
        <pt x="276" y="-216" on="1"/>
        <pt x="390" y="369" on="1"/>
        <pt x="314" y="369" on="1"/>
        <pt x="316" y="380" on="1"/>
        <pt x="400" y="422" on="1"/>
        <pt x="428" y="563" on="1"/>
        <pt x="446" y="657" on="0"/>
        <pt x="523" y="740" on="0"/>
        <pt x="589" y="740" on="1"/>
        <pt x="626" y="740" on="0"/>
        <pt x="659" y="726" on="1"/>
      </contour>
      <contour>
        <pt x="616" y="0" on="1"/>
        <pt x="560" y="0" on="1"/>
        <pt x="642" y="418" on="1"/>
        <pt x="697" y="418" on="1"/>
      </contour>
      <contour>
        <pt x="739" y="572" on="1"/>
        <pt x="739" y="556" on="0"/>
        <pt x="716" y="533" on="0"/>
        <pt x="699" y="533" on="1"/>
        <pt x="682" y="533" on="0"/>
        <pt x="659" y="556" on="0"/>
        <pt x="659" y="572" on="1"/>
        <pt x="659" y="589" on="0"/>
        <pt x="682" y="613" on="0"/>
        <pt x="699" y="613" on="1"/>
        <pt x="716" y="613" on="0"/>
        <pt x="739" y="589" on="0"/>
      </contour>
    </TTGlyph>
    <TTGlyph name="f_f_l" xMin="9" yMin="-216" xMax="756" yMax="740">
      <contour>
        <pt x="372" y="678" on="1"/>
        <pt x="347" y="688" on="0"/>
        <pt x="318" y="688" on="1"/>
        <pt x="295" y="688" on="0"/>
        <pt x="263" y="676" on="0"/>
        <pt x="240" y="647" on="0"/>
        <pt x="223" y="600" on="0"/>
        <pt x="216" y="565" on="1"/>
        <pt x="187" y="418" on="1"/>
        <pt x="301" y="418" on="1"/>
        <pt x="291" y="369" on="1"/>
        <pt x="177" y="369" on="1"/>
        <pt x="64" y="-216" on="1"/>
        <pt x="9" y="-216" on="1"/>
        <pt x="123" y="369" on="1"/>
        <pt x="47" y="369" on="1"/>
        <pt x="49" y="380" on="1"/>
        <pt x="133" y="422" on="1"/>
        <pt x="161" y="563" on="1"/>
        <pt x="179" y="657" on="0"/>
        <pt x="256" y="740" on="0"/>
        <pt x="322" y="740" on="1"/>
        <pt x="359" y="740" on="0"/>
        <pt x="392" y="726" on="1"/>
      </contour>
      <contour>
        <pt x="639" y="678" on="1"/>
        <pt x="614" y="688" on="0"/>
        <pt x="585" y="688" on="1"/>
        <pt x="562" y="688" on="0"/>
        <pt x="530" y="676" on="0"/>
        <pt x="507" y="647" on="0"/>
        <pt x="490" y="600" on="0"/>
        <pt x="483" y="565" on="1"/>
        <pt x="454" y="418" on="1"/>
        <pt x="568" y="418" on="1"/>
        <pt x="558" y="369" on="1"/>
        <pt x="444" y="369" on="1"/>
        <pt x="331" y="-216" on="1"/>
        <pt x="276" y="-216" on="1"/>
        <pt x="390" y="369" on="1"/>
        <pt x="314" y="369" on="1"/>
        <pt x="316" y="380" on="1"/>
        <pt x="400" y="422" on="1"/>
        <pt x="428" y="563" on="1"/>
        <pt x="446" y="657" on="0"/>
        <pt x="523" y="740" on="0"/>
        <pt x="589" y="740" on="1"/>
        <pt x="626" y="740" on="0"/>
        <pt x="659" y="726" on="1"/>
      </contour>
      <contour>
        <pt x="614" y="0" on="1"/>
        <pt x="559" y="0" on="1"/>
        <pt x="701" y="733" on="1"/>
        <pt x="756" y="733" on="1"/>
      </contour>
    </TTGlyph>
    <TTGlyph name="fi" xMin="9" yMin="-216" xMax="472" yMax="740">
      <contour>
        <pt x="372" y="678" on="1"/>
        <pt x="347" y="688" on="0"/>
        <pt x="318" y="688" on="1"/>
        <pt x="295" y="688" on="0"/>
        <pt x="263" y="676" on="0"/>
        <pt x="240" y="647" on="0"/>
        <pt x="223" y="600" on="0"/>
        <pt x="216" y="565" on="1"/>
        <pt x="187" y="418" on="1"/>
        <pt x="301" y="418" on="1"/>
        <pt x="291" y="369" on="1"/>
        <pt x="177" y="369" on="1"/>
        <pt x="64" y="-216" on="1"/>
        <pt x="9" y="-216" on="1"/>
        <pt x="123" y="369" on="1"/>
        <pt x="47" y="369" on="1"/>
        <pt x="49" y="380" on="1"/>
        <pt x="133" y="422" on="1"/>
        <pt x="161" y="563" on="1"/>
        <pt x="179" y="657" on="0"/>
        <pt x="256" y="740" on="0"/>
        <pt x="322" y="740" on="1"/>
        <pt x="359" y="740" on="0"/>
        <pt x="392" y="726" on="1"/>
      </contour>
      <contour>
        <pt x="349" y="0" on="1"/>
        <pt x="293" y="0" on="1"/>
        <pt x="375" y="418" on="1"/>
        <pt x="430" y="418" on="1"/>
      </contour>
      <contour>
        <pt x="472" y="572" on="1"/>
        <pt x="472" y="556" on="0"/>
        <pt x="449" y="533" on="0"/>
        <pt x="432" y="533" on="1"/>
        <pt x="415" y="533" on="0"/>
        <pt x="392" y="556" on="0"/>
        <pt x="392" y="572" on="1"/>
        <pt x="392" y="589" on="0"/>
        <pt x="415" y="613" on="0"/>
        <pt x="432" y="613" on="1"/>
        <pt x="449" y="613" on="0"/>
        <pt x="472" y="589" on="0"/>
      </contour>
    </TTGlyph>
    <TTGlyph name="fifteensixteenths" xMin="131" yMin="-16" xMax="1328" yMax="749">
      <component glyphName="one.den" x="741" y="0" flags="0x4"/>
      <component glyphName="five.num" x="281" y="0" flags="0x4"/>
      <component glyphName="six.den" x="1015" y="0" flags="0x4"/>
      <component glyphName="one.num" x="7" y="0" flags="0x4"/>
      <component glyphName="fraction" x="631" y="0" flags="0x4"/>
    </TTGlyph>
    <TTGlyph name="five" xMin="24" yMin="-9" xMax="443" yMax="577">
      <contour>
        <pt x="433" y="527" on="1"/>
        <pt x="197" y="527" on="1"/>
        <pt x="161" y="342" on="1"/>
        <pt x="167" y="342" on="0"/>
        <pt x="179" y="343" on="0"/>
        <pt x="186" y="343" on="1"/>
        <pt x="236" y="343" on="0"/>
        <pt x="316" y="319" on="0"/>
        <pt x="372" y="276" on="0"/>
        <pt x="402" y="215" on="0"/>
        <pt x="402" y="178" on="1"/>
        <pt x="402" y="139" on="0"/>
        <pt x="370" y="70" on="0"/>
        <pt x="313" y="20" on="0"/>
        <pt x="233" y="-9" on="0"/>
        <pt x="185" y="-9" on="1"/>
        <pt x="137" y="-9" on="0"/>
        <pt x="59" y="14" on="0"/>
        <pt x="24" y="31" on="1"/>
        <pt x="48" y="76" on="1"/>
        <pt x="77" y="62" on="0"/>
        <pt x="148" y="39" on="0"/>
        <pt x="186" y="39" on="1"/>
        <pt x="220" y="39" on="0"/>
        <pt x="278" y="58" on="0"/>
        <pt x="321" y="93" on="0"/>
        <pt x="345" y="142" on="0"/>
        <pt x="345" y="172" on="1"/>
        <pt x="345" y="235" on="0"/>
        <pt x="249" y="296" on="0"/>
        <pt x="171" y="296" on="1"/>
        <pt x="152" y="296" on="0"/>
        <pt x="122" y="294" on="0"/>
        <pt x="109" y="293" on="1"/>
        <pt x="102" y="301" on="1"/>
        <pt x="155" y="577" on="1"/>
        <pt x="443" y="577" on="1"/>
      </contour>
    </TTGlyph>
    <TTGlyph name="five.den" xMin="7" yMin="-8" xMax="325" yMax="379">
      <contour>
        <pt x="29" y="69" on="1"/>
        <pt x="53" y="53" on="0"/>
        <pt x="110" y="36" on="0"/>
        <pt x="139" y="36" on="1"/>
        <pt x="186" y="36" on="0"/>
        <pt x="243" y="81" on="0"/>
        <pt x="243" y="120" on="1"/>
        <pt x="243" y="152" on="0"/>
        <pt x="191" y="192" on="0"/>
        <pt x="131" y="192" on="1"/>
        <pt x="114" y="192" on="0"/>
        <pt x="82" y="190" on="0"/>
        <pt x="67" y="188" on="1"/>
        <pt x="56" y="196" on="1"/>
        <pt x="91" y="379" on="1"/>
        <pt x="325" y="379" on="1"/>
        <pt x="317" y="335" on="1"/>
        <pt x="130" y="335" on="1"/>
        <pt x="110" y="235" on="1"/>
        <pt x="118" y="235" on="0"/>
        <pt x="131" y="236" on="0"/>
        <pt x="137" y="236" on="1"/>
        <pt x="180" y="236" on="0"/>
        <pt x="240" y="219" on="0"/>
        <pt x="278" y="188" on="0"/>
        <pt x="295" y="147" on="0"/>
        <pt x="295" y="123" on="1"/>
        <pt x="295" y="95" on="0"/>
        <pt x="274" y="47" on="0"/>
        <pt x="233" y="12" on="0"/>
        <pt x="176" y="-8" on="0"/>
        <pt x="140" y="-8" on="1"/>
        <pt x="104" y="-8" on="0"/>
        <pt x="36" y="10" on="0"/>
        <pt x="7" y="27" on="1"/>
      </contour>
    </TTGlyph>
    <TTGlyph name="five.lin" xMin="31" yMin="-10" xMax="551" yMax="733">
      <contour>
        <pt x="541" y="682" on="1"/>
        <pt x="238" y="682" on="1"/>
        <pt x="185" y="432" on="1"/>
        <pt x="199" y="433" on="0"/>
        <pt x="221" y="433" on="0"/>
        <pt x="229" y="433" on="1"/>
        <pt x="292" y="433" on="0"/>
        <pt x="390" y="403" on="0"/>
        <pt x="457" y="348" on="0"/>
        <pt x="491" y="273" on="0"/>
        <pt x="491" y="228" on="1"/>
        <pt x="491" y="177" on="0"/>
        <pt x="452" y="90" on="0"/>
        <pt x="381" y="26" on="0"/>
        <pt x="283" y="-10" on="0"/>
        <pt x="224" y="-10" on="1"/>
        <pt x="169" y="-10" on="0"/>
        <pt x="76" y="18" on="0"/>
        <pt x="31" y="41" on="1"/>
        <pt x="53" y="87" on="1"/>
        <pt x="91" y="68" on="0"/>
        <pt x="178" y="39" on="0"/>
        <pt x="227" y="39" on="1"/>
        <pt x="270" y="39" on="0"/>
        <pt x="345" y="65" on="0"/>
        <pt x="401" y="113" on="0"/>
        <pt x="434" y="180" on="0"/>
        <pt x="434" y="221" on="1"/>
        <pt x="434" y="263" on="0"/>
        <pt x="401" y="325" on="0"/>
        <pt x="342" y="366" on="0"/>
        <pt x="261" y="387" on="0"/>
        <pt x="212" y="387" on="1"/>
        <pt x="187" y="387" on="0"/>
        <pt x="147" y="385" on="0"/>
        <pt x="127" y="383" on="1"/>
        <pt x="124" y="390" on="1"/>
        <pt x="196" y="733" on="1"/>
        <pt x="551" y="733" on="1"/>
      </contour>
    </TTGlyph>
    <TTGlyph name="five.num" xMin="76" yMin="346" xMax="394" yMax="733">
      <contour>
        <pt x="98" y="423" on="1"/>
        <pt x="122" y="408" on="0"/>
        <pt x="179" y="390" on="0"/>
        <pt x="208" y="390" on="1"/>
        <pt x="255" y="390" on="0"/>
        <pt x="312" y="436" on="0"/>
        <pt x="312" y="474" on="1"/>
        <pt x="312" y="506" on="0"/>
        <pt x="260" y="547" on="0"/>
        <pt x="200" y="547" on="1"/>
        <pt x="183" y="547" on="0"/>
        <pt x="151" y="544" on="0"/>
        <pt x="136" y="542" on="1"/>
        <pt x="125" y="550" on="1"/>
        <pt x="159" y="733" on="1"/>
        <pt x="394" y="733" on="1"/>
        <pt x="386" y="689" on="1"/>
        <pt x="199" y="689" on="1"/>
        <pt x="179" y="590" on="1"/>
        <pt x="206" y="590" on="1"/>
        <pt x="249" y="590" on="0"/>
        <pt x="309" y="573" on="0"/>
        <pt x="347" y="542" on="0"/>
        <pt x="364" y="501" on="0"/>
        <pt x="364" y="477" on="1"/>
        <pt x="364" y="449" on="0"/>
        <pt x="343" y="401" on="0"/>
        <pt x="302" y="366" on="0"/>
        <pt x="245" y="346" on="0"/>
        <pt x="209" y="346" on="1"/>
        <pt x="173" y="346" on="0"/>
        <pt x="105" y="364" on="0"/>
        <pt x="76" y="381" on="1"/>
      </contour>
    </TTGlyph>
    <TTGlyph name="fiveeighths" xMin="76" yMin="-16" xMax="810" yMax="749">
      <component glyphName="eight.den" x="467" y="0" flags="0x4"/>
      <component glyphName="five.num" x="7" y="0" flags="0x4"/>
      <component glyphName="fraction" x="357" y="0" flags="0x4"/>
    </TTGlyph>
    <TTGlyph name="fivesixteenths" xMin="76" yMin="-16" xMax="1054" yMax="749">
      <component glyphName="one.den" x="467" y="0" flags="0x4"/>
      <component glyphName="six.den" x="741" y="0" flags="0x4"/>
      <component glyphName="five.num" x="7" y="0" flags="0x4"/>
      <component glyphName="fraction" x="357" y="0" flags="0x4"/>
    </TTGlyph>
    <TTGlyph name="fivesixths" xMin="86" yMin="-16" xMax="820" yMax="749">
      <component glyphName="six.den" x="457" y="0" flags="0x4"/>
      <component glyphName="five.num" x="17" y="0" flags="0x4"/>
      <component glyphName="fraction" x="367" y="0" flags="0x4"/>
    </TTGlyph>
    <TTGlyph name="fl" xMin="9" yMin="-216" xMax="489" yMax="740">
      <contour>
        <pt x="347" y="0" on="1"/>
        <pt x="292" y="0" on="1"/>
        <pt x="434" y="733" on="1"/>
        <pt x="489" y="733" on="1"/>
      </contour>
      <contour>
        <pt x="372" y="678" on="1"/>
        <pt x="347" y="688" on="0"/>
        <pt x="318" y="688" on="1"/>
        <pt x="295" y="688" on="0"/>
        <pt x="263" y="676" on="0"/>
        <pt x="240" y="647" on="0"/>
        <pt x="223" y="600" on="0"/>
        <pt x="216" y="565" on="1"/>
        <pt x="187" y="418" on="1"/>
        <pt x="301" y="418" on="1"/>
        <pt x="291" y="369" on="1"/>
        <pt x="177" y="369" on="1"/>
        <pt x="64" y="-216" on="1"/>
        <pt x="9" y="-216" on="1"/>
        <pt x="123" y="369" on="1"/>
        <pt x="47" y="369" on="1"/>
        <pt x="49" y="380" on="1"/>
        <pt x="133" y="422" on="1"/>
        <pt x="161" y="563" on="1"/>
        <pt x="179" y="657" on="0"/>
        <pt x="256" y="740" on="0"/>
        <pt x="322" y="740" on="1"/>
        <pt x="359" y="740" on="0"/>
        <pt x="392" y="726" on="1"/>
      </contour>
    </TTGlyph>
    <TTGlyph name="florin" xMin="50" yMin="0" xMax="425" yMax="586">
      <contour>
        <pt x="404" y="523" on="1"/>
        <pt x="393" y="528" on="0"/>
        <pt x="364" y="534" on="0"/>
        <pt x="350" y="534" on="1"/>
        <pt x="305" y="534" on="0"/>
        <pt x="253" y="472" on="0"/>
        <pt x="231" y="403" on="1"/>
        <pt x="210" y="336" on="1"/>
        <pt x="301" y="336" on="1"/>
        <pt x="291" y="288" on="1"/>
        <pt x="195" y="288" on="1"/>
        <pt x="106" y="0" on="1"/>
        <pt x="50" y="0" on="1"/>
        <pt x="139" y="288" on="1"/>
        <pt x="81" y="288" on="1"/>
        <pt x="82" y="300" on="1"/>
        <pt x="154" y="337" on="1"/>
        <pt x="173" y="400" on="1"/>
        <pt x="203" y="497" on="0"/>
        <pt x="288" y="586" on="0"/>
        <pt x="357" y="586" on="1"/>
        <pt x="377" y="586" on="0"/>
        <pt x="410" y="579" on="0"/>
        <pt x="425" y="573" on="1"/>
      </contour>
    </TTGlyph>
    <TTGlyph name="florin.lin" xMin="56" yMin="0" xMax="516" yMax="744">
      <contour>
        <pt x="493" y="677" on="1"/>
        <pt x="475" y="684" on="0"/>
        <pt x="438" y="693" on="0"/>
        <pt x="414" y="693" on="1"/>
        <pt x="349" y="693" on="0"/>
        <pt x="271" y="610" on="0"/>
        <pt x="248" y="517" on="1"/>
        <pt x="222" y="418" on="1"/>
        <pt x="358" y="418" on="1"/>
        <pt x="348" y="368" on="1"/>
        <pt x="208" y="368" on="1"/>
        <pt x="113" y="0" on="1"/>
        <pt x="56" y="0" on="1"/>
        <pt x="151" y="367" on="1"/>
        <pt x="79" y="367" on="1"/>
        <pt x="81" y="380" on="1"/>
        <pt x="165" y="417" on="1"/>
        <pt x="191" y="522" on="1"/>
        <pt x="219" y="632" on="0"/>
        <pt x="335" y="744" on="0"/>
        <pt x="420" y="744" on="1"/>
        <pt x="448" y="744" on="0"/>
        <pt x="498" y="732" on="0"/>
        <pt x="516" y="724" on="1"/>
      </contour>
    </TTGlyph>
    <TTGlyph name="four" xMin="22" yMin="-1" xMax="458" yMax="587">
      <contour>
        <pt x="448" y="174" on="1"/>
        <pt x="352" y="174" on="1"/>
        <pt x="318" y="-1" on="1"/>
        <pt x="266" y="-1" on="1"/>
        <pt x="300" y="174" on="1"/>
        <pt x="22" y="174" on="1"/>
        <pt x="24" y="191" on="1"/>
        <pt x="415" y="587" on="1"/>
        <pt x="433" y="587" on="1"/>
        <pt x="362" y="222" on="1"/>
        <pt x="458" y="222" on="1"/>
      </contour>
      <contour>
        <pt x="358" y="467" on="1"/>
        <pt x="116" y="222" on="1"/>
        <pt x="310" y="222" on="1"/>
      </contour>
    </TTGlyph>
    <TTGlyph name="four.den" xMin="-9" yMin="0" xMax="317" yMax="397">
      <contour>
        <pt x="200" y="85" on="1"/>
        <pt x="-9" y="85" on="1"/>
        <pt x="-2" y="114" on="1"/>
        <pt x="274" y="397" on="1"/>
        <pt x="306" y="397" on="1"/>
        <pt x="253" y="125" on="1"/>
        <pt x="317" y="125" on="1"/>
        <pt x="309" y="85" on="1"/>
        <pt x="245" y="85" on="1"/>
        <pt x="229" y="0" on="1"/>
        <pt x="184" y="0" on="1"/>
      </contour>
      <contour>
        <pt x="208" y="125" on="1"/>
        <pt x="245" y="312" on="1"/>
        <pt x="61" y="125" on="1"/>
      </contour>
    </TTGlyph>
    <TTGlyph name="four.lin" xMin="23" yMin="0" xMax="577" yMax="742">
      <contour>
        <pt x="568" y="223" on="1"/>
        <pt x="442" y="223" on="1"/>
        <pt x="400" y="0" on="1"/>
        <pt x="344" y="0" on="1"/>
        <pt x="387" y="223" on="1"/>
        <pt x="23" y="223" on="1"/>
        <pt x="26" y="238" on="1"/>
        <pt x="520" y="742" on="1"/>
        <pt x="544" y="742" on="1"/>
        <pt x="452" y="271" on="1"/>
        <pt x="577" y="271" on="1"/>
      </contour>
      <contour>
        <pt x="467" y="623" on="1"/>
        <pt x="123" y="271" on="1"/>
        <pt x="397" y="271" on="1"/>
      </contour>
    </TTGlyph>
    <TTGlyph name="four.num" xMin="60" yMin="354" xMax="386" yMax="751">
      <contour>
        <pt x="269" y="439" on="1"/>
        <pt x="60" y="439" on="1"/>
        <pt x="67" y="469" on="1"/>
        <pt x="343" y="751" on="1"/>
        <pt x="375" y="751" on="1"/>
        <pt x="322" y="479" on="1"/>
        <pt x="386" y="479" on="1"/>
        <pt x="378" y="439" on="1"/>
        <pt x="314" y="439" on="1"/>
        <pt x="298" y="354" on="1"/>
        <pt x="253" y="354" on="1"/>
      </contour>
      <contour>
        <pt x="277" y="479" on="1"/>
        <pt x="314" y="667" on="1"/>
        <pt x="130" y="479" on="1"/>
      </contour>
    </TTGlyph>
    <TTGlyph name="fourfifths" xMin="67" yMin="-16" xMax="810" yMax="751">
      <component glyphName="four.num" x="7" y="0" flags="0x4"/>
      <component glyphName="five.den" x="467" y="0" flags="0x4"/>
      <component glyphName="fraction" x="357" y="0" flags="0x4"/>
    </TTGlyph>
    <TTGlyph name="fraction" xMin="-281" yMin="-16" xMax="453" yMax="749">
      <contour>
        <pt x="-281" y="14" on="1"/>
        <pt x="71" y="382" on="1"/>
        <pt x="419" y="749" on="1"/>
        <pt x="453" y="719" on="1"/>
        <pt x="101" y="351" on="1"/>
        <pt x="-247" y="-16" on="1"/>
      </contour>
    </TTGlyph>
    <TTGlyph name="g" xMin="17" yMin="-226" xMax="451" yMax="426">
      <contour>
        <pt x="361" y="-44" on="1"/>
        <pt x="342" y="-140" on="0"/>
        <pt x="235" y="-226" on="0"/>
        <pt x="152" y="-226" on="1"/>
        <pt x="116" y="-226" on="0"/>
        <pt x="48" y="-211" on="0"/>
        <pt x="17" y="-198" on="1"/>
        <pt x="37" y="-150" on="1"/>
        <pt x="66" y="-162" on="0"/>
        <pt x="123" y="-175" on="0"/>
        <pt x="155" y="-175" on="1"/>
        <pt x="219" y="-175" on="0"/>
        <pt x="292" y="-114" on="0"/>
        <pt x="306" y="-45" on="1"/>
        <pt x="320" y="27" on="1"/>
        <pt x="297" y="12" on="0"/>
        <pt x="240" y="-8" on="0"/>
        <pt x="205" y="-8" on="1"/>
        <pt x="170" y="-8" on="0"/>
        <pt x="110" y="18" on="0"/>
        <pt x="64" y="65" on="0"/>
        <pt x="38" y="130" on="0"/>
        <pt x="38" y="168" on="1"/>
        <pt x="38" y="217" on="0"/>
        <pt x="73" y="310" on="0"/>
        <pt x="135" y="382" on="0"/>
        <pt x="222" y="426" on="0"/>
        <pt x="273" y="426" on="1"/>
        <pt x="311" y="426" on="0"/>
        <pt x="372" y="398" on="0"/>
        <pt x="391" y="381" on="1"/>
        <pt x="398" y="418" on="1"/>
        <pt x="451" y="418" on="1"/>
      </contour>
      <contour>
        <pt x="379" y="331" on="1"/>
        <pt x="360" y="351" on="0"/>
        <pt x="305" y="378" on="0"/>
        <pt x="270" y="378" on="1"/>
        <pt x="232" y="378" on="0"/>
        <pt x="167" y="345" on="0"/>
        <pt x="120" y="290" on="0"/>
        <pt x="93" y="218" on="0"/>
        <pt x="93" y="179" on="1"/>
        <pt x="93" y="114" on="0"/>
        <pt x="161" y="40" on="0"/>
        <pt x="216" y="40" on="1"/>
        <pt x="248" y="40" on="0"/>
        <pt x="305" y="63" on="0"/>
        <pt x="330" y="84" on="1"/>
      </contour>
    </TTGlyph>
    <TTGlyph name="gbreve" xMin="17" yMin="-226" xMax="463" yMax="617">
      <component glyphName="g" x="0" y="0" flags="0x204"/>
      <component glyphName="breve" x="39" y="0" flags="0x4"/>
    </TTGlyph>
    <TTGlyph name="gcommaaccent" xMin="17" yMin="-226" xMax="451" yMax="689">
      <contour>
        <pt x="276" y="549" on="1"/>
        <pt x="276" y="571" on="0"/>
        <pt x="297" y="613" on="0"/>
        <pt x="330" y="649" on="0"/>
        <pt x="371" y="678" on="0"/>
        <pt x="391" y="689" on="1"/>
        <pt x="400" y="676" on="1"/>
        <pt x="369" y="652" on="0"/>
        <pt x="330" y="608" on="0"/>
        <pt x="320" y="585" on="1"/>
        <pt x="337" y="582" on="0"/>
        <pt x="360" y="558" on="0"/>
        <pt x="360" y="541" on="1"/>
        <pt x="360" y="524" on="0"/>
        <pt x="336" y="500" on="0"/>
        <pt x="319" y="500" on="1"/>
        <pt x="304" y="500" on="0"/>
        <pt x="276" y="526" on="0"/>
      </contour>
      <contour>
        <pt x="361" y="-44" on="1"/>
        <pt x="342" y="-140" on="0"/>
        <pt x="235" y="-226" on="0"/>
        <pt x="152" y="-226" on="1"/>
        <pt x="116" y="-226" on="0"/>
        <pt x="48" y="-211" on="0"/>
        <pt x="17" y="-198" on="1"/>
        <pt x="37" y="-150" on="1"/>
        <pt x="66" y="-162" on="0"/>
        <pt x="123" y="-175" on="0"/>
        <pt x="155" y="-175" on="1"/>
        <pt x="219" y="-175" on="0"/>
        <pt x="292" y="-114" on="0"/>
        <pt x="306" y="-45" on="1"/>
        <pt x="320" y="27" on="1"/>
        <pt x="297" y="12" on="0"/>
        <pt x="240" y="-8" on="0"/>
        <pt x="205" y="-8" on="1"/>
        <pt x="170" y="-8" on="0"/>
        <pt x="110" y="18" on="0"/>
        <pt x="64" y="65" on="0"/>
        <pt x="38" y="130" on="0"/>
        <pt x="38" y="168" on="1"/>
        <pt x="38" y="217" on="0"/>
        <pt x="73" y="310" on="0"/>
        <pt x="135" y="382" on="0"/>
        <pt x="222" y="426" on="0"/>
        <pt x="273" y="426" on="1"/>
        <pt x="311" y="426" on="0"/>
        <pt x="372" y="398" on="0"/>
        <pt x="391" y="381" on="1"/>
        <pt x="398" y="418" on="1"/>
        <pt x="451" y="418" on="1"/>
      </contour>
      <contour>
        <pt x="379" y="331" on="1"/>
        <pt x="360" y="351" on="0"/>
        <pt x="305" y="378" on="0"/>
        <pt x="270" y="378" on="1"/>
        <pt x="232" y="378" on="0"/>
        <pt x="167" y="345" on="0"/>
        <pt x="120" y="290" on="0"/>
        <pt x="93" y="218" on="0"/>
        <pt x="93" y="179" on="1"/>
        <pt x="93" y="114" on="0"/>
        <pt x="161" y="40" on="0"/>
        <pt x="216" y="40" on="1"/>
        <pt x="248" y="40" on="0"/>
        <pt x="305" y="63" on="0"/>
        <pt x="330" y="84" on="1"/>
      </contour>
    </TTGlyph>
    <TTGlyph name="gdotaccent" xMin="17" yMin="-226" xMax="451" yMax="582">
      <component glyphName="g" x="0" y="0" flags="0x204"/>
      <component glyphName="dotaccent" x="34" y="0" flags="0x4"/>
    </TTGlyph>
    <TTGlyph name="germandbls" xMin="-25" yMin="-216" xMax="456" yMax="741">
      <contour>
        <pt x="258" y="209" on="1"/>
        <pt x="318" y="197" on="0"/>
        <pt x="382" y="128" on="0"/>
        <pt x="382" y="79" on="1"/>
        <pt x="382" y="44" on="0"/>
        <pt x="356" y="-18" on="0"/>
        <pt x="309" y="-64" on="0"/>
        <pt x="243" y="-91" on="0"/>
        <pt x="201" y="-91" on="1"/>
        <pt x="175" y="-91" on="0"/>
        <pt x="130" y="-82" on="0"/>
        <pt x="110" y="-76" on="1"/>
        <pt x="124" y="-28" on="1"/>
        <pt x="144" y="-35" on="0"/>
        <pt x="181" y="-42" on="0"/>
        <pt x="203" y="-42" on="1"/>
        <pt x="230" y="-42" on="0"/>
        <pt x="275" y="-25" on="0"/>
        <pt x="308" y="6" on="0"/>
        <pt x="326" y="48" on="0"/>
        <pt x="326" y="73" on="1"/>
        <pt x="326" y="124" on="0"/>
        <pt x="244" y="176" on="0"/>
        <pt x="176" y="174" on="1"/>
        <pt x="176" y="175" on="1"/>
        <pt x="172" y="185" on="1"/>
        <pt x="354" y="370" on="1"/>
        <pt x="143" y="370" on="1"/>
        <pt x="31" y="-216" on="1"/>
        <pt x="-25" y="-216" on="1"/>
        <pt x="128" y="572" on="1"/>
        <pt x="146" y="665" on="0"/>
        <pt x="231" y="741" on="0"/>
        <pt x="291" y="741" on="1"/>
        <pt x="313" y="741" on="0"/>
        <pt x="352" y="732" on="0"/>
        <pt x="366" y="725" on="1"/>
        <pt x="346" y="677" on="1"/>
        <pt x="334" y="682" on="0"/>
        <pt x="305" y="690" on="0"/>
        <pt x="287" y="690" on="1"/>
        <pt x="247" y="690" on="0"/>
        <pt x="196" y="635" on="0"/>
        <pt x="182" y="566" on="1"/>
        <pt x="153" y="418" on="1"/>
        <pt x="453" y="418" on="1"/>
        <pt x="456" y="408" on="1"/>
      </contour>
    </TTGlyph>
    <TTGlyph name="grave" xMin="178" yMin="475" xMax="382" yMax="634">
      <contour>
        <pt x="360" y="475" on="1"/>
        <pt x="178" y="586" on="1"/>
        <pt x="213" y="634" on="1"/>
        <pt x="382" y="505" on="1"/>
      </contour>
    </TTGlyph>
    <TTGlyph name="greater" xMin="7" yMin="43" xMax="356" yMax="526">
      <contour>
        <pt x="34" y="43" on="1"/>
        <pt x="7" y="83" on="1"/>
        <pt x="281" y="268" on="1"/>
        <pt x="88" y="496" on="1"/>
        <pt x="128" y="526" on="1"/>
        <pt x="356" y="259" on="1"/>
      </contour>
    </TTGlyph>
    <TTGlyph name="greater.lin" xMin="31" yMin="130" xMax="380" yMax="613">
      <component glyphName="greater" x="24" y="87" flags="0x204"/>
    </TTGlyph>
    <TTGlyph name="guillemotleft" xMin="42" yMin="9" xMax="382" yMax="336">
      <contour>
        <pt x="242" y="170" on="1"/>
        <pt x="318" y="9" on="1"/>
        <pt x="260" y="9" on="1"/>
        <pt x="187" y="174" on="1"/>
        <pt x="324" y="336" on="1"/>
        <pt x="382" y="336" on="1"/>
      </contour>
      <contour>
        <pt x="97" y="170" on="1"/>
        <pt x="173" y="9" on="1"/>
        <pt x="115" y="9" on="1"/>
        <pt x="42" y="174" on="1"/>
        <pt x="179" y="336" on="1"/>
        <pt x="237" y="336" on="1"/>
      </contour>
    </TTGlyph>
    <TTGlyph name="guillemotleft.cap" xMin="81" yMin="207" xMax="421" yMax="534">
      <component glyphName="guillemotleft" x="39" y="198" flags="0x204"/>
    </TTGlyph>
    <TTGlyph name="guillemotright" xMin="6" yMin="9" xMax="346" yMax="336">
      <contour>
        <pt x="209" y="9" on="1"/>
        <pt x="151" y="9" on="1"/>
        <pt x="291" y="176" on="1"/>
        <pt x="215" y="336" on="1"/>
        <pt x="273" y="336" on="1"/>
        <pt x="346" y="171" on="1"/>
      </contour>
      <contour>
        <pt x="64" y="9" on="1"/>
        <pt x="6" y="9" on="1"/>
        <pt x="146" y="176" on="1"/>
        <pt x="70" y="336" on="1"/>
        <pt x="128" y="336" on="1"/>
        <pt x="201" y="171" on="1"/>
      </contour>
    </TTGlyph>
    <TTGlyph name="guillemotright.cap" xMin="44" yMin="207" xMax="384" yMax="534">
      <component glyphName="guillemotright" x="38" y="198" flags="0x204"/>
    </TTGlyph>
    <TTGlyph name="guilsinglleft" xMin="42" yMin="9" xMax="237" yMax="336">
      <contour>
        <pt x="97" y="170" on="1"/>
        <pt x="173" y="9" on="1"/>
        <pt x="115" y="9" on="1"/>
        <pt x="42" y="174" on="1"/>
        <pt x="179" y="336" on="1"/>
        <pt x="237" y="336" on="1"/>
      </contour>
    </TTGlyph>
    <TTGlyph name="guilsinglleft.cap" xMin="82" yMin="207" xMax="277" yMax="534">
      <component glyphName="guilsinglleft" x="40" y="198" flags="0x204"/>
    </TTGlyph>
    <TTGlyph name="guilsinglright" xMin="6" yMin="9" xMax="201" yMax="336">
      <contour>
        <pt x="64" y="9" on="1"/>
        <pt x="6" y="9" on="1"/>
        <pt x="146" y="176" on="1"/>
        <pt x="70" y="336" on="1"/>
        <pt x="128" y="336" on="1"/>
        <pt x="201" y="171" on="1"/>
      </contour>
    </TTGlyph>
    <TTGlyph name="guilsinglright.cap" xMin="45" yMin="207" xMax="240" yMax="534">
      <component glyphName="guilsinglright" x="39" y="198" flags="0x204"/>
    </TTGlyph>
    <TTGlyph name="h" xMin="22" yMin="0" xMax="416" yMax="733">
      <contour>
        <pt x="416" y="317" on="1"/>
        <pt x="416" y="306" on="0"/>
        <pt x="413" y="281" on="0"/>
        <pt x="410" y="268" on="1"/>
        <pt x="358" y="0" on="1"/>
        <pt x="302" y="0" on="1"/>
        <pt x="354" y="264" on="1"/>
        <pt x="356" y="277" on="0"/>
        <pt x="359" y="297" on="0"/>
        <pt x="359" y="305" on="1"/>
        <pt x="359" y="340" on="0"/>
        <pt x="320" y="378" on="0"/>
        <pt x="285" y="378" on="1"/>
        <pt x="245" y="378" on="0"/>
        <pt x="172" y="333" on="0"/>
        <pt x="137" y="300" on="1"/>
        <pt x="78" y="0" on="1"/>
        <pt x="22" y="0" on="1"/>
        <pt x="165" y="733" on="1"/>
        <pt x="221" y="733" on="1"/>
        <pt x="145" y="350" on="1"/>
        <pt x="183" y="383" on="0"/>
        <pt x="264" y="425" on="0"/>
        <pt x="309" y="425" on="1"/>
        <pt x="363" y="425" on="0"/>
        <pt x="416" y="365" on="0"/>
      </contour>
    </TTGlyph>
    <TTGlyph name="hbar" xMin="22" yMin="0" xMax="416" yMax="733">
      <contour>
        <pt x="416" y="317" on="1"/>
        <pt x="416" y="306" on="0"/>
        <pt x="413" y="281" on="0"/>
        <pt x="410" y="268" on="1"/>
        <pt x="358" y="0" on="1"/>
        <pt x="302" y="0" on="1"/>
        <pt x="354" y="264" on="1"/>
        <pt x="356" y="277" on="0"/>
        <pt x="359" y="297" on="0"/>
        <pt x="359" y="305" on="1"/>
        <pt x="359" y="340" on="0"/>
        <pt x="320" y="378" on="0"/>
        <pt x="285" y="378" on="1"/>
        <pt x="245" y="378" on="0"/>
        <pt x="172" y="333" on="0"/>
        <pt x="137" y="300" on="1"/>
        <pt x="78" y="0" on="1"/>
        <pt x="22" y="0" on="1"/>
        <pt x="133" y="570" on="1"/>
        <pt x="75" y="570" on="1"/>
        <pt x="84" y="618" on="1"/>
        <pt x="142" y="618" on="1"/>
        <pt x="165" y="733" on="1"/>
        <pt x="221" y="733" on="1"/>
        <pt x="198" y="618" on="1"/>
        <pt x="343" y="618" on="1"/>
        <pt x="334" y="570" on="1"/>
        <pt x="188" y="570" on="1"/>
        <pt x="145" y="350" on="1"/>
        <pt x="183" y="383" on="0"/>
        <pt x="264" y="425" on="0"/>
        <pt x="309" y="425" on="1"/>
        <pt x="363" y="425" on="0"/>
        <pt x="416" y="365" on="0"/>
      </contour>
    </TTGlyph>
</ttFont>
